RobotoAvar2-opsz144-wdth151-wght1000.ufo
<glyph name="exclam" format="2">
  <advance width="1059.1495327102803"/>
  <unicode hex="0021"/>
  <outline>
    <contour>
      <point x="223.5" y="242.85046728971963" type="qcurve" smooth="yes"/>
      <point x="223.5" y="364.29906542056074"/>
      <point x="381.8738317757009" y="537.2523364485982"/>
      <point x="529.5747663551401" y="537.2523364485982" type="qcurve" smooth="yes"/>
      <point x="678.2289719626168" y="537.2523364485982"/>
      <point x="835.6495327102804" y="364.29906542056074"/>
      <point x="835.6495327102804" y="242.85046728971963" type="qcurve" smooth="yes"/>
      <point x="835.6495327102804" y="122.35514018691589"/>
      <point x="678.2289719626168" y="-50.598130841121495"/>
      <point x="529.5747663551401" y="-50.598130841121495" type="qcurve" smooth="yes"/>
      <point x="381.8738317757009" y="-50.598130841121495"/>
      <point x="223.5" y="122.35514018691589"/>
    </contour>
    <contour>
      <point x="275.9859813084112" y="559.6635514018692" type="line"/>
      <point x="232.38785046728972" y="1456.0" type="line"/>
      <point x="826.7616822429907" y="1456.0" type="line"/>
      <point x="783.1635514018692" y="559.6635514018692" type="line"/>
    </contour>
  </outline>
</glyph>
<glyph name="dollar" format="2">
  <advance width="1944.7258566978192"/>
  <unicode hex="0024"/>
  <outline>
    <contour>
      <point x="58.5" y="573.2686567164179" type="qcurve" smooth="yes"/>
      <point x="58.5" y="579.1641791044776" type="line"/>
      <point x="640.6401869158879" y="579.1641791044776" type="line"/>
      <point x="640.6401869158879" y="573.2686567164179" type="line" smooth="yes"/>
      <point x="640.6401869158879" y="490.70149253731347"/>
      <point x="818.0825545171339" y="454.88575812526153"/>
      <point x="956.1411400939228" y="454.88575812526153" type="qcurve" smooth="yes"/>
      <point x="1157.332333658809" y="454.88575812526153"/>
      <point x="1279.9859813084113" y="480.7100013948947"/>
      <point x="1279.9859813084113" y="498.92495466592277" type="qcurve" smooth="yes"/>
      <point x="1279.9859813084113" y="550.2678662760961"/>
      <point x="1086.1944250709073" y="509.11117310643044"/>
      <point x="855.1168224299065" y="491.7383177570093" type="qcurve" smooth="yes"/>
      <point x="382.21172176500676" y="508.69935369879573"/>
      <point x="77.92056074766356" y="757.2056074766356"/>
      <point x="77.92056074766356" y="936.9439252336449" type="qcurve" smooth="yes"/>
      <point x="77.92056074766356" y="1214.9158878504672"/>
      <point x="591.7990654205607" y="1458.0"/>
      <point x="907.4501557632399" y="1458.0" type="qcurve" smooth="yes"/>
      <point x="1278.4376947040498" y="1458.0"/>
      <point x="1814.9485981308412" y="1188.0955502859533"/>
      <point x="1814.9485981308412" y="905.8507462686567" type="qcurve" smooth="yes"/>
      <point x="1814.9485981308412" y="896.5522388059701" type="line"/>
      <point x="1233.7616822429907" y="896.5522388059701" type="line"/>
      <point x="1233.7616822429907" y="905.8507462686567" type="line" smooth="yes"/>
      <point x="1233.7616822429907" y="993.4671502301576"/>
      <point x="1052.2071651090341" y="1005.9850746268656"/>
      <point x="907.7834890965731" y="1005.9850746268656" type="qcurve" smooth="yes"/>
      <point x="776.6763611847305" y="1005.9850746268656"/>
      <point x="670.8830380806249" y="990.137397126517"/>
      <point x="670.8830380806249" y="962.1127074905844" type="qcurve" smooth="yes"/>
      <point x="670.8830380806249" y="944.5576788952434"/>
      <point x="759.2052122564747" y="1004.8202910680244"/>
      <point x="977.7834890965731" y="1012.1869158878504" type="qcurve" smooth="yes"/>
      <point x="1540.5841121495328" y="978.4289301157762"/>
      <point x="1864.892523364486" y="746.2902310875529"/>
      <point x="1864.892523364486" y="551.7365043939183" type="qcurve" smooth="yes"/>
      <point x="1864.892523364486" y="254.42990654205607"/>
      <point x="1312.322429906542" y="-2.1869158878504673"/>
      <point x="892.7710280373832" y="-2.1869158878504673" type="qcurve" smooth="yes"/>
      <point x="526.4182126749429" y="-2.1869158878504673"/>
      <point x="58.5" y="306.64179104477614"/>
    </contour>
    <contour>
      <point x="739.7897196261682" y="-170.0" type="line"/>
      <point x="739.7897196261682" y="749.3333333333334" type="line"/>
      <point x="1190.3691588785045" y="749.3333333333334" type="line"/>
      <point x="1190.3691588785045" y="80.0" type="line"/>
      <point x="1204.3691588785045" y="70.0" type="line"/>
      <point x="1204.3691588785045" y="-170.0" type="line"/>
    </contour>
    <contour>
      <point x="753.7897196261682" y="749.3333333333334" type="line"/>
      <point x="753.7897196261682" y="1386.0" type="line"/>
      <point x="739.7897196261682" y="1396.0" type="line"/>
      <point x="739.7897196261682" y="1586.0" type="line"/>
      <point x="1204.3691588785045" y="1586.0" type="line"/>
      <point x="1204.3691588785045" y="749.3333333333334" type="line"/>
    </contour>
  </outline>
</glyph>
<glyph name="ampersand" format="2">
  <advance width="2303.7912772585673"/>
  <unicode hex="0026"/>
  <outline>
    <contour>
      <point x="292.9018691588785" y="359.98130841121497" type="qcurve" smooth="yes"/>
      <point x="292.9018691588785" y="513.6479750778816"/>
      <point x="555.7776770353838" y="767.0484028455852"/>
      <point x="883.7538708327521" y="869.0788580462175" type="qcurve" smooth="yes"/>
      <point x="1026.626144976054" y="900.6377923466778" type="line" smooth="yes"/>
      <point x="1207.8160831357231" y="957.8743199888407"/>
      <point x="1287.2258566978192" y="1024.8839447621704"/>
      <point x="1287.2258566978192" y="1060.1144278606967" type="qcurve" smooth="yes"/>
      <point x="1287.2258566978192" y="1079.8507462686566"/>
      <point x="1226.1810805784162" y="1091.5373134328358"/>
      <point x="1156.5591900311526" y="1091.5373134328358" type="qcurve" smooth="yes"/>
      <point x="1092.892523364486" y="1091.5373134328358"/>
      <point x="1049.0815780908542" y="1073.6218905472638"/>
      <point x="1049.0815780908542" y="1057.2537313432836" type="qcurve" smooth="yes"/>
      <point x="1049.0815780908542" y="1033.8507462686566"/>
      <point x="1118.5807644022877" y="980.5895754870508"/>
      <point x="1321.5155763239875" y="807.4018691588785" type="qcurve" smooth="yes"/>
      <point x="2242.2912772585673" y="0.0" type="line"/>
      <point x="1487.973520249221" y="0.0" type="line"/>
      <point x="700.8800623052961" y="711.4018691588785" type="line" smooth="yes"/>
      <point x="588.5685358255452" y="815.9501557632399"/>
      <point x="460.2507788161994" y="986.5981308411215"/>
      <point x="460.2507788161994" y="1135.214953271028" type="qcurve" smooth="yes"/>
      <point x="460.2507788161994" y="1306.6666666666667"/>
      <point x="789.5342679127726" y="1486.0"/>
      <point x="1155.892523364486" y="1486.0" type="qcurve" smooth="yes"/>
      <point x="1522.7681917515226" y="1486.0"/>
      <point x="1831.0015576323988" y="1337.1674338587436"/>
      <point x="1831.0015576323988" y="1206.1212163481657" type="qcurve" smooth="yes"/>
      <point x="1831.0015576323988" y="918.8208955223881"/>
      <point x="1253.8109685218765" y="647.0119495978054"/>
      <point x="1163.4381131724556" y="613.6082670758359" type="qcurve" smooth="yes"/>
      <point x="1022.5658390291533" y="557.4802157437114" type="line" smooth="yes"/>
      <point x="945.5941553912679" y="518.604500860185"/>
      <point x="877.2757009345794" y="384.9353233830846"/>
      <point x="877.2757009345794" y="354.34328358208955" type="qcurve" smooth="yes"/>
      <point x="877.2757009345794" y="333.93532338308455"/>
      <point x="907.8558376342586" y="325.11940298507466"/>
      <point x="1051.7613102710748" y="325.11940298507466" type="qcurve" smooth="yes"/>
      <point x="1160.686683405403" y="325.11940298507466"/>
      <point x="1570.652647975078" y="420.0"/>
      <point x="1620.2227414330218" y="674.0" type="qcurve"/>
      <point x="2245.0264797507784" y="674.0" type="line"/>
      <point x="2198.3161993769468" y="362.3738317757009"/>
      <point x="1445.0669781931463" y="-20.0"/>
      <point x="1089.5623052959502" y="-20.0" type="qcurve" smooth="yes"/>
      <point x="578.303738317757" y="-20.0"/>
      <point x="292.9018691588785" y="170.64797507788163"/>
    </contour>
  </outline>
</glyph>
<glyph name="plus" format="2">
  <advance width="1470.8317757009345"/>
  <unicode hex="002B"/>
  <outline>
    <contour>
      <point x="94.5" y="457.5420560747664" type="line"/>
      <point x="94.5" y="888.4579439252336" type="line"/>
      <point x="1376.3317757009345" y="888.4579439252336" type="line"/>
      <point x="1376.3317757009345" y="457.5420560747664" type="line"/>
    </contour>
    <contour>
      <point x="454.7616822429907" y="27.482866043613697" type="line"/>
      <point x="454.7616822429907" y="1320.5171339563865" type="line"/>
      <point x="1016.070093457944" y="1320.5171339563865" type="line"/>
      <point x="1016.070093457944" y="27.482866043613697" type="line"/>
    </contour>
  </outline>
</glyph>
<glyph name="comma" format="2">
  <advance width="1037.2616822429907"/>
  <unicode hex="002C"/>
  <outline>
    <contour>
      <point x="-27.75373134328359" y="-196.73134328358208" type="line"/>
      <point x="107.02238805970148" y="-148.044776119403"/>
      <point x="248.4532710280374" y="-20.0"/>
      <point x="247.5" y="70.0" type="qcurve" smooth="yes"/>
      <point x="247.5" y="531.7196261682243" type="line"/>
      <point x="809.7616822429907" y="531.7196261682243" type="line"/>
      <point x="809.7616822429907" y="70.0" type="line" smooth="yes"/>
      <point x="809.7616822429907" y="-94.12051890082299"/>
      <point x="525.7622402008649" y="-349.7882549867485"/>
      <point x="266.1119402985075" y="-398.1940298507463" type="qcurve"/>
    </contour>
  </outline>
</glyph>
<glyph name="slash" format="2">
  <advance width="1007.5472636815921"/>
  <unicode hex="002F"/>
  <outline>
    <contour>
      <point x="-29.16666666666667" y="-125.0" type="line"/>
      <point x="426.83333333333337" y="1456.0" type="line"/>
      <point x="1036.7139303482588" y="1456.0" type="line"/>
      <point x="580.7139303482587" y="-125.0" type="line"/>
    </contour>
  </outline>
</glyph>
<glyph name="zero" format="2">
  <advance width="1832.3894080996884"/>
  <unicode hex="0030"/>
  <outline>
    <contour>
      <point x="147.5" y="646.8411214953271" type="qcurve" smooth="yes"/>
      <point x="147.5" y="809.1588785046729" type="line" smooth="yes"/>
      <point x="147.5" y="1133.0467289719627"/>
      <point x="549.7398753894081" y="1486.0"/>
      <point x="915.2414330218068" y="1486.0" type="qcurve" smooth="yes"/>
      <point x="1280.3629283489097" y="1486.0"/>
      <point x="1684.8894080996884" y="1133.0467289719627"/>
      <point x="1684.8894080996884" y="809.1588785046729" type="qcurve" smooth="yes"/>
      <point x="1684.8894080996884" y="646.8411214953271" type="line" smooth="yes"/>
      <point x="1684.8894080996884" y="322.95327102803736"/>
      <point x="1279.696261682243" y="-30.0"/>
      <point x="915.2414330218068" y="-30.0" type="qcurve" smooth="yes"/>
      <point x="550.4065420560747" y="-30.0"/>
      <point x="147.5" y="322.95327102803736"/>
    </contour>
    <contour>
      <point x="728.5280373831775" y="681.4029850746269" type="line" smooth="yes"/>
      <point x="728.5280373831775" y="558.4029850746269"/>
      <point x="819.1947040498442" y="488.7164179104478"/>
      <point x="916.1947040498442" y="488.7164179104478" type="qcurve" smooth="yes"/>
      <point x="1013.1947040498442" y="488.7164179104478"/>
      <point x="1103.8613707165107" y="558.4029850746269"/>
      <point x="1103.8613707165107" y="681.4029850746269" type="qcurve" smooth="yes"/>
      <point x="1103.8613707165107" y="773.7462686567164" type="line" smooth="yes"/>
      <point x="1103.8613707165107" y="890.9303482587063"/>
      <point x="1013.8613707165108" y="966.4328358208954"/>
      <point x="916.1947040498442" y="966.4328358208954" type="qcurve" smooth="yes"/>
      <point x="818.5280373831775" y="966.4328358208954"/>
      <point x="728.5280373831775" y="890.9303482587063"/>
      <point x="728.5280373831775" y="773.7462686567164" type="qcurve" smooth="yes"/>
    </contour>
  </outline>
</glyph>
<glyph name="two" format="2">
  <advance width="1832.3894080996884"/>
  <unicode hex="0032"/>
  <outline>
    <contour>
      <point x="220.61526479750776" y="0.0" type="line"/>
      <point x="220.61526479750776" y="409.3484446924257" type="line"/>
      <point x="762.2196261682243" y="794.1076858697169" type="line" smooth="yes"/>
      <point x="867.6455805086716" y="870.354349746594"/>
      <point x="981.7554517133956" y="981.8998465615846"/>
      <point x="981.7554517133956" y="1026.9394615706512" type="qcurve" smooth="yes"/>
      <point x="981.7554517133956" y="1054.2826521597622"/>
      <point x="960.1487655182034" y="997.0597014925373"/>
      <point x="911.2819314641745" y="997.0597014925373" type="qcurve" smooth="yes"/>
      <point x="844.7034686381178" y="997.0597014925373"/>
      <point x="825.2881619937694" y="968.8937090249688"/>
      <point x="825.2881619937694" y="895.9931650160413" type="qcurve" smooth="yes"/>
      <point x="825.2881619937694" y="869.3961500906681" type="line"/>
      <point x="201.54984423676012" y="869.3961500906681" type="line"/>
      <point x="201.54984423676012" y="895.9931650160413" type="line" smooth="yes"/>
      <point x="201.54984423676012" y="1205.9967917422234"/>
      <point x="494.86629934439947" y="1486.0"/>
      <point x="895.7429906542056" y="1486.0" type="qcurve" smooth="yes"/>
      <point x="1352.9088901287953" y="1486.0"/>
      <point x="1610.2601246105921" y="1283.0528665085785"/>
      <point x="1610.2601246105921" y="1043.0059980471474" type="qcurve" smooth="yes"/>
      <point x="1610.2601246105921" y="891.3847584507369"/>
      <point x="1444.694448319152" y="661.90603059469"/>
      <point x="1192.260124610592" y="484.276607616125" type="qcurve" smooth="yes"/>
      <point x="1023.1589947458966" y="496.7657971823128" type="line"/>
      <point x="1621.6619937694704" y="496.7657971823128" type="line"/>
      <point x="1621.6619937694704" y="0.0" type="line"/>
    </contour>
  </outline>
</glyph>
<glyph name="five" format="2">
  <advance width="1832.3894080996884"/>
  <unicode hex="0035"/>
  <outline>
    <contour>
      <point x="177.24454828660438" y="510.9651741293533" type="qcurve" smooth="yes"/>
      <point x="177.24454828660438" y="544.2985074626865" type="line"/>
      <point x="800.702492211838" y="544.2985074626865" type="line"/>
      <point x="800.702492211838" y="510.9651741293533" type="line" smooth="yes"/>
      <point x="800.702492211838" y="488.1208443762496"/>
      <point x="830.1271446505789" y="435.11940298507466"/>
      <point x="926.7083972660064" y="435.11940298507466" type="qcurve" smooth="yes"/>
      <point x="986.7992049100292" y="435.11940298507466"/>
      <point x="1021.3940809968848" y="456.621379085879"/>
      <point x="1021.3940809968848" y="501.5820895522388" type="qcurve" smooth="yes"/>
      <point x="1021.3940809968848" y="541.3029246291906"/>
      <point x="999.6908680894594" y="562.4477611940299"/>
      <point x="946.8557446412797" y="562.4477611940299" type="qcurve" smooth="yes"/>
      <point x="895.4389501092668" y="562.4477611940299"/>
      <point x="828.0190868089459" y="495.02859534105175"/>
      <point x="812.9353931278188" y="466.27060956897753" type="qcurve"/>
      <point x="253.80218068535825" y="722.3236155670247" type="line"/>
      <point x="348.7398753894081" y="1456.0" type="line"/>
      <point x="1538.6619937694704" y="1456.0" type="line"/>
      <point x="1538.6619937694704" y="958.4626865671642" type="line"/>
      <point x="816.3399125865997" y="958.4626865671642" type="line"/>
      <point x="780.6161482308086" y="955.1194029850747" type="line"/>
      <point x="782.9387873715535" y="958.4386943785744"/>
      <point x="986.6426977263218" y="969.0149253731344"/>
      <point x="1015.5373831775701" y="969.0149253731344" type="qcurve" smooth="yes"/>
      <point x="1382.8831775700935" y="969.0149253731344"/>
      <point x="1647.9922118380061" y="701.6666666666666"/>
      <point x="1647.9922118380061" y="465.0" type="qcurve" smooth="yes"/>
      <point x="1647.9922118380061" y="228.33333333333334"/>
      <point x="1336.9984423676012" y="-30.0"/>
      <point x="942.0327102803737" y="-30.0" type="qcurve" smooth="yes"/>
      <point x="568.0570744408798" y="-30.0"/>
      <point x="177.24454828660438" y="242.2786069651741"/>
    </contour>
  </outline>
</glyph>
<glyph name="eight" format="2">
  <advance width="1832.3894080996884"/>
  <unicode hex="0038"/>
  <outline>
    <contour>
      <point x="138.16666666666669" y="386.0" type="qcurve" smooth="yes"/>
      <point x="138.16666666666669" y="526.0"/>
      <point x="367.9392523364486" y="700.4735202492212"/>
      <point x="551.5467289719626" y="744.8068535825545" type="qcurve"/>
      <point x="551.5467289719626" y="748.8068535825545" type="line"/>
      <point x="408.24454828660436" y="790.4735202492212"/>
      <point x="208.0576323987539" y="953.6666666666666"/>
      <point x="208.0576323987539" y="1087.0" type="qcurve" smooth="yes"/>
      <point x="208.0576323987539" y="1273.6666666666667"/>
      <point x="559.1012461059189" y="1486.0"/>
      <point x="915.5747663551401" y="1486.0" type="qcurve" smooth="yes"/>
      <point x="1272.0482866043612" y="1486.0"/>
      <point x="1624.3317757009345" y="1273.0934579439252"/>
      <point x="1624.3317757009345" y="1087.0" type="qcurve" smooth="yes"/>
      <point x="1624.3317757009345" y="953.6666666666666"/>
      <point x="1423.811526479751" y="787.8068535825545"/>
      <point x="1280.8894080996884" y="748.8068535825545" type="qcurve"/>
      <point x="1280.8894080996884" y="744.8068535825545" type="line"/>
      <point x="1464.4501557632398" y="700.1401869158879"/>
      <point x="1694.556074766355" y="526.3333333333334"/>
      <point x="1694.556074766355" y="386.0" type="qcurve" smooth="yes"/>
      <point x="1694.556074766355" y="177.66666666666666"/>
      <point x="1268.2227414330218" y="-30.0"/>
      <point x="915.9080996884735" y="-30.0" type="qcurve" smooth="yes"/>
      <point x="563.5934579439253" y="-30.0"/>
      <point x="138.16666666666669" y="178.0"/>
    </contour>
    <contour>
      <point x="789.4563862928348" y="478.0398009950249" type="qcurve" smooth="yes"/>
      <point x="789.4563862928348" y="429.4726368159204"/>
      <point x="812.3814804482262" y="422.35820895522386"/>
      <point x="915.9080996884735" y="422.35820895522386" type="qcurve" smooth="yes"/>
      <point x="1018.5839726600643" y="422.35820895522386"/>
      <point x="1041.3598130841121" y="429.4726368159204"/>
      <point x="1041.3598130841121" y="478.0398009950249" type="qcurve" smooth="yes"/>
      <point x="1041.3598130841121" y="526.273631840796"/>
      <point x="1018.5839726600643" y="533.2835820895523"/>
      <point x="915.9080996884735" y="533.2835820895523" type="qcurve" smooth="yes"/>
      <point x="812.3814804482262" y="533.2835820895523"/>
      <point x="789.4563862928348" y="526.273631840796"/>
    </contour>
    <contour>
      <point x="819.1230529595016" y="991.9253731343283" type="qcurve" smooth="yes"/>
      <point x="819.1230529595016" y="959.2885572139304"/>
      <point x="829.4511321895197" y="953.3134328358209"/>
      <point x="915.9080996884735" y="953.3134328358209" type="qcurve" smooth="yes"/>
      <point x="1001.5143209187707" y="953.3134328358209"/>
      <point x="1011.3598130841121" y="959.2885572139304"/>
      <point x="1011.3598130841121" y="991.9253731343283" type="qcurve" smooth="yes"/>
      <point x="1011.3598130841121" y="1030.5621890547263"/>
      <point x="1000.847654252104" y="1034.4925373134329"/>
      <point x="915.9080996884735" y="1034.4925373134329" type="qcurve" smooth="yes"/>
      <point x="830.1177988561864" y="1034.4925373134329"/>
      <point x="819.1230529595016" y="1030.5621890547263"/>
    </contour>
  </outline>
</glyph>
<glyph name="colon" format="2">
  <advance width="996.2523364485982"/>
  <unicode hex="003A"/>
  <outline>
    <contour>
      <point x="213.5" y="271.4485981308411" type="qcurve" smooth="yes"/>
      <point x="213.5" y="390.9906542056075"/>
      <point x="370.92056074766356" y="562.9906542056075"/>
      <point x="518.6214953271028" y="562.9906542056075" type="qcurve" smooth="yes"/>
      <point x="666.3224299065421" y="562.9906542056075"/>
      <point x="823.7429906542056" y="390.9906542056075"/>
      <point x="823.7429906542056" y="271.4485981308411" type="qcurve" smooth="yes"/>
      <point x="823.7429906542056" y="150.0"/>
      <point x="666.3224299065421" y="-22.0"/>
      <point x="518.6214953271028" y="-22.0" type="qcurve" smooth="yes"/>
      <point x="370.92056074766356" y="-22.0"/>
      <point x="213.5" y="150.0"/>
    </contour>
    <contour>
      <point x="213.5" y="845.0934579439253" type="qcurve" smooth="yes"/>
      <point x="213.5" y="964.6355140186915"/>
      <point x="370.92056074766356" y="1136.6355140186915"/>
      <point x="518.6214953271028" y="1136.6355140186915" type="qcurve" smooth="yes"/>
      <point x="666.3224299065421" y="1136.6355140186915"/>
      <point x="823.7429906542056" y="964.6355140186915"/>
      <point x="823.7429906542056" y="845.0934579439253" type="qcurve" smooth="yes"/>
      <point x="823.7429906542056" y="723.6448598130842"/>
      <point x="666.3224299065421" y="551.6448598130842"/>
      <point x="518.6214953271028" y="551.6448598130842" type="qcurve" smooth="yes"/>
      <point x="370.92056074766356" y="551.6448598130842"/>
      <point x="213.5" y="723.6448598130842"/>
    </contour>
  </outline>
</glyph>
<glyph name="semicolon" format="2">
  <advance width="1028.6635514018692"/>
  <unicode hex="003B"/>
  <outline>
    <contour>
      <point x="186.16666666666666" y="-217.0" type="line"/>
      <point x="220.16666666666666" y="-153.33333333333334"/>
      <point x="258.4532710280374" y="-19.666666666666668"/>
      <point x="257.5" y="70.0" type="qcurve" smooth="yes"/>
      <point x="257.5" y="486.9158878504673" type="line"/>
      <point x="819.7616822429907" y="486.9158878504673" type="line"/>
      <point x="819.7616822429907" y="70.0" type="line" smooth="yes"/>
      <point x="819.7616822429907" y="-68.5981308411215"/>
      <point x="552.3940809968848" y="-254.50467289719626"/>
      <point x="295.5" y="-291.0" type="qcurve"/>
    </contour>
    <contour>
      <point x="213.5" y="845.0934579439253" type="qcurve" smooth="yes"/>
      <point x="213.5" y="964.6355140186915"/>
      <point x="370.92056074766356" y="1136.6355140186915"/>
      <point x="518.6214953271028" y="1136.6355140186915" type="qcurve" smooth="yes"/>
      <point x="666.3224299065421" y="1136.6355140186915"/>
      <point x="823.7429906542056" y="964.6355140186915"/>
      <point x="823.7429906542056" y="845.0934579439253" type="qcurve" smooth="yes"/>
      <point x="823.7429906542056" y="723.6448598130842"/>
      <point x="666.3224299065421" y="551.6448598130842"/>
      <point x="518.6214953271028" y="551.6448598130842" type="qcurve" smooth="yes"/>
      <point x="370.92056074766356" y="551.6448598130842"/>
      <point x="213.5" y="723.6448598130842"/>
    </contour>
  </outline>
</glyph>
<glyph name="less" format="2">
  <advance width="1428.8317757009345"/>
  <unicode hex="003C"/>
  <outline>
    <contour>
      <point x="1285.3317757009345" y="30.345794392523374" type="line"/>
      <point x="137.5" y="464.6355140186916" type="line"/>
      <point x="137.5" y="883.1775700934579" type="line"/>
      <point x="1285.3317757009345" y="1313.6542056074766" type="line"/>
      <point x="1285.3317757009345" y="831.6697819314642" type="line"/>
      <point x="706.2757009345794" y="677.0" type="line"/>
      <point x="1285.3317757009345" y="526.1433021806854" type="line"/>
    </contour>
  </outline>
</glyph>
<glyph name="question" format="2">
  <advance width="1648.884735202492"/>
  <unicode hex="003F"/>
  <outline>
    <contour>
      <point x="491.68691588785043" y="242.5171339563863" type="qcurve" smooth="yes"/>
      <point x="491.68691588785043" y="363.9657320872274"/>
      <point x="650.0607476635514" y="536.9190031152648"/>
      <point x="797.7616822429907" y="536.9190031152648" type="qcurve" smooth="yes"/>
      <point x="946.4158878504672" y="536.9190031152648"/>
      <point x="1103.8364485981308" y="363.9657320872274"/>
      <point x="1103.8364485981308" y="242.5171339563863" type="qcurve" smooth="yes"/>
      <point x="1103.8364485981308" y="122.02180685358256"/>
      <point x="946.4158878504672" y="-50.93146417445483"/>
      <point x="797.7616822429907" y="-50.93146417445483" type="qcurve" smooth="yes"/>
      <point x="650.0607476635514" y="-50.93146417445483"/>
      <point x="491.68691588785043" y="122.02180685358256"/>
    </contour>
    <contour>
      <point x="94.16666666666666" y="890.8208955223881" type="line"/>
      <point x="94.16666666666666" y="910.8208955223881" type="line" smooth="yes"/>
      <point x="94.16666666666666" y="1182.1641791044776"/>
      <point x="468.50711396289586" y="1485.5327102803737"/>
      <point x="795.4563862928348" y="1485.5327102803737" type="qcurve" smooth="yes"/>
      <point x="1081.769307667271" y="1485.5327102803737"/>
      <point x="1514.0514018691588" y="1272.6853117589624"/>
      <point x="1514.0514018691588" y="1057.1028037383178" type="qcurve" smooth="yes"/>
      <point x="1514.0514018691588" y="945.981308411215"/>
      <point x="1442.848909657321" y="806.1308411214953"/>
      <point x="1274.7959501557632" y="746.7102803738318" type="qcurve" smooth="yes"/>
      <point x="1109.5155763239875" y="691.0155763239876"/>
      <point x="1090.3348909657323" y="524.3401683172922"/>
      <point x="1090.3348909657323" y="481.50527735155987" type="qcurve" smooth="yes"/>
      <point x="1090.3348909657323" y="451.0192960431487" type="line"/>
      <point x="472.5031152647975" y="449.112753987074" type="line"/>
      <point x="472.5031152647975" y="487.22490351978416" type="line" smooth="yes"/>
      <point x="472.5031152647975" y="618.4242804668247"/>
      <point x="556.9143302180685" y="850.5295950155763"/>
      <point x="667.9454828660437" y="885.9532710280374" type="qcurve" smooth="yes"/>
      <point x="762.3661366066862" y="912.0034872367136"/>
      <point x="863.2673315664669" y="937.8038778072255"/>
      <point x="863.2673315664669" y="973.1166131957037" type="qcurve" smooth="yes"/>
      <point x="863.2673315664669" y="1016.188589761473"/>
      <point x="838.093202213233" y="1034.2789789370902"/>
      <point x="795.4563862928348" y="1034.2789789370902" type="qcurve" smooth="yes"/>
      <point x="731.9304644999303" y="1034.2789789370902"/>
      <point x="697.6526479750779" y="993.9104477611941"/>
      <point x="697.6526479750779" y="910.8208955223881" type="qcurve" smooth="yes"/>
      <point x="697.6526479750779" y="890.8208955223881" type="line"/>
    </contour>
  </outline>
</glyph>
<glyph name="at" format="2">
  <advance width="2955.3707165109035"/>
  <unicode hex="0040"/>
  <outline>
    <contour>
      <point x="854.481308411215" y="411.6666666666667" type="qcurve" smooth="yes"/>
      <point x="854.481308411215" y="698.2585669781931"/>
      <point x="1202.2476635514017" y="1052.0"/>
      <point x="1437.7367601246108" y="1052.0" type="qcurve" smooth="yes"/>
      <point x="1553.4408099688474" y="1052.0"/>
      <point x="1705.2258566978192" y="986.9065420560747"/>
      <point x="1743.3193146417445" y="946.0" type="qcurve"/>
      <point x="2116.8333333333335" y="946.0" type="line"/>
      <point x="2052.8582554517134" y="350.0" type="line" smooth="yes"/>
      <point x="2046.917445482866" y="268.803738317757"/>
      <point x="2061.733644859813" y="213.21495327102804"/>
      <point x="2086.409657320872" y="213.21495327102804" type="qcurve" smooth="yes"/>
      <point x="2140.6869158878503" y="213.21495327102804"/>
      <point x="2256.861370716511" y="438.2180685358256"/>
      <point x="2256.861370716511" y="644.2803738317757" type="qcurve" smooth="yes"/>
      <point x="2256.861370716511" y="882.8224299065421"/>
      <point x="1729.4158878504672" y="1115.496443018552"/>
      <point x="1480.8271028037384" y="1115.496443018552" type="qcurve" smooth="yes"/>
      <point x="1160.7429906542056" y="1115.496443018552"/>
      <point x="716.9018691588785" y="776.1495327102804"/>
      <point x="716.9018691588785" y="454.2803738317757" type="qcurve" smooth="yes"/>
      <point x="716.9018691588785" y="147.66355140186914"/>
      <point x="1131.7959501557632" y="-73.58990096247736"/>
      <point x="1349.904984423676" y="-73.58990096247736" type="qcurve" smooth="yes"/>
      <point x="1438.733644859813" y="-73.58990096247736"/>
      <point x="1643.1853582554518" y="-20.543171990514722"/>
      <point x="1687.5996884735202" y="15.456828009485278" type="qcurve"/>
      <point x="1688.266355140187" y="-356.95327102803736" type="line"/>
      <point x="1638.518691588785" y="-400.95327102803736"/>
      <point x="1434.0669781931463" y="-446.0"/>
      <point x="1344.5716510903426" y="-446.0" type="qcurve" smooth="yes"/>
      <point x="884.7741433021806" y="-446.0"/>
      <point x="151.5" y="18.333333333333336"/>
      <point x="151.5" y="459.3333333333333" type="qcurve" smooth="yes"/>
      <point x="151.5" y="900.3333333333334"/>
      <point x="901.1292834890966" y="1486.0"/>
      <point x="1479.8738317757009" y="1486.0" type="qcurve" smooth="yes"/>
      <point x="2091.0295950155764" y="1486.0"/>
      <point x="2803.8707165109035" y="1006.3333333333334"/>
      <point x="2803.8707165109035" y="650.0" type="qcurve" smooth="yes"/>
      <point x="2803.8707165109035" y="357.0"/>
      <point x="2356.2912772585673" y="0.0"/>
      <point x="2017.4813084112147" y="0.0" type="qcurve" smooth="yes"/>
      <point x="1893.6090342679129" y="0.0"/>
      <point x="1745.0295950155762" y="96.7601246105919"/>
      <point x="1725.322429906542" y="180.0" type="qcurve"/>
      <point x="1694.5218068535826" y="96.52024922118379"/>
      <point x="1517.1791277258565" y="0.0"/>
      <point x="1380.1635514018692" y="0.0" type="qcurve" smooth="yes"/>
      <point x="1168.5498442367602" y="0.0"/>
      <point x="854.481308411215" y="215.33333333333334"/>
    </contour>
    <contour>
      <point x="1342.9890965732088" y="494.3722508950574" type="qcurve" smooth="yes"/>
      <point x="1340.322429906542" y="423.1675733482123"/>
      <point x="1405.8084112149531" y="408.17729111452087"/>
      <point x="1460.2819314641745" y="408.17729111452087" type="qcurve" smooth="yes"/>
      <point x="1530.0031385130424" y="408.17729111452087"/>
      <point x="1620.8620681638536" y="465.251871483703"/>
      <point x="1621.064606872181" y="544.647742595434" type="qcurve" smooth="yes"/>
      <point x="1591.3877109778214" y="652.3317524526897" type="line"/>
      <point x="1578.3472125354535" y="651.582461524155"/>
      <point x="1502.7024922118378" y="647.8102478262891"/>
      <point x="1485.8084112149531" y="647.8102478262891" type="qcurve" smooth="yes"/>
      <point x="1409.8008322871622" y="647.8102478262891"/>
      <point x="1353.6557632398753" y="680.5191798019249"/>
    </contour>
  </outline>
</glyph>
<glyph name="A" format="2">
  <advance width="1951.728971962617"/>
  <unicode hex="0041"/>
  <anchor x="1207.578532570791" y="0.0" name="bottom"/>
  <anchor x="1842.0489375552147" y="0.0" name="ogonek"/>
  <anchor x="1237.12993443995" y="1456.0" name="top"/>
  <anchor x="589.1237039103548" y="1074.0" name="tonos"/>
  <outline>
    <contour>
      <point x="37.5" y="0.0" type="line"/>
      <point x="616.8956386292834" y="1460.2803738317757" type="line"/>
      <point x="1323.6806853582555" y="1460.2803738317757" type="line"/>
      <point x="1914.228971962617" y="0.0" type="line"/>
      <point x="1248.0794392523364" y="0.0" type="line"/>
      <point x="993.6385595387549" y="802.060119960943" type="line" smooth="yes"/>
      <point x="982.7787464546427" y="834.7735155995722"/>
      <point x="961.8659738689729" y="898.0133909889803"/>
      <point x="959.1058492583811" y="928.1535779048681" type="qcurve"/>
      <point x="951.9656623424933" y="928.1535779048681" type="line"/>
      <point x="950.1588087599387" y="898.0133909889803"/>
      <point x="927.3394941181941" y="834.6709908401915"/>
      <point x="916.479681034082" y="802.060119960943" type="qcurve" smooth="yes"/>
      <point x="668.8424466452783" y="0.0" type="line"/>
    </contour>
    <contour>
      <point x="393.83621611568327" y="190.28358208955223" type="line"/>
      <point x="526.3486539266286" y="583.0895522388059" type="line"/>
      <point x="1362.5550518435857" y="583.0895522388059" type="line"/>
      <point x="1510.7137443623005" y="190.28358208955223" type="line"/>
    </contour>
  </outline>
</glyph>
<glyph name="B" format="2">
  <advance width="1973.2056074766356"/>
  <unicode hex="0042"/>
  <anchor x="973.5404984423675" y="0.0" name="bottom"/>
  <anchor x="973.5404984423675" y="1456.0" name="top"/>
  <outline>
    <contour>
      <point x="207.5" y="0.0" type="line"/>
      <point x="207.5" y="1456.0" type="line"/>
      <point x="1155.46261682243" y="1456.0" type="line" smooth="yes"/>
      <point x="1486.0794392523364" y="1456.0"/>
      <point x="1788.973520249221" y="1270.0"/>
      <point x="1788.973520249221" y="1090.9719626168223" type="qcurve" smooth="yes"/>
      <point x="1788.973520249221" y="944.2803738317757"/>
      <point x="1693.9797507788164" y="778.0747663551402"/>
      <point x="1622.5591900311526" y="761.3271028037383" type="qcurve"/>
      <point x="1622.5591900311526" y="757.3271028037383" type="line"/>
      <point x="1706.2133956386294" y="743.8193146417445"/>
      <point x="1835.7056074766356" y="569.5327102803739"/>
      <point x="1835.7056074766356" y="420.0" type="qcurve" smooth="yes"/>
      <point x="1835.7056074766356" y="220.0"/>
      <point x="1526.4252336448599" y="0.0"/>
      <point x="1200.714953271028" y="0.0" type="qcurve" smooth="yes"/>
    </contour>
    <contour>
      <point x="806.3598130841121" y="425.9850746268657" type="line"/>
      <point x="1023.4065420560748" y="425.9850746268657" type="line" smooth="yes"/>
      <point x="1129.6254475287117" y="425.9850746268657"/>
      <point x="1223.4065420560748" y="435.8706467661691"/>
      <point x="1223.4065420560748" y="491.46268656716416" type="qcurve" smooth="yes"/>
      <point x="1223.4065420560748" y="550.457711442786"/>
      <point x="1129.6254475287117" y="554.9402985074627"/>
      <point x="1023.4065420560748" y="554.9402985074627" type="qcurve" smooth="yes"/>
      <point x="515.6869158878504" y="554.9402985074627" type="line"/>
      <point x="515.6869158878504" y="923.6268656716418" type="line"/>
      <point x="1001.7398753894082" y="923.6268656716418" type="line" smooth="yes"/>
      <point x="1104.5557957874182" y="923.6268656716418"/>
      <point x="1195.739875389408" y="928.2039800995025"/>
      <point x="1195.739875389408" y="976.4179104477612" type="qcurve" smooth="yes"/>
      <point x="1195.739875389408" y="1022.9303482587064"/>
      <point x="1104.222462454085" y="1024.910447761194"/>
      <point x="1001.7398753894082" y="1024.0597014925374" type="qcurve" smooth="yes"/>
      <point x="806.3598130841121" y="1024.0597014925374" type="line"/>
    </contour>
  </outline>
</glyph>
<glyph name="F" format="2">
  <advance width="1709.6542056074768"/>
  <unicode hex="0046"/>
  <anchor x="1040.842679127726" y="0.0" name="bottom"/>
  <anchor x="1074.3847352024923" y="1457.0" name="top"/>
  <outline>
    <contour>
      <point x="207.5" y="0.0" type="line"/>
      <point x="207.5" y="1456.0" type="line"/>
      <point x="1614.1542056074768" y="1456.0" type="line"/>
      <point x="1614.1542056074768" y="960.2537313432836" type="line"/>
      <point x="807.5" y="960.2537313432836" type="line"/>
      <point x="807.5" y="0.0" type="line"/>
    </contour>
    <contour>
      <point x="507.7803738317757" y="389.4776119402985" type="line"/>
      <point x="507.7803738317757" y="877.5671641791045" type="line"/>
      <point x="1538.8208722741435" y="877.5671641791045" type="line"/>
      <point x="1538.8208722741435" y="389.4776119402985" type="line"/>
    </contour>
  </outline>
</glyph>
<glyph name="G" format="2">
  <advance width="2067.0186915887853"/>
  <unicode hex="0047"/>
  <anchor x="1105.9423676012461" y="0.0" name="bottom"/>
  <anchor x="1067.811526479751" y="1456.0" name="top"/>
  <outline>
    <contour>
      <point x="152.5" y="682.9844236760124" type="qcurve" smooth="yes"/>
      <point x="152.5" y="775.8753894080997" type="line" smooth="yes"/>
      <point x="152.5" y="1122.5257358069466"/>
      <point x="659.0366624819826" y="1486.0"/>
      <point x="1061.8520249221183" y="1486.0" type="qcurve" smooth="yes"/>
      <point x="1443.6287952759567" y="1486.0"/>
      <point x="1848.164155856233" y="1261.8193146417445"/>
      <point x="1866.48753894081" y="986.9834937462222" type="qcurve" smooth="yes"/>
      <point x="1868.107476635514" y="932.1641791044776" type="line"/>
      <point x="1279.5467289719627" y="932.1641791044776" type="line"/>
      <point x="1276.6869158878505" y="998.3760171107081" type="line" smooth="yes"/>
      <point x="1267.1542056074766" y="1036.813130608639"/>
      <point x="1133.2780722555449" y="1002.9701492537313"/>
      <point x="1038.8800623052962" y="1002.9701492537313" type="qcurve" smooth="yes"/>
      <point x="930.6661319570374" y="1002.9701492537313"/>
      <point x="772.6121495327103" y="919.6293299855862"/>
      <point x="772.6121495327103" y="720.187055377319" type="qcurve" smooth="yes"/>
      <point x="772.6121495327103" y="754.8783651834287" type="line" smooth="yes"/>
      <point x="772.6121495327103" y="530.622820477054"/>
      <point x="959.9405077416656" y="428.35820895522386"/>
      <point x="1071.6121495327102" y="428.35820895522386" type="qcurve" smooth="yes"/>
      <point x="1120.0201097317151" y="428.35820895522386"/>
      <point x="1263.4181196819638" y="438.2935323383084"/>
      <point x="1304.6121495327102" y="450.34328358208955" type="qcurve"/>
      <point x="1304.6121495327102" y="501.08955223880594" type="line"/>
      <point x="1056.9454828660437" y="501.08955223880594" type="line"/>
      <point x="1056.9454828660437" y="903.2537313432836" type="line"/>
      <point x="1897.6588785046729" y="903.2537313432836" type="line"/>
      <point x="1900.5186915887853" y="160.0" type="line"/>
      <point x="1805.2352024922118" y="90.0"/>
      <point x="1401.3878504672898" y="-30.0"/>
      <point x="1107.4501557632398" y="-30.0" type="qcurve" smooth="yes"/>
      <point x="680.410168782257" y="-30.0"/>
      <point x="152.5" y="330.71413958246154"/>
    </contour>
  </outline>
</glyph>
<glyph name="I" format="2">
  <advance width="1025.9532710280373"/>
  <unicode hex="0049"/>
  <anchor x="502.96728971962614" y="0.0" name="bottom"/>
  <anchor x="728.6214953271028" y="0.0" name="ogonek"/>
  <anchor x="516.3130841121496" y="1456.0" name="top"/>
  <anchor x="-10.5" y="1074.0" name="tonos"/>
  <anchor x="502.96728971962614" y="750.0" name="yu_dash"/>
  <outline>
    <contour>
      <point x="212.5" y="0.0" type="line"/>
      <point x="212.5" y="1456.0" type="line"/>
      <point x="813.4532710280373" y="1456.0" type="line"/>
      <point x="813.4532710280373" y="0.0" type="line"/>
    </contour>
  </outline>
</glyph>
<glyph name="J" format="2">
  <advance width="1731.7725856697818"/>
  <unicode hex="004A"/>
  <anchor x="762.714953271028" y="0.0" name="bottom"/>
  <anchor x="1276.923676012461" y="1456.0" name="top"/>
  <outline>
    <contour>
      <point x="65.35981308411215" y="623.0497512437811" type="qcurve" smooth="yes"/>
      <point x="65.35981308411215" y="656.7164179104477" type="line"/>
      <point x="596.7242990654206" y="656.7164179104477" type="line"/>
      <point x="596.7242990654206" y="623.0497512437811" type="line" smooth="yes"/>
      <point x="596.7242990654206" y="516.1144278606965"/>
      <point x="690.3213139907938" y="452.17910447761193"/>
      <point x="780.3909657320872" y="452.17910447761193" type="qcurve" smooth="yes"/>
      <point x="871.1272841400474" y="452.17910447761193"/>
      <point x="964.057632398754" y="532.4129353233832"/>
      <point x="964.057632398754" y="671.7164179104477" type="qcurve" smooth="yes"/>
      <point x="964.057632398754" y="1456.0" type="line"/>
      <point x="1565.0109034267912" y="1456.0" type="line"/>
      <point x="1565.0109034267912" y="671.7164179104477" type="line" smooth="yes"/>
      <point x="1565.0109034267912" y="283.0424512949273"/>
      <point x="1157.0872971590645" y="-30.0"/>
      <point x="754.6526479750779" y="-30.0" type="qcurve" smooth="yes"/>
      <point x="410.36753150137173" y="-30.0"/>
      <point x="65.35981308411215" y="277.9838192216488"/>
    </contour>
  </outline>
</glyph>
<glyph name="L" format="2">
  <advance width="1614.613707165109"/>
  <unicode hex="004C"/>
  <anchor x="939.088785046729" y="0.0" name="bottom"/>
  <anchor x="1231.683800623053" y="728.0" name="center"/>
  <anchor x="637.8302180685358" y="1456.0" name="top"/>
  <anchor x="1214.677570093458" y="1052.0" name="topright"/>
  <outline>
    <contour>
      <point x="207.5" y="0.0" type="line"/>
      <point x="207.5" y="1456.0" type="line"/>
      <point x="827.518691588785" y="1456.0" type="line"/>
      <point x="827.518691588785" y="500.0" type="line"/>
      <point x="1519.3006230529593" y="500.0" type="line"/>
      <point x="1519.3006230529593" y="0.0" type="line"/>
    </contour>
  </outline>
</glyph>
<glyph name="N" format="2">
  <advance width="2028.3457943925232"/>
  <unicode hex="004E"/>
  <anchor x="1335.5096712698191" y="0.0" name="bottom"/>
  <anchor x="1335.5096712698191" y="1456.0" name="top"/>
  <anchor x="1898.3289859115637" y="0.0" name="engtail"/>
  <outline>
    <contour>
      <point x="207.5" y="0.0" type="line"/>
      <point x="207.5" y="1456.0" type="line"/>
      <point x="860.303738317757" y="1456.0" type="line"/>
      <point x="1300.2975077881622" y="861.1588785046729" type="line" smooth="yes"/>
      <point x="1319.683800623053" y="835.8317757009346"/>
      <point x="1345.2570093457944" y="783.5514018691589"/>
      <point x="1351.683800623053" y="747.1121495327103" type="qcurve"/>
      <point x="1359.3504672897197" y="747.1121495327103" type="line"/>
      <point x="1357.3971962616822" y="783.785046728972"/>
      <point x="1356.3971962616822" y="830.1869158878505"/>
      <point x="1356.3971962616822" y="867.8130841121495" type="qcurve" smooth="yes"/>
      <point x="1356.3971962616822" y="1456.0" type="line"/>
      <point x="1820.8457943925232" y="1456.0" type="line"/>
      <point x="1820.8457943925232" y="0.0" type="line"/>
      <point x="1142.303738317757" y="0.0" type="line"/>
      <point x="715.0358255451713" y="582.4485981308411" type="line" smooth="yes"/>
      <point x="696.6028037383178" y="606.8224299065421"/>
      <point x="680.8956386292834" y="667.6822429906542"/>
      <point x="676.9485981308411" y="703.1682242990654" type="qcurve"/>
      <point x="668.9953271028037" y="703.1682242990654" type="line"/>
      <point x="670.9485981308411" y="666.4953271028037"/>
      <point x="672.9018691588785" y="603.8878504672897"/>
      <point x="672.9018691588785" y="567.214953271028" type="qcurve" smooth="yes"/>
      <point x="672.9018691588785" y="0.0" type="line"/>
    </contour>
  </outline>
</glyph>
<glyph name="Q" format="2">
  <advance width="2124.1838006230532"/>
  <unicode hex="0051"/>
  <anchor x="1057.3255451713396" y="0.0" name="bottom"/>
  <anchor x="1057.3255451713396" y="1456.0" name="top"/>
  <outline>
    <contour>
      <point x="152.5" y="719.1775700934579" type="qcurve" smooth="yes"/>
      <point x="152.5" y="739.6822429906542" type="line" smooth="yes"/>
      <point x="152.5" y="1105.221183800623"/>
      <point x="601.9672897196261" y="1486.0"/>
      <point x="1057.3255451713396" y="1486.0" type="qcurve" smooth="yes"/>
      <point x="1512.683800623053" y="1486.0"/>
      <point x="1962.1510903426793" y="1105.221183800623"/>
      <point x="1962.1510903426793" y="739.6822429906542" type="qcurve" smooth="yes"/>
      <point x="1962.1510903426793" y="719.1775700934579" type="line" smooth="yes"/>
      <point x="1962.1510903426793" y="349.35202492211835"/>
      <point x="1502.8177570093458" y="-30.0"/>
      <point x="1057.3255451713396" y="-30.0" type="qcurve" smooth="yes"/>
      <point x="611.8333333333334" y="-30.0"/>
      <point x="152.5" y="349.35202492211835"/>
    </contour>
    <contour>
      <point x="771.3255451713395" y="710.9253731343283" type="line" smooth="yes"/>
      <point x="771.3255451713395" y="535.7164179104477"/>
      <point x="926.3255451713395" y="455.5820895522388"/>
      <point x="1056.9922118380064" y="455.5820895522388" type="qcurve" smooth="yes"/>
      <point x="1187.6588785046729" y="455.5820895522388"/>
      <point x="1342.6588785046729" y="535.7164179104477"/>
      <point x="1342.6588785046729" y="710.9253731343283" type="qcurve" smooth="yes"/>
      <point x="1342.6588785046729" y="745.0746268656717" type="line" smooth="yes"/>
      <point x="1342.6588785046729" y="920.2835820895523"/>
      <point x="1187.9922118380061" y="1000.4179104477612"/>
      <point x="1056.9922118380064" y="1000.4179104477612" type="qcurve" smooth="yes"/>
      <point x="925.9922118380063" y="1000.4179104477612"/>
      <point x="771.3255451713395" y="920.2835820895523"/>
      <point x="771.3255451713395" y="745.0746268656717" type="qcurve" smooth="yes"/>
    </contour>
    <contour>
      <point x="1506.5" y="-272.14953271028037" type="line"/>
      <point x="990.7412702840934" y="150.64272097456643" type="line"/>
      <point x="1565.2972753057143" y="480.4457618449807" type="line"/>
      <point x="1879.5841121495328" y="105.70093457943926" type="line"/>
    </contour>
  </outline>
</glyph>
<glyph name="R" format="2">
  <advance width="1952.9782201143814"/>
  <unicode hex="0052"/>
  <anchor x="1045.820899242107" y="0.0" name="bottom"/>
  <anchor x="1045.820899242107" y="1456.0" name="top"/>
  <outline>
    <contour>
      <point x="212.8520518900823" y="0.0" type="line"/>
      <point x="212.8520518900823" y="1456.0" type="line"/>
      <point x="1227.0109303947552" y="1456.0" type="line" smooth="yes"/>
      <point x="1535.5875333612314" y="1456.0"/>
      <point x="1811.998469335565" y="1182.1906821035013"/>
      <point x="1811.998469335565" y="915.7014925373135" type="qcurve" smooth="yes"/>
      <point x="1811.998469335565" y="644.1078253591854"/>
      <point x="1517.1887794671502" y="303.8955223880597"/>
      <point x="1236.543640675129" y="304.74626865671644" type="qcurve" smooth="yes"/>
      <point x="511.71186497419444" y="304.74626865671644" type="line"/>
      <point x="511.71186497419444" y="771.2686567164179" type="line"/>
      <point x="997.2726126377459" y="771.2686567164179" type="line" smooth="yes"/>
      <point x="1114.6755977123728" y="771.2686567164179"/>
      <point x="1203.4190300832286" y="773.9353233830846"/>
      <point x="1203.4190300832286" y="875.7164179104477" type="qcurve" smooth="yes"/>
      <point x="1203.4190300832286" y="975.7960199004974"/>
      <point x="1114.6755977123728" y="979.2686567164179"/>
      <point x="997.2726126377459" y="978.4179104477612" type="qcurve" smooth="yes"/>
      <point x="810.9455098340075" y="978.4179104477612" type="line"/>
      <point x="810.9455098340075" y="0.0" type="line"/>
    </contour>
    <contour>
      <point x="1194.3754163760636" y="0.0" type="line"/>
      <point x="759.721210768587" y="672.0" type="line"/>
      <point x="1423.6557902078393" y="697.0218068535825" type="line"/>
      <point x="1875.4782201143814" y="0.0" type="line"/>
    </contour>
  </outline>
</glyph>
<glyph name="S" format="2">
  <advance width="1902.146417445483"/>
  <unicode hex="0053"/>
  <anchor x="951.0732087227415" y="0.0" name="bottom"/>
  <anchor x="951.0732087227415" y="1456.0" name="top"/>
  <outline>
    <contour>
      <point x="127.5" y="491.7206490909937" type="qcurve" smooth="yes"/>
      <point x="127.5" y="546.1194029850747" type="line"/>
      <point x="756.0981308411215" y="546.1194029850747" type="line"/>
      <point x="756.0981308411215" y="491.7206490909937" type="line" smooth="yes"/>
      <point x="756.0981308411215" y="439.1186590412424"/>
      <point x="797.6698516761984" y="448.7761194029851"/>
      <point x="992.561189380202" y="448.7761194029851" type="qcurve" smooth="yes"/>
      <point x="1131.9991863114333" y="448.7761194029851"/>
      <point x="1236.3190356628074" y="379.93611382340634"/>
      <point x="1236.3190356628074" y="368.7419444831915" type="qcurve" smooth="yes"/>
      <point x="1236.3190356628074" y="349.5131817547775"/>
      <point x="1150.3241502766543" y="358.56572278792953"/>
      <point x="902.8778769702888" y="394.84628260566325" type="qcurve" smooth="yes"/>
      <point x="567.3260101362347" y="454.8164783558841"/>
      <point x="144.40031152647975" y="679.5782768400986"/>
      <point x="144.40031152647975" y="977.1671083833172" type="qcurve" smooth="yes"/>
      <point x="144.40031152647975" y="1244.3789928860372"/>
      <point x="580.7647975077881" y="1486.0"/>
      <point x="950.0732087227415" y="1486.0" type="qcurve" smooth="yes"/>
      <point x="1329.5905751615753" y="1486.0"/>
      <point x="1735.0482866043612" y="1236.0840656530431"/>
      <point x="1741.4345794392525" y="982.1897986702004" type="qcurve" smooth="yes"/>
      <point x="1741.4345794392525" y="927.7910447761194" type="line"/>
      <point x="1139.5280373831774" y="927.7910447761194" type="line"/>
      <point x="1139.5280373831774" y="981.3390524015437" type="line" smooth="yes"/>
      <point x="1139.5280373831774" y="1024.8166643418422"/>
      <point x="1056.0732087227416" y="1008.0746268656717"/>
      <point x="933.2110243176639" y="1008.0746268656717" type="qcurve" smooth="yes"/>
      <point x="786.5170642116519" y="1008.0746268656717"/>
      <point x="650.4738689728927" y="1065.4567350165062"/>
      <point x="650.4738689728927" y="1055.1060584925838" type="qcurve" smooth="yes"/>
      <point x="650.4738689728927" y="1048.8811549727995"/>
      <point x="948.4760078114102" y="1066.5978053656947"/>
      <point x="1106.188473520249" y="1033.3916864276748" type="qcurve" smooth="yes"/>
      <point x="1443.5130190170644" y="971.8644627330636"/>
      <point x="1784.646417445483" y="746.0602594504114"/>
      <point x="1784.646417445483" y="500.3674152601478" type="qcurve" smooth="yes"/>
      <point x="1784.646417445483" y="254.67457106988422"/>
      <point x="1359.2601246105921" y="-30.0"/>
      <point x="980.4252336448599" y="-30.0" type="qcurve" smooth="yes"/>
      <point x="588.8291486492769" y="-30.0"/>
      <point x="144.65887850467288" y="222.36048728321012"/>
    </contour>
  </outline>
</glyph>
<glyph name="T" format="2">
  <advance width="1852.1713395638628"/>
  <unicode hex="0054"/>
  <anchor x="928.0856697819314" y="0.0" name="bottom"/>
  <anchor x="928.0856697819314" y="728.0" name="center"/>
  <anchor x="928.0856697819314" y="1456.0" name="top"/>
  <anchor x="1131.9922118380061" y="0.0" name="cy_descender"/>
  <outline>
    <contour>
      <point x="620.3660436137072" y="0.0" type="line"/>
      <point x="620.3660436137072" y="1378.0" type="line"/>
      <point x="1231.8052959501558" y="1378.0" type="line"/>
      <point x="1231.8052959501558" y="0.0" type="line"/>
    </contour>
    <contour>
      <point x="61.5" y="956.0" type="line"/>
      <point x="61.5" y="1456.0" type="line"/>
      <point x="1790.6713395638628" y="1456.0" type="line"/>
      <point x="1790.6713395638628" y="956.0" type="line"/>
    </contour>
  </outline>
</glyph>
<glyph name="V" format="2">
  <advance width="2038.489096573209"/>
  <unicode hex="0056"/>
  <anchor x="1074.4376947040498" y="0.0" name="bottom"/>
  <anchor x="1098.2694704049845" y="1456.0" name="top"/>
  <outline>
    <contour>
      <point x="37.5" y="1456.0" type="line"/>
      <point x="758.7461059190031" y="1456.0" type="line"/>
      <point x="1069.2694704049845" y="728.1433021806853" type="line" smooth="yes"/>
      <point x="1078.2227414330218" y="705.9158878504672"/>
      <point x="1088.2694704049845" y="658.588785046729"/>
      <point x="1090.456386292835" y="624.7289719626168" type="qcurve"/>
      <point x="1098.8364485981308" y="624.7289719626168" type="line"/>
      <point x="1101.0233644859813" y="658.588785046729"/>
      <point x="1115.5498442367602" y="704.9626168224299"/>
      <point x="1121.6433021806854" y="728.1433021806853" type="qcurve" smooth="yes"/>
      <point x="1425.0140186915887" y="1456.0" type="line"/>
      <point x="2000.989096573209" y="1456.0" type="line"/>
      <point x="1377.7367601246108" y="-10.0" type="line"/>
      <point x="666.1853582554518" y="-10.0" type="line"/>
    </contour>
  </outline>
</glyph>
<glyph name="W" format="2">
  <advance width="3005.903426791277"/>
  <unicode hex="0057"/>
  <anchor x="917.5357558004371" y="0.0" name="bottom"/>
  <anchor x="917.5357558004371" y="1456.0" name="top"/>
  <outline>
    <contour>
      <point x="497.671339563863" y="-10.0" type="line"/>
      <point x="87.5" y="1456.0" type="line"/>
      <point x="680.8271028037384" y="1456.0" type="line"/>
      <point x="908.0233644859813" y="722.1308411214953" type="line" smooth="yes"/>
      <point x="920.0295950155763" y="685.557632398754"/>
      <point x="923.1230529595016" y="647.1308411214953"/>
      <point x="925.5031152647974" y="612.2242990654206" type="qcurve"/>
      <point x="933.5965732087227" y="612.2242990654206" type="line"/>
      <point x="935.309968847352" y="647.1308411214953"/>
      <point x="938.0700934579439" y="689.7040498442367"/>
      <point x="950.7429906542056" y="722.1308411214953" type="qcurve" smooth="yes"/>
      <point x="1210.577881619938" y="1455.0467289719627" type="line"/>
      <point x="1932.690031152648" y="1455.0467289719627" type="line"/>
      <point x="2184.5591900311524" y="724.9906542056075" type="line" smooth="yes"/>
      <point x="2197.2320872274145" y="690.6573208722741"/>
      <point x="2199.9922118380064" y="647.1308411214953"/>
      <point x="2201.7056074766356" y="612.2242990654206" type="qcurve"/>
      <point x="2209.752336448598" y="612.2242990654206" type="line"/>
      <point x="2211.7990654205605" y="647.1308411214953"/>
      <point x="2212.6993769470405" y="690.3239875389409"/>
      <point x="2218.3660436137075" y="724.9906542056075" type="qcurve" smooth="yes"/>
      <point x="2449.0950155763244" y="1456.0" type="line"/>
      <point x="2918.403426791277" y="1456.0" type="line"/>
      <point x="2533.0171339563863" y="-10.0" type="line"/>
      <point x="1774.1012461059192" y="-10.0" type="line"/>
      <point x="1520.8520249221183" y="725.8691588785047" type="line" smooth="yes"/>
      <point x="1507.2258566978192" y="762.1090342679128"/>
      <point x="1504.8987538940808" y="812.2897196261682"/>
      <point x="1502.1853582554518" y="847.196261682243" type="qcurve"/>
      <point x="1494.1853582554518" y="847.196261682243" type="line"/>
      <point x="1491.4719626168226" y="812.2897196261682"/>
      <point x="1489.1448598130842" y="762.1090342679128"/>
      <point x="1475.518691588785" y="725.8691588785047" type="qcurve" smooth="yes"/>
      <point x="1222.2694704049845" y="-10.0" type="line"/>
    </contour>
  </outline>
</glyph>
<glyph name="X" format="2">
  <advance width="1978.3333333333333"/>
  <unicode hex="0058"/>
  <anchor x="982.0638629283488" y="0.0" name="bottom"/>
  <anchor x="982.0638629283488" y="1456.0" name="top"/>
  <anchor x="1437.4781931464174" y="0.0" name="cy_descender"/>
  <outline>
    <contour>
      <point x="62.5" y="0.0" type="line"/>
      <point x="629.2694704049844" y="833.6448598130842" type="line"/>
      <point x="842.5031152647974" y="833.6448598130842" type="line"/>
      <point x="1249.615264797508" y="1456.0" type="line"/>
      <point x="1899.1666666666667" y="1456.0" type="line"/>
      <point x="1367.1760124610594" y="655.7009345794393" type="line"/>
      <point x="1135.830218068536" y="655.7009345794393" type="line"/>
      <point x="711.0981308411215" y="0.0" type="line"/>
    </contour>
    <contour>
      <point x="73.44704049844236" y="1456.0" type="line"/>
      <point x="831.8582554517134" y="1456.0" type="line"/>
      <point x="1309.51246105919" y="806.0" type="line"/>
      <point x="1319.51246105919" y="806.0" type="line"/>
      <point x="1915.8333333333333" y="0.0" type="line"/>
      <point x="1155.5155763239875" y="0.0" type="line"/>
      <point x="662.1479750778816" y="670.0" type="line"/>
      <point x="652.1479750778816" y="670.0" type="line"/>
    </contour>
  </outline>
</glyph>
<glyph name="asciicircum" format="2">
  <advance width="997.6666666666667"/>
  <unicode hex="005E"/>
  <outline>
    <contour>
      <point x="-362.8731343283582" y="720.0" type="line"/>
      <point x="158.60945273631845" y="1456.0" type="line"/>
      <point x="839.0572139303483" y="1456.0" type="line"/>
      <point x="1360.539800995025" y="720.0" type="line"/>
      <point x="582.1915422885572" y="720.0" type="line"/>
      <point x="498.83333333333337" y="907.1641791044776" type="line"/>
      <point x="423.98258706467664" y="720.0" type="line"/>
    </contour>
  </outline>
</glyph>
<glyph name="underscore" format="2">
  <advance width="1047.4676616915424"/>
  <unicode hex="005F"/>
  <outline>
    <contour>
      <point x="37.5" y="-756.2985074626865" type="line"/>
      <point x="37.5" y="-244.0" type="line"/>
      <point x="1009.9676616915424" y="-244.0" type="line"/>
      <point x="1009.9676616915424" y="-756.2985074626865" type="line"/>
    </contour>
  </outline>
</glyph>
<glyph name="a" format="2">
  <advance width="1751.5856697819315"/>
  <unicode hex="0061"/>
  <anchor x="709.9797507788162" y="0.0" name="bottom"/>
  <anchor x="1577.0856697819315" y="0.0" name="ogonek"/>
  <anchor x="857.7367601246106" y="916.0" name="top"/>
  <outline>
    <contour>
      <point x="593.4345794392523" y="-20.0" type="qcurve" smooth="yes"/>
      <point x="340.7821183800623" y="-20.0"/>
      <point x="127.5" y="133.0"/>
      <point x="127.5" y="276.0" type="qcurve" smooth="yes"/>
      <point x="127.5" y="413.56"/>
      <point x="400.1545794392523" y="573.2"/>
      <point x="740.8582554517134" y="573.2" type="qcurve" smooth="yes"/>
      <point x="1103.3566978193146" y="573.2" type="line"/>
      <point x="1103.3566978193146" y="303.3791044776119" type="line"/>
      <point x="886.690031152648" y="303.3791044776119" type="line" smooth="yes"/>
      <point x="772.0633644859813" y="303.3791044776119"/>
      <point x="670.0233644859813" y="296.724776119403"/>
      <point x="670.0233644859813" y="287.7014925373134" type="qcurve" smooth="yes"/>
      <point x="670.0233644859813" y="276.46746268656716"/>
      <point x="744.7833644859813" y="265.82089552238807"/>
      <point x="816.690031152648" y="265.82089552238807" type="qcurve" smooth="yes"/>
      <point x="895.3966978193147" y="265.82089552238807"/>
      <point x="1013.3566978193147" y="296.176119402985"/>
      <point x="1013.3566978193147" y="320.7731343283582" type="qcurve"/>
      <point x="1013.3566978193147" y="521.4620821128005" type="line" smooth="yes"/>
      <point x="1015.1740484493421" y="604.0302227181849"/>
      <point x="942.4362998093644" y="615.0895522388059"/>
      <point x="858.2570093457944" y="615.0895522388059" type="qcurve" smooth="yes"/>
      <point x="790.2315236899615" y="615.0895522388059"/>
      <point x="710.309968847352" y="631.3492537313432"/>
      <point x="710.309968847352" y="610.5820895522388" type="qcurve" smooth="yes"/>
      <point x="710.309968847352" y="576.049379271865" type="line"/>
      <point x="193.13862928348908" y="576.049379271865" type="line"/>
      <point x="193.13862928348908" y="610.5820895522388" type="line" smooth="yes"/>
      <point x="193.13862928348908" y="786.8035820895523"/>
      <point x="509.9330032082578" y="946.0"/>
      <point x="857.2507788161994" y="946.0" type="qcurve" smooth="yes"/>
      <point x="1246.4039847491513" y="946.0"/>
      <point x="1572.0856697819315" y="743.4780769051936"/>
      <point x="1572.0856697819315" y="490.0872274143302" type="qcurve" smooth="yes"/>
      <point x="1572.0856697819315" y="240.0" type="line" smooth="yes"/>
      <point x="1572.0856697819315" y="175.0"/>
      <point x="1592.0856697819315" y="60.0"/>
      <point x="1610.0856697819315" y="16.0" type="qcurve"/>
      <point x="1610.0856697819315" y="0.0" type="line"/>
      <point x="1057.3566978193148" y="0.0" type="line"/>
      <point x="1044.690031152648" y="25.0"/>
      <point x="1027.3566978193148" y="85.66666666666667"/>
      <point x="1021.1168224299065" y="125.66666666666667" type="qcurve"/>
      <point x="974.3847352024922" y="61.333333333333336"/>
      <point x="760.8302180685358" y="-20.0"/>
    </contour>
  </outline>
</glyph>
<glyph name="b" format="2">
  <advance width="1902.1121495327102"/>
  <unicode hex="0062"/>
  <anchor x="1005.5373831775701" y="0.0" name="bottom"/>
  <anchor x="1005.5373831775701" y="1535.0467289719627" name="top"/>
  <outline>
    <contour>
      <point x="185.5" y="0.0" type="line"/>
      <point x="185.5" y="1536.0" type="line"/>
      <point x="752.8084112149533" y="1536.0" type="line"/>
      <point x="752.8084112149533" y="117.0" type="line"/>
      <point x="742.8084112149533" y="117.0" type="line"/>
      <point x="734.8084112149533" y="0.0" type="line"/>
    </contour>
    <contour>
      <point x="936.1417445482866" y="439.11940298507466" type="qcurve" smooth="yes"/>
      <point x="1026.168411214953" y="439.11940298507466"/>
      <point x="1136.8084112149531" y="438.6901492537313"/>
      <point x="1136.8084112149531" y="453.05970149253733" type="qcurve" smooth="yes"/>
      <point x="1136.8084112149531" y="460.3880597014926" type="line" smooth="yes"/>
      <point x="1136.8084112149531" y="477.3098507462687"/>
      <point x="1026.168411214953" y="476.88059701492534"/>
      <point x="935.4750778816199" y="476.88059701492534" type="qcurve" smooth="yes"/>
      <point x="833.5284112149533" y="476.88059701492534"/>
      <point x="709.8084112149533" y="482.1528358208956"/>
      <point x="709.8084112149533" y="463.1343283582089" type="qcurve" smooth="yes"/>
      <point x="709.8084112149533" y="456.4029850746268" type="line" smooth="yes"/>
      <point x="709.8084112149533" y="443.8316417910447"/>
      <point x="835.1284112149533" y="439.11940298507466"/>
    </contour>
    <contour>
      <point x="1140.2912772585669" y="-20.0" type="qcurve" smooth="yes"/>
      <point x="882.1246728971963" y="-20.0"/>
      <point x="582.6993769470404" y="233.04"/>
      <point x="582.6993769470404" y="452.0" type="qcurve" smooth="yes"/>
      <point x="582.6993769470404" y="486.0" type="line" smooth="yes"/>
      <point x="582.6993769470404" y="676.3032835820895"/>
      <point x="873.3923606267726" y="936.0"/>
      <point x="1138.6246105919004" y="936.0" type="qcurve" smooth="yes"/>
      <point x="1406.6176323987538" y="936.0"/>
      <point x="1722.4158878504672" y="708.5671028037383"/>
      <point x="1722.4158878504672" y="494.94080996884736" type="qcurve" smooth="yes"/>
      <point x="1722.4158878504672" y="416.2928348909657" type="line" smooth="yes"/>
      <point x="1722.4158878504672" y="204.2397507788162"/>
      <point x="1406.6176323987538" y="-20.0"/>
    </contour>
  </outline>
</glyph>
<glyph name="c" format="2">
  <advance width="1725.657320872274"/>
  <unicode hex="0063"/>
  <anchor x="909.4875389408099" y="0.0" name="bottom"/>
  <anchor x="909.4875389408099" y="916.0" name="top"/>
  <outline>
    <contour>
      <point x="122.5" y="422.0" type="qcurve" smooth="yes"/>
      <point x="122.5" y="494.0" type="line" smooth="yes"/>
      <point x="122.5" y="724.1866666666666"/>
      <point x="542.052647975078" y="946.0"/>
      <point x="915.8271028037384" y="946.0" type="qcurve" smooth="yes"/>
      <point x="1244.6127781652483" y="946.0"/>
      <point x="1619.157320872274" y="738.318606965174"/>
      <point x="1619.157320872274" y="495.7572139303483" type="qcurve" smooth="yes"/>
      <point x="1619.157320872274" y="447.8911703166411" type="line"/>
      <point x="1078.8208722741433" y="447.8911703166411" type="line"/>
      <point x="1078.8208722741433" y="495.7572139303483" type="line" smooth="yes"/>
      <point x="1078.8208722741433" y="515.9297512437811"/>
      <point x="993.7364941646905" y="479.22388059701484"/>
      <point x="909.1542056074766" y="479.22388059701484" type="qcurve" smooth="yes"/>
      <point x="813.9942056074766" y="479.22388059701484"/>
      <point x="707.1542056074766" y="545.7842786069651"/>
      <point x="707.1542056074766" y="461.2388059701492" type="qcurve" smooth="yes"/>
      <point x="707.1542056074766" y="454.7611940298508" type="line" smooth="yes"/>
      <point x="707.1542056074766" y="366.8823880597015"/>
      <point x="814.32753894081" y="435.92537313432837"/>
      <point x="909.1542056074766" y="435.92537313432837" type="qcurve" smooth="yes"/>
      <point x="993.4031608313571" y="435.92537313432837"/>
      <point x="1078.8208722741433" y="387.7864806807086"/>
      <point x="1078.8208722741433" y="408.91228902217887" type="qcurve" smooth="yes"/>
      <point x="1078.8208722741433" y="467.2580834147022" type="line"/>
      <point x="1619.157320872274" y="467.2580834147022" type="line"/>
      <point x="1619.157320872274" y="419.39203980099506" type="line" smooth="yes"/>
      <point x="1619.157320872274" y="173.49731343283582"/>
      <point x="1245.279444831915" y="-30.0"/>
      <point x="915.8271028037384" y="-30.0" type="qcurve" smooth="yes"/>
      <point x="541.052647975078" y="-30.0"/>
      <point x="122.5" y="205.14666666666665"/>
    </contour>
  </outline>
</glyph>
<glyph name="f" format="2">
  <advance width="957.7881619937694"/>
  <unicode hex="0066"/>
  <anchor x="498.48753894080994" y="0.0" name="bottom"/>
  <anchor x="593.8146417445483" y="1536.0" name="top"/>
  <outline>
    <contour>
      <point x="189.83333333333334" y="0.0" type="line"/>
      <point x="189.83333333333334" y="1109.4205607476636" type="line" smooth="yes"/>
      <point x="189.83333333333334" y="1337.7570093457944"/>
      <point x="455.6526479750779" y="1556.0"/>
      <point x="746.0295950155763" y="1556.0" type="qcurve" smooth="yes"/>
      <point x="834.9922118380063" y="1556.0"/>
      <point x="949.095015576324" y="1544.1869158878505"/>
      <point x="974.9548286604362" y="1538.0934579439252" type="qcurve"/>
      <point x="966.2881619937694" y="1064.8098758543729" type="line"/>
      <point x="950.2881619937694" y="1068.8098758543729"/>
      <point x="914.2881619937694" y="1076.7164179104477"/>
      <point x="893.6214953271028" y="1076.7164179104477" type="qcurve" smooth="yes"/>
      <point x="828.6214953271028" y="1076.7164179104477"/>
      <point x="760.9548286604362" y="998.4179104477612"/>
      <point x="760.9548286604362" y="896.7164179104477" type="qcurve" smooth="yes"/>
      <point x="760.9548286604362" y="612.6865671641791" type="line"/>
      <point x="760.9548286604362" y="834.0" type="line"/>
      <point x="760.9548286604362" y="0.0" type="line"/>
    </contour>
    <contour>
      <point x="62.5" y="433.70149253731347" type="line"/>
      <point x="62.5" y="916.0" type="line"/>
      <point x="258.5" y="916.0" type="line"/>
      <point x="685.8084112149533" y="916.0" type="line"/>
      <point x="926.2881619937694" y="916.0" type="line"/>
      <point x="926.2881619937694" y="433.70149253731347" type="line"/>
    </contour>
  </outline>
</glyph>
<glyph name="g" format="2">
  <advance width="1844.9158878504672"/>
  <unicode hex="0067"/>
  <anchor x="827.7803738317757" y="-416.0" name="bottom"/>
  <anchor x="904.9953271028037" y="916.0" name="top"/>
  <outline>
    <contour>
      <point x="746.7772585669783" y="-436.0" type="qcurve" smooth="yes"/>
      <point x="567.708722741433" y="-436.0"/>
      <point x="272.16355140186914" y="-350.3333333333333"/>
      <point x="178.2663551401869" y="-284.0" type="qcurve"/>
      <point x="314.2999256056168" y="119.73134328358208" type="line"/>
      <point x="391.38366578323337" y="55.32835820895525"/>
      <point x="590.8365880875994" y="2.4925373134328197"/>
      <point x="698.6401869158879" y="2.4925373134328197" type="qcurve" smooth="yes"/>
      <point x="902.7070023713209" y="2.4925373134328197"/>
      <point x="1092.107476635514" y="4.431952387594748"/>
      <point x="1092.107476635514" y="158.74571069884223" type="qcurve" smooth="yes"/>
      <point x="1092.107476635514" y="779.0" type="line"/>
      <point x="1099.4408099688474" y="779.0" type="line"/>
      <point x="1105.4408099688474" y="916.0" type="line"/>
      <point x="1659.4158878504672" y="916.0" type="line"/>
      <point x="1659.4158878504672" y="105.20560747663552" type="line" smooth="yes"/>
      <point x="1659.4158878504672" y="-214.08722741433021"/>
      <point x="1149.7024922118378" y="-436.0"/>
    </contour>
    <contour>
      <point x="908.7741433021806" y="439.11940298507466" type="qcurve" smooth="yes"/>
      <point x="1005.4670786255639" y="439.11940298507466"/>
      <point x="1135.107476635514" y="438.64716417910444"/>
      <point x="1135.107476635514" y="459.7164179104477" type="qcurve" smooth="yes"/>
      <point x="1135.107476635514" y="466.4477611940298" type="line" smooth="yes"/>
      <point x="1135.107476635514" y="463.3683582089552"/>
      <point x="1015.7078746454642" y="476.88059701492534"/>
      <point x="909.4408099688474" y="476.88059701492534" type="qcurve" smooth="yes"/>
      <point x="811.947476635514" y="476.88059701492534"/>
      <point x="708.107476635514" y="470.50985074626874"/>
      <point x="708.107476635514" y="460.3880597014926" type="qcurve" smooth="yes"/>
      <point x="708.107476635514" y="453.05970149253733" type="line" smooth="yes"/>
      <point x="708.107476635514" y="445.4901492537313"/>
      <point x="811.947476635514" y="439.11940298507466"/>
    </contour>
    <contour>
      <point x="754.1174268842701" y="-20.0" type="qcurve" smooth="yes"/>
      <point x="459.60901008973826" y="-20.0"/>
      <point x="122.5" y="207.2266666666667"/>
      <point x="122.5" y="408.6666666666667" type="qcurve" smooth="yes"/>
      <point x="122.5" y="507.33333333333337" type="line" smooth="yes"/>
      <point x="122.5" y="713.1066666666666"/>
      <point x="462.2756767564049" y="936.0"/>
      <point x="754.1174268842701" y="936.0" type="qcurve" smooth="yes"/>
      <point x="1037.7058436788025" y="936.0"/>
      <point x="1356.4267215325242" y="668.3866666666667"/>
      <point x="1356.4267215325242" y="470.66666666666663" type="qcurve" smooth="yes"/>
      <point x="1356.4267215325242" y="442.0" type="line" smooth="yes"/>
      <point x="1356.4267215325242" y="234.17333333333332"/>
      <point x="1033.0992393174317" y="-20.0"/>
    </contour>
  </outline>
</glyph>
<glyph name="l" format="2">
  <advance width="954.3084112149533"/>
  <unicode hex="006C"/>
  <anchor x="480.96728971962614" y="0.0" name="bottom"/>
  <anchor x="480.96728971962614" y="791.0" name="center"/>
  <anchor x="480.96728971962614" y="1536.0" name="top"/>
  <anchor x="846.0545171339563" y="1052.0" name="topright"/>
  <anchor x="476.20093457943926" y="471.96" name="yu_dash"/>
  <outline>
    <contour>
      <point x="193.5" y="0.0" type="line"/>
      <point x="193.5" y="1536.0" type="line"/>
      <point x="760.8084112149533" y="1536.0" type="line"/>
      <point x="760.8084112149533" y="0.0" type="line"/>
    </contour>
  </outline>
</glyph>
<glyph name="n" format="2">
  <advance width="1826"/>
  <unicode hex="006E"/>
  <anchor x="916.1417445482866" y="0.0" name="bottom"/>
  <anchor x="918.0482866043614" y="916.0" name="top"/>
  <anchor x="1366.46261682243" y="0.0" name="engtail"/>
  <outline>
    <contour>
      <point x="186" y="0" type="line"/>
      <point x="186" y="916" type="line"/>
      <point x="735" y="916" type="line"/>
      <point x="753" y="679" type="line"/>
      <point x="753" y="0" type="line"/>
    </contour>
    <contour>
      <point x="489" y="22" type="qcurve"/>
      <point x="489" y="330" type="line"/>
      <point x="685" y="751"/>
      <point x="979" y="936"/>
      <point x="1147" y="936" type="qcurve" smooth="yes"/>
      <point x="1368" y="936"/>
      <point x="1651" y="774"/>
      <point x="1651" y="546" type="qcurve" smooth="yes"/>
      <point x="1651" y="0" type="line"/>
      <point x="1083" y="0" type="line"/>
      <point x="1083" y="266" type="line" smooth="yes"/>
      <point x="1083" y="357"/>
      <point x="1006" y="435"/>
      <point x="933" y="435" type="qcurve" smooth="yes"/>
      <point x="867" y="435"/>
      <point x="706" y="281"/>
    </contour>
  </outline>
</glyph>
<glyph name="o" format="2">
  <advance width="1833.5482866043612"/>
  <unicode hex="006F"/>
  <anchor x="914.8676012461059" y="0.0" name="bottom"/>
  <anchor x="915.8208722741432" y="458.0" name="center"/>
  <anchor x="1194.2725856697818" y="0.0" name="ogonek"/>
  <anchor x="915.8208722741432" y="916.0" name="top"/>
  <anchor x="1189.4595015576322" y="916.0" name="topright"/>
  <anchor x="437.4723364485982" y="470.03999999999996" name="yu_dash"/>
  <outline>
    <contour>
      <point x="122.5" y="425.3395638629284" type="qcurve" smooth="yes"/>
      <point x="122.5" y="487.8006230529595" type="line" smooth="yes"/>
      <point x="122.5" y="709.4203115264797"/>
      <point x="547.6059190031153" y="946.0"/>
      <point x="917.727414330218" y="946.0" type="qcurve" smooth="yes"/>
      <point x="1285.9423676012461" y="946.0"/>
      <point x="1711.0482866043612" y="709.4203115264797"/>
      <point x="1711.0482866043612" y="487.8006230529595" type="qcurve" smooth="yes"/>
      <point x="1711.0482866043612" y="425.3395638629284" type="line" smooth="yes"/>
      <point x="1711.0482866043612" y="205.62641744548284"/>
      <point x="1285.6090342679126" y="-30.0"/>
      <point x="917.727414330218" y="-30.0" type="qcurve" smooth="yes"/>
      <point x="547.9392523364486" y="-30.0"/>
      <point x="122.5" y="205.62641744548284"/>
    </contour>
    <contour>
      <point x="707.7741433021806" y="461.2388059701492" type="qcurve" smooth="yes"/>
      <point x="707.7741433021806" y="453.91044776119406" type="line" smooth="yes"/>
      <point x="707.7741433021806" y="369.36497512437813"/>
      <point x="816.8808099688474" y="435.92537313432837"/>
      <point x="916.7741433021806" y="435.92537313432837" type="qcurve" smooth="yes"/>
      <point x="1016.667476635514" y="435.92537313432837"/>
      <point x="1125.7741433021808" y="369.36497512437813"/>
      <point x="1125.7741433021808" y="453.91044776119406" type="qcurve" smooth="yes"/>
      <point x="1125.7741433021808" y="461.2388059701492" type="line" smooth="yes"/>
      <point x="1125.7741433021808" y="542.4509452736319"/>
      <point x="1016.667476635514" y="479.22388059701484"/>
      <point x="916.7741433021806" y="479.22388059701484" type="qcurve" smooth="yes"/>
      <point x="816.8808099688474" y="479.22388059701484"/>
      <point x="707.7741433021806" y="542.4509452736319"/>
    </contour>
  </outline>
</glyph>
<glyph name="q" format="2">
  <advance width="1844.9158878504672"/>
  <unicode hex="0071"/>
  <anchor x="705.7616822429907" y="0.0" name="bottom"/>
  <anchor x="705.7616822429907" y="916.0" name="top"/>
  <outline>
    <contour>
      <point x="1092.107476635514" y="-416.0" type="line"/>
      <point x="1092.107476635514" y="799.0" type="line"/>
      <point x="1102.107476635514" y="799.0" type="line"/>
      <point x="1110.107476635514" y="916.0" type="line"/>
      <point x="1659.4158878504672" y="916.0" type="line"/>
      <point x="1659.4158878504672" y="-416.0" type="line"/>
    </contour>
    <contour>
      <point x="907.8208722741432" y="439.11940298507466" type="qcurve" smooth="yes"/>
      <point x="1004.5138075975264" y="439.11940298507466"/>
      <point x="1134.1542056074766" y="389.9804975124378"/>
      <point x="1134.1542056074766" y="459.7164179104477" type="qcurve" smooth="yes"/>
      <point x="1134.1542056074766" y="466.4477611940298" type="line" smooth="yes"/>
      <point x="1134.1542056074766" y="503.3683582089552"/>
      <point x="1014.7546036174267" y="476.88059701492534"/>
      <point x="908.4875389408099" y="476.88059701492534" type="qcurve" smooth="yes"/>
      <point x="811.6608722741432" y="476.88059701492534"/>
      <point x="707.1542056074766" y="523.843184079602"/>
      <point x="707.1542056074766" y="460.3880597014926" type="qcurve" smooth="yes"/>
      <point x="707.1542056074766" y="453.05970149253733" type="line" smooth="yes"/>
      <point x="707.1542056074766" y="396.82348258706463"/>
      <point x="810.9942056074766" y="439.11940298507466"/>
    </contour>
    <contour>
      <point x="702.9579439252336" y="-20.0" type="qcurve" smooth="yes"/>
      <point x="431.4982554517134" y="-20.0"/>
      <point x="122.5" y="190.56"/>
      <point x="122.5" y="375.33333333333337" type="qcurve" smooth="yes"/>
      <point x="122.5" y="540.6666666666666" type="line" smooth="yes"/>
      <point x="122.5" y="725.44"/>
      <point x="431.4982554517134" y="936.0"/>
      <point x="702.6246105919003" y="936.0" type="qcurve" smooth="yes"/>
      <point x="965.117570093458" y="936.0"/>
      <point x="1266.929906542056" y="668.3866666666667"/>
      <point x="1266.929906542056" y="470.66666666666663" type="qcurve" smooth="yes"/>
      <point x="1266.929906542056" y="442.0" type="line" smooth="yes"/>
      <point x="1266.929906542056" y="234.17333333333332"/>
      <point x="963.177632398754" y="-20.0"/>
    </contour>
  </outline>
</glyph>
<glyph name="r" format="2">
  <advance width="1071"/>
  <unicode hex="0072"/>
  <anchor x="604.923676012461" y="0.0" name="bottom"/>
  <anchor x="582.1292834890966" y="916.0" name="top"/>
  <outline>
    <contour>
      <point x="186" y="0" type="line"/>
      <point x="186" y="916" type="line"/>
      <point x="735" y="916" type="line"/>
      <point x="753" y="694" type="line"/>
      <point x="753" y="0" type="line"/>
    </contour>
    <contour>
      <point x="469" y="95" type="qcurve"/>
      <point x="469" y="340" type="line"/>
      <point x="707" y="801"/>
      <point x="865" y="946"/>
      <point x="942" y="946" type="qcurve" smooth="yes"/>
      <point x="960" y="946"/>
      <point x="996" y="936"/>
      <point x="1004" y="932" type="qcurve"/>
      <point x="1004" y="420" type="line"/>
      <point x="989" y="424"/>
      <point x="954" y="428"/>
      <point x="934" y="428" type="qcurve" smooth="yes"/>
      <point x="853" y="428"/>
      <point x="607" y="327"/>
    </contour>
  </outline>
</glyph>
<glyph name="t" format="2">
  <advance width="1004.6417445482865"/>
  <unicode hex="0074"/>
  <anchor x="592.0856697819315" y="0.0" name="bottom"/>
  <anchor x="480.0015576323987" y="551.0" name="center"/>
  <anchor x="480.0015576323987" y="1176.0" name="top"/>
  <anchor x="993.8084112149531" y="916.0" name="topright"/>
  <outline>
    <contour>
      <point x="37.5" y="433.70149253731347" type="line"/>
      <point x="37.5" y="916.0" type="line"/>
      <point x="917.1417445482866" y="916.0" type="line"/>
      <point x="917.1417445482866" y="433.70149253731347" type="line"/>
    </contour>
    <contour>
      <point x="176.16666666666669" y="450.6542056074766" type="qcurve" smooth="yes"/>
      <point x="176.16666666666669" y="830.0" type="line"/>
      <point x="176.16666666666669" y="860.0" type="line"/>
      <point x="176.16666666666669" y="1176.0" type="line"/>
      <point x="743.4750778816199" y="1176.0" type="line"/>
      <point x="743.4750778816199" y="540.7462686567164" type="line" smooth="yes"/>
      <point x="743.4750778816199" y="470.74626865671644"/>
      <point x="783.4750778816199" y="410.74626865671644"/>
      <point x="827.4750778816199" y="410.74626865671644" type="qcurve" smooth="yes"/>
      <point x="849.8084112149533" y="410.74626865671644"/>
      <point x="891.8084112149533" y="422.74626865671644"/>
      <point x="914.1417445482866" y="432.74626865671644" type="qcurve"/>
      <point x="914.1417445482866" y="0.0" type="line"/>
      <point x="895.8084112149533" y="-12.0"/>
      <point x="721.2819314641745" y="-30.0"/>
      <point x="592.8208722741432" y="-30.0" type="qcurve" smooth="yes"/>
      <point x="387.49376947040497" y="-30.0"/>
      <point x="176.16666666666669" y="214.85981308411215"/>
    </contour>
  </outline>
</glyph>
<glyph name="u" format="2">
  <advance width="1826"/>
  <unicode hex="0075"/>
  <anchor x="901.6090342679128" y="0.0" name="bottom"/>
  <anchor x="1627.2570093457944" y="0.0" name="ogonek"/>
  <anchor x="901.6090342679128" y="916.0" name="top"/>
  <anchor x="1367.7554517133956" y="916.0" name="topright"/>
  <anchor x="1544.2040498442368" y="0.0" name="cy_descender"/>
  <outline>
    <contour>
      <point x="679" y="-20" type="qcurve" smooth="yes"/>
      <point x="458" y="-20"/>
      <point x="175" y="142"/>
      <point x="175" y="370" type="qcurve" smooth="yes"/>
      <point x="175" y="916" type="line"/>
      <point x="743" y="916" type="line"/>
      <point x="743" y="650" type="line" smooth="yes"/>
      <point x="743" y="559"/>
      <point x="820" y="481"/>
      <point x="893" y="481" type="qcurve" smooth="yes"/>
      <point x="959" y="481"/>
      <point x="1120" y="635"/>
      <point x="1337" y="894" type="qcurve"/>
      <point x="1337" y="586" type="line"/>
      <point x="1141" y="165"/>
      <point x="847" y="-20"/>
    </contour>
    <contour>
      <point x="1091" y="0" type="line"/>
      <point x="1073" y="237" type="line"/>
      <point x="1073" y="916" type="line"/>
      <point x="1640" y="916" type="line"/>
      <point x="1640" y="0" type="line"/>
    </contour>
  </outline>
</glyph>
<glyph name="z" format="2">
  <advance width="1347.8971962616822"/>
  <unicode hex="007A"/>
  <anchor x="753.4532710280373" y="0.0" name="bottom"/>
  <anchor x="753.4532710280373" y="916.0" name="top"/>
  <outline>
    <contour>
      <point x="107.5" y="0.0" type="line"/>
      <point x="107.5" y="382.655321523225" type="line"/>
      <point x="589.0130050681174" y="516.4328358208955" type="line"/>
      <point x="115.5" y="516.4328358208955" type="line"/>
      <point x="115.5" y="916.0" type="line"/>
      <point x="1211.2927186497418" y="916.0" type="line"/>
      <point x="1211.2927186497418" y="535.4328358208955" type="line"/>
      <point x="780.648407495234" y="434.44776119402985" type="line"/>
      <point x="1246.3971962616822" y="434.44776119402985" type="line"/>
      <point x="1246.3971962616822" y="0.0" type="line"/>
    </contour>
  </outline>
</glyph>
<glyph name="braceleft" format="2">
  <advance width="1041.6417445482866"/>
  <unicode hex="007B"/>
  <outline>
    <contour>
      <point x="974.1417445482865" y="-312.0" type="line"/>
      <point x="597.1542056074766" y="-312.0"/>
      <point x="190.31308411214954" y="-42.5607476635514"/>
      <point x="244.28504672897196" y="225.95327102803736" type="qcurve" smooth="yes"/>
      <point x="248.44080996884733" y="280.61682242990656" type="line" smooth="yes"/>
      <point x="254.20414283721578" y="320.88994280931786"/>
      <point x="201.55970149253733" y="380.3880597014925"/>
      <point x="101.5" y="380.3880597014925" type="qcurve"/>
      <point x="101.5" y="767.6119402985074" type="line"/>
      <point x="201.55970149253733" y="767.6119402985074"/>
      <point x="258.9704979774027" y="800.4184684056354"/>
      <point x="250.34735202492212" y="856.8971962616822" type="qcurve" smooth="yes"/>
      <point x="245.23831775700936" y="914.4205607476636" type="line" smooth="yes"/>
      <point x="189.40654205607476" y="1179.607476635514"/>
      <point x="597.1542056074766" y="1460.0"/>
      <point x="974.1417445482865" y="1460.0" type="qcurve"/>
      <point x="974.1417445482865" y="1092.8059701492537" type="line"/>
      <point x="855.4054261403264" y="1092.8059701492537"/>
      <point x="778.7437345980378" y="1058.5223880597014"/>
      <point x="782.1417445482866" y="1025.0" type="qcurve" smooth="yes"/>
      <point x="805.4096573208723" y="895.0280373831775" type="line" smooth="yes"/>
      <point x="835.7554517133956" y="754.1183800623054"/>
      <point x="673.8146417445483" y="600.0"/>
      <point x="497.8208722741433" y="574.0" type="qcurve"/>
      <point x="673.8146417445483" y="548.0"/>
      <point x="834.8021806853582" y="390.0685358255452"/>
      <point x="805.4096573208723" y="252.97196261682242" type="qcurve" smooth="yes"/>
      <point x="782.1417445482866" y="123.0" type="line" smooth="yes"/>
      <point x="778.7437345980378" y="89.47761194029852"/>
      <point x="855.4054261403264" y="55.19402985074626"/>
      <point x="974.1417445482865" y="55.19402985074626" type="qcurve"/>
    </contour>
  </outline>
</glyph>
<glyph name="bar" format="2">
  <advance width="667.0"/>
  <unicode hex="007C"/>
  <outline>
    <contour>
      <point x="56.08208955223881" y="-416.0" type="line"/>
      <point x="56.08208955223881" y="1536.0" type="line"/>
      <point x="610.9179104477612" y="1536.0" type="line"/>
      <point x="610.9179104477612" y="-416.0" type="line"/>
    </contour>
  </outline>
</glyph>
<glyph name="exclamdown" format="2">
  <advance width="1059.1495327102803"/>
  <unicode hex="00A1"/>
  <outline>
    <contour>
      <point x="835.6495327102804" y="884.2710280373832" type="qcurve" smooth="yes"/>
      <point x="835.6495327102804" y="762.8224299065421"/>
      <point x="677.2757009345794" y="589.8691588785047"/>
      <point x="529.5747663551401" y="589.8691588785047" type="qcurve" smooth="yes"/>
      <point x="380.92056074766356" y="589.8691588785047"/>
      <point x="223.5" y="762.8224299065421"/>
      <point x="223.5" y="884.2710280373832" type="qcurve" smooth="yes"/>
      <point x="223.5" y="1004.7663551401869"/>
      <point x="380.92056074766356" y="1177.7196261682243"/>
      <point x="529.5747663551401" y="1177.7196261682243" type="qcurve" smooth="yes"/>
      <point x="677.2757009345794" y="1177.7196261682243"/>
      <point x="835.6495327102804" y="1004.7663551401869"/>
    </contour>
    <contour>
      <point x="611.5747663551401" y="567.4579439252336" type="line"/>
      <point x="817.2289719626168" y="-328.8785046728972" type="line"/>
      <point x="241.92056074766356" y="-328.8785046728972" type="line"/>
      <point x="447.5747663551402" y="567.4579439252336" type="line"/>
    </contour>
  </outline>
</glyph>
<glyph name="cent" format="2">
  <advance width="1687.9501557632398"/>
  <unicode hex="00A2"/>
  <outline>
    <contour>
      <point x="872.1417445482866" y="584.8656716417911" type="qcurve" smooth="yes"/>
      <point x="952.1417445482865" y="584.8656716417911"/>
      <point x="1041.8084112149531" y="613.044776119403"/>
      <point x="1047.1417445482866" y="638.3283582089553" type="qcurve"/>
      <point x="1604.4501557632398" y="638.3283582089553" type="line"/>
      <point x="1597.7834890965732" y="392.86567164179104"/>
      <point x="1190.2850467289718" y="130.0"/>
      <point x="872.1417445482866" y="130.0" type="qcurve" smooth="yes"/>
      <point x="552.4096573208723" y="130.0"/>
      <point x="102.5" y="410.0"/>
      <point x="102.5" y="670.0" type="qcurve" smooth="yes"/>
      <point x="102.5" y="712.0" type="line" smooth="yes"/>
      <point x="102.5" y="972.0"/>
      <point x="559.0825545171339" y="1252.0"/>
      <point x="872.1417445482866" y="1252.0" type="qcurve" smooth="yes"/>
      <point x="1183.7056074766356" y="1252.0"/>
      <point x="1599.1168224299065" y="982.6417910447761"/>
      <point x="1604.4501557632398" y="732.3880597014926" type="qcurve"/>
      <point x="1047.1417445482866" y="732.3880597014926" type="line"/>
      <point x="1041.8084112149531" y="762.4626865671642"/>
      <point x="952.1417445482865" y="793.7313432835821"/>
      <point x="872.1417445482866" y="793.7313432835821" type="qcurve" smooth="yes"/>
      <point x="773.4750778816199" y="793.7313432835821"/>
      <point x="669.8084112149533" y="742.4626865671642"/>
      <point x="669.8084112149533" y="694.9850746268656" type="qcurve" smooth="yes"/>
      <point x="669.8084112149533" y="683.6119402985074" type="line" smooth="yes"/>
      <point x="669.8084112149533" y="636.1343283582089"/>
      <point x="773.4750778816199" y="584.8656716417911"/>
    </contour>
    <contour>
      <point x="794.1417445482866" y="0.0" type="line"/>
      <point x="794.1417445482866" y="197.0" type="line"/>
      <point x="799.1417445482866" y="211.0" type="line"/>
      <point x="799.1417445482866" y="708.0" type="line"/>
      <point x="939.1417445482866" y="708.0" type="line"/>
      <point x="939.1417445482866" y="210.0" type="line"/>
      <point x="944.1417445482866" y="200.0" type="line"/>
      <point x="944.1417445482866" y="0.0" type="line"/>
    </contour>
    <contour>
      <point x="799.1417445482866" y="708.0" type="line"/>
      <point x="799.1417445482866" y="1182.0" type="line"/>
      <point x="794.1417445482866" y="1192.0" type="line"/>
      <point x="794.1417445482866" y="1402.0" type="line"/>
      <point x="944.1417445482866" y="1402.0" type="line"/>
      <point x="944.1417445482866" y="1192.0" type="line"/>
      <point x="939.1417445482866" y="1179.0" type="line"/>
      <point x="939.1417445482866" y="708.0" type="line"/>
    </contour>
  </outline>
</glyph>
<glyph name="sterling" format="2">
  <advance width="1676.9501557632398"/>
  <unicode hex="00A3"/>
  <outline>
    <contour>
      <point x="1639.1168224299065" y="0.0" type="line"/>
      <point x="73.5" y="0.0" type="line"/>
      <point x="73.5" y="422.8805970149254" type="line"/>
      <point x="115.83333333333333" y="422.8805970149254" type="line" smooth="yes"/>
      <point x="180.5" y="422.8805970149254"/>
      <point x="242.16666666666669" y="527.3283582089553"/>
      <point x="231.16666666666669" y="615.8805970149253" type="qcurve" smooth="yes"/>
      <point x="188.16666666666669" y="845.0298507462687" type="line" smooth="yes"/>
      <point x="83.98756218905474" y="1171.8507462686566"/>
      <point x="414.9601757567303" y="1476.0"/>
      <point x="893.8084112149533" y="1476.0" type="qcurve" smooth="yes"/>
      <point x="1276.512368066211" y="1476.0"/>
      <point x="1613.4501557632398" y="1184.592039800995"/>
      <point x="1613.4501557632398" y="869.044776119403" type="qcurve" smooth="yes"/>
      <point x="1613.4501557632398" y="863.2537313432836" type="line"/>
      <point x="1040.1417445482866" y="863.2537313432836" type="line"/>
      <point x="1040.1417445482866" y="869.044776119403" type="line" smooth="yes"/>
      <point x="1040.1417445482866" y="912.5820895522388"/>
      <point x="961.4750778816199" y="947.4328358208954"/>
      <point x="895.1417445482866" y="947.4328358208954" type="qcurve" smooth="yes"/>
      <point x="824.4750778816199" y="947.4328358208954"/>
      <point x="746.8084112149533" y="900.0"/>
      <point x="757.4750778816199" y="845.0298507462687" type="qcurve" smooth="yes"/>
      <point x="780.2694704049844" y="807.2312735388479" type="line" smooth="yes"/>
      <point x="808.0020690937833" y="656.2952992049101"/>
      <point x="764.727414330218" y="461.4451108941275"/>
      <point x="635.1448598130842" y="427.17910447761193" type="qcurve"/>
      <point x="1639.1168224299065" y="427.17910447761193" type="line"/>
    </contour>
    <contour>
      <point x="1498.1168224299065" y="514.4029850746268" type="line"/>
      <point x="89.5" y="514.4029850746268" type="line"/>
      <point x="89.5" y="865.0746268656717" type="line"/>
      <point x="1498.1168224299065" y="865.0746268656717" type="line"/>
    </contour>
  </outline>
</glyph>
<glyph name="yen" format="2">
  <advance width="1262.3084112149531"/>
  <unicode hex="00A5"/>
  <outline>
    <contour>
      <point x="80.5" y="132.8507462686567" type="line"/>
      <point x="80.5" y="462.0" type="line"/>
      <point x="1189.8084112149531" y="462.0" type="line"/>
      <point x="1189.8084112149531" y="132.8507462686567" type="line"/>
    </contour>
    <contour>
      <point x="80.5" y="491.88059701492534" type="line"/>
      <point x="80.5" y="821.179104477612" type="line"/>
      <point x="702.1268191751523" y="821.179104477612" type="line"/>
      <point x="772.1417445482866" y="669.0" type="line"/>
      <point x="881.1417445482866" y="669.0" type="line"/>
      <point x="946.156669921421" y="821.179104477612" type="line"/>
      <point x="1189.8084112149531" y="821.179104477612" type="line"/>
      <point x="1189.8084112149531" y="491.88059701492534" type="line"/>
    </contour>
    <contour>
      <point x="348.83333333333337" y="0.0" type="line"/>
      <point x="348.83333333333337" y="548.0" type="line"/>
      <point x="2.5" y="1456.0" type="line"/>
      <point x="639.518691588785" y="1456.0" type="line"/>
      <point x="651.1168224299065" y="1236.0280373831774" type="line" smooth="yes"/>
      <point x="660.4501557632399" y="1205.0280373831774"/>
      <point x="682.7834890965731" y="1103.0280373831774"/>
      <point x="687.7834890965731" y="1066.0280373831774" type="qcurve"/>
      <point x="703.1168224299065" y="1066.0280373831774" type="line"/>
      <point x="709.4501557632399" y="1122.0280373831774"/>
      <point x="730.4501557632399" y="1205.0280373831774"/>
      <point x="740.1168224299065" y="1236.0280373831774" type="qcurve" smooth="yes"/>
      <point x="751.8551401869158" y="1456.0" type="line"/>
      <point x="1259.8084112149531" y="1456.0" type="line"/>
      <point x="914.1417445482866" y="548.0" type="line"/>
      <point x="914.1417445482866" y="0.0" type="line"/>
    </contour>
  </outline>
</glyph>
<glyph name="section" format="2">
  <advance width="1123.6666666666667"/>
  <unicode hex="00A7"/>
  <guideline y="1658.0" identifier="QzZ5gIiCyn"/>
  <guideline y="578.0" identifier="9Hxjf2sdFw"/>
  <outline>
    <contour>
      <point x="603.5" y="133.0" type="qcurve"/>
      <point x="603.5" y="252.0" type="line"/>
      <point x="680.5" y="252.0"/>
      <point x="784.1666666666667" y="376.0"/>
      <point x="784.1666666666667" y="463.0" type="qcurve"/>
      <point x="784.1666666666667" y="556.0"/>
      <point x="669.8333333333334" y="679.3333333333334"/>
      <point x="535.8333333333334" y="734.0" type="qcurve" smooth="yes"/>
      <point x="390.1666666666667" y="791.0"/>
      <point x="213.83333333333334" y="949.0"/>
      <point x="213.83333333333334" y="1129.0" type="qcurve" smooth="yes"/>
      <point x="213.83333333333334" y="1305.0"/>
      <point x="389.83333333333337" y="1489.4825870646766"/>
      <point x="558.5" y="1491.0" type="qcurve" smooth="yes"/>
      <point x="724.8333333333334" y="1491.6666666666667"/>
      <point x="896.8333333333334" y="1219.134328358209"/>
      <point x="895.8333333333334" y="951.1194029850747" type="qcurve"/>
      <point x="730.8333333333334" y="951.1194029850747" type="line"/>
      <point x="727.5796019900498" y="967.7462686567164"/>
      <point x="642.5" y="994.1492537313433"/>
      <point x="558.5" y="1004.3582089552239" type="qcurve" smooth="yes"/>
      <point x="461.8333333333333" y="1016.2686567164179"/>
      <point x="395.8482587064676" y="1022.9104477611941"/>
      <point x="395.8482587064676" y="1001.3283582089553" type="qcurve" smooth="yes"/>
      <point x="395.8482587064676" y="980.9402985074627"/>
      <point x="527.7885572139303" y="935.7661691542289"/>
      <point x="613.8333333333334" y="897.0" type="qcurve" smooth="yes"/>
      <point x="759.5348258706468" y="837.2985074626865"/>
      <point x="965.1666666666667" y="652.0"/>
      <point x="965.1666666666667" y="478.0" type="qcurve" smooth="yes"/>
      <point x="965.1666666666667" y="315.0"/>
      <point x="753.1666666666667" y="133.0"/>
    </contour>
    <contour>
      <point x="480.4438443297531" y="894.0" type="qcurve"/>
      <point x="477.32649369972563" y="756.0" type="line"/>
      <point x="422.8333333333333" y="756.0"/>
      <point x="338.5" y="649.0"/>
      <point x="338.5" y="567.0" type="qcurve" smooth="yes"/>
      <point x="338.5" y="487.0"/>
      <point x="440.8333333333333" y="375.3333333333333"/>
      <point x="580.1666666666666" y="317.0" type="qcurve" smooth="yes"/>
      <point x="721.5" y="252.66666666666666"/>
      <point x="899.1666666666667" y="66.0"/>
      <point x="899.1666666666667" y="-113.0" type="qcurve" smooth="yes"/>
      <point x="899.1666666666667" y="-298.0"/>
      <point x="701.8333333333334" y="-509.0"/>
      <point x="540.1666666666667" y="-509.0" type="qcurve" smooth="yes"/>
      <point x="378.5" y="-509.0"/>
      <point x="168.5" y="-303.0"/>
      <point x="168.5" y="-75.56803459338819" type="qcurve"/>
      <point x="332.5" y="109.50746268656718" type="line"/>
      <point x="341.85820895522386" y="77.97014925373134"/>
      <point x="466.1666666666667" y="50.80597014925371"/>
      <point x="540.1666666666667" y="44.0" type="qcurve" smooth="yes"/>
      <point x="556.8432835820895" y="41.44776119402985"/>
      <point x="565.8681592039802" y="49.50746268656718"/>
      <point x="566.7189054726368" y="70.7313432835821" type="qcurve" smooth="yes"/>
      <point x="568.4203980099503" y="93.46268656716418"/>
      <point x="573.6492537313433" y="127.45273631840796"/>
      <point x="484.1666666666667" y="161.8507462686567" type="qcurve" smooth="yes"/>
      <point x="347.7089552238806" y="216.8955223880597"/>
      <point x="156.5" y="420.0"/>
      <point x="156.5" y="577.0" type="qcurve" smooth="yes"/>
      <point x="156.5" y="727.0"/>
      <point x="368.8333333333333" y="894.0"/>
    </contour>
  </outline>
</glyph>
<glyph name="copyright" format="2">
  <advance width="1729.0"/>
  <unicode hex="00A9"/>
  <guideline y="901.0" identifier="0Pjz0qKr8z"/>
  <guideline y="555.0" identifier="sJo8BlDiJ7"/>
  <outline>
    <contour>
      <point x="841.5685358255453" y="546.0" type="qcurve"/>
      <point x="1137.9610591900312" y="546.0" type="line"/>
      <point x="1137.9610591900312" y="375.0"/>
      <point x="920.1230529595017" y="205.0"/>
      <point x="686.9557232528945" y="205.0" type="qcurve" smooth="yes"/>
      <point x="530.7492211838006" y="205.0"/>
      <point x="283.9735202492212" y="465.5981308411215"/>
      <point x="283.9735202492212" y="664.0" type="qcurve" smooth="yes"/>
      <point x="283.9735202492212" y="703.0" type="line" smooth="yes"/>
      <point x="283.9735202492212" y="902.4018691588785"/>
      <point x="526.082554517134" y="1170.0"/>
      <point x="734.2840172966941" y="1170.0" type="qcurve" smooth="yes"/>
      <point x="947.7834890965732" y="1170.0"/>
      <point x="1138.9610591900312" y="983.0"/>
      <point x="1138.9610591900312" y="829.0" type="qcurve"/>
      <point x="842.5685358255453" y="829.0" type="line"/>
      <point x="842.5685358255453" y="917.0"/>
      <point x="800.8333333333334" y="1006.0"/>
      <point x="731.1666666666667" y="1006.0" type="qcurve" smooth="yes"/>
      <point x="656.8333333333334" y="1006.0"/>
      <point x="610.4314641744548" y="868.0"/>
      <point x="610.4314641744548" y="840.1634277212071" type="qcurve" smooth="yes"/>
      <point x="610.4314641744548" y="529.9539229088203" type="line" smooth="yes"/>
      <point x="610.4314641744548" y="499.0"/>
      <point x="662.8333333333334" y="362.0"/>
      <point x="756.556155670247" y="362.0" type="qcurve" smooth="yes"/>
      <point x="806.5" y="362.0"/>
      <point x="841.5685358255453" y="457.0"/>
    </contour>
    <contour>
      <point x="223.5" y="687.0" type="qcurve" smooth="yes"/>
      <point x="223.5" y="375.6666666666667"/>
      <point x="512.1666666666667" y="4.0"/>
      <point x="730.5" y="4.0" type="qcurve" smooth="yes"/>
      <point x="946.5" y="4.0"/>
      <point x="1233.8333333333335" y="375.6666666666667"/>
      <point x="1233.8333333333335" y="687.0" type="qcurve" smooth="yes"/>
      <point x="1233.8333333333335" y="998.6666666666666"/>
      <point x="946.5" y="1367.0"/>
      <point x="730.5" y="1367.0" type="qcurve" smooth="yes"/>
      <point x="512.1666666666667" y="1367.0"/>
      <point x="223.5" y="998.6666666666666"/>
    </contour>
    <contour>
      <point x="75.5" y="687.0" type="qcurve" smooth="yes"/>
      <point x="75.5" y="1068.0"/>
      <point x="444.83333333333337" y="1519.0"/>
      <point x="729.5" y="1519.0" type="qcurve" smooth="yes"/>
      <point x="1012.1666666666667" y="1519.0"/>
      <point x="1380.8333333333335" y="1068.0"/>
      <point x="1380.8333333333335" y="687.0" type="qcurve" smooth="yes"/>
      <point x="1380.8333333333335" y="307.0"/>
      <point x="1012.1666666666667" y="-147.0"/>
      <point x="729.5" y="-147.0" type="qcurve" smooth="yes"/>
      <point x="444.83333333333337" y="-147.0"/>
      <point x="75.5" y="307.0"/>
    </contour>
  </outline>
</glyph>
<glyph name="ordfeminine" format="2">
  <advance width="1470.2959501557632"/>
  <unicode hex="00AA"/>
  <guideline y="1681.0" identifier="3CJlALCfkl"/>
  <guideline y="909.0" identifier="Zdl6NZVQAy"/>
  <outline>
    <contour>
      <point x="836.8146417445483" y="862.0" type="line"/>
      <point x="836.8146417445483" y="821.0"/>
      <point x="856.8146417445483" y="736.0"/>
      <point x="879.8146417445483" y="706.0" type="qcurve"/>
      <point x="1300.7959501557632" y="706.0" type="line"/>
      <point x="1286.7959501557632" y="749.0"/>
      <point x="1274.7959501557632" y="838.0"/>
      <point x="1274.7959501557632" y="887.0" type="qcurve" smooth="yes"/>
      <point x="1274.7959501557632" y="1131.411214953271" type="line" smooth="yes"/>
      <point x="1274.7959501557632" y="1314.1682242990655"/>
      <point x="1066.7274143302182" y="1477.0"/>
      <point x="741.0545171339563" y="1477.0" type="qcurve" smooth="yes"/>
      <point x="443.40031152647975" y="1477.0"/>
      <point x="210.07943925233644" y="1356.0"/>
      <point x="202.0732087227414" y="1261.0" type="qcurve" smooth="yes"/>
      <point x="200.16666666666666" y="1234.0" type="line"/>
      <point x="641.1479750778816" y="1234.0" type="line"/>
      <point x="641.1479750778816" y="1247.0" type="line" smooth="yes"/>
      <point x="641.1479750778816" y="1292.0"/>
      <point x="691.8146417445483" y="1346.0"/>
      <point x="741.1479750778816" y="1346.0" type="qcurve" smooth="yes"/>
      <point x="788.8146417445483" y="1346.0"/>
      <point x="836.8146417445483" y="1276.0"/>
      <point x="836.8146417445483" y="1202.0" type="qcurve" smooth="yes"/>
    </contour>
    <contour>
      <point x="913.8146417445483" y="1149.0" type="line"/>
      <point x="753.1479750778816" y="1149.0" type="line" smooth="yes"/>
      <point x="406.8271028037383" y="1149.0"/>
      <point x="178.5" y="1028.0"/>
      <point x="178.5" y="918.0" type="qcurve" smooth="yes"/>
      <point x="178.5" y="816.0"/>
      <point x="376.1604361370716" y="692.0"/>
      <point x="548.8426791277259" y="692.0" type="qcurve" smooth="yes"/>
      <point x="708.1510903426791" y="692.0"/>
      <point x="868.481308411215" y="794.0"/>
      <point x="913.8146417445483" y="852.0" type="qcurve"/>
      <point x="913.8146417445483" y="975.0" type="line"/>
      <point x="870.481308411215" y="911.0"/>
      <point x="759.1479750778816" y="822.0"/>
      <point x="711.8146417445483" y="822.0" type="qcurve" smooth="yes"/>
      <point x="665.8146417445483" y="822.0"/>
      <point x="621.481308411215" y="879.0"/>
      <point x="621.481308411215" y="922.0" type="qcurve" smooth="yes"/>
      <point x="621.481308411215" y="969.0"/>
      <point x="686.481308411215" y="1042.0"/>
      <point x="754.1479750778816" y="1042.0" type="qcurve" smooth="yes"/>
      <point x="913.8146417445483" y="1042.0" type="line"/>
    </contour>
  </outline>
</glyph>
<glyph name="guillemotleft" format="2">
  <advance width="1823.9501557632398"/>
  <unicode hex="00AB"/>
  <guideline y="901.0" identifier="ZftBQarVKw"/>
  <guideline y="555.0" identifier="MVJpdoVRVd"/>
  <outline>
    <contour>
      <point x="145.5" y="522.0" type="line"/>
      <point x="145.5" y="581.0" type="line"/>
      <point x="395.5" y="949.0" type="line"/>
      <point x="938.8084112149533" y="949.0" type="line"/>
      <point x="725.8084112149533" y="551.0" type="line"/>
      <point x="938.8084112149533" y="153.0" type="line"/>
      <point x="395.5" y="153.0" type="line"/>
    </contour>
    <contour>
      <point x="906.1417445482866" y="522.0" type="line"/>
      <point x="906.1417445482866" y="581.0" type="line"/>
      <point x="1156.1417445482864" y="949.0" type="line"/>
      <point x="1699.4501557632398" y="949.0" type="line"/>
      <point x="1486.4501557632398" y="551.0" type="line"/>
      <point x="1699.4501557632398" y="153.0" type="line"/>
      <point x="1156.1417445482864" y="153.0" type="line"/>
    </contour>
  </outline>
</glyph>
<glyph name="logicalnot" format="2">
  <advance width="1156.3208722741433"/>
  <unicode hex="00AC"/>
  <outline>
    <contour>
      <point x="1022.8208722741433" y="801.0" type="line"/>
      <point x="1022.8208722741433" y="185.34579439252337" type="line"/>
      <point x="463.5124610591901" y="185.34579439252337" type="line"/>
      <point x="463.5124610591901" y="637.0" type="line"/>
      <point x="95.5" y="637.0" type="line"/>
      <point x="95.5" y="801.0" type="line"/>
    </contour>
  </outline>
</glyph>
<glyph name="degree" format="2">
  <advance width="1079.271028037383"/>
  <unicode hex="00B0"/>
  <outline>
    <contour>
      <point x="168.48000000000002" y="1102.607476635514" type="qcurve"/>
      <point x="168.48000000000002" y="1254.3644859813085"/>
      <point x="390.0220560747664" y="1474.1401869158879"/>
      <point x="543.5921495327102" y="1474.1401869158879" type="qcurve" smooth="yes"/>
      <point x="695.2089719626167" y="1474.1401869158879"/>
      <point x="913.7510280373831" y="1254.3441874738244"/>
      <point x="913.7510280373831" y="1102.607476635514" type="qcurve" smooth="yes"/>
      <point x="913.7510280373831" y="950.0433031106477"/>
      <point x="695.1988227089088" y="735.981308411215"/>
      <point x="543.5921495327102" y="735.981308411215" type="qcurve" smooth="yes"/>
      <point x="391.1580136699558" y="735.981308411215"/>
      <point x="168.48000000000002" y="949.8504672897196"/>
    </contour>
    <contour>
      <point x="412.5921495327103" y="1103.5607476635514" type="qcurve"/>
      <point x="412.5921495327103" y="1048.4085088575914"/>
      <point x="489.77483609986234" y="974.5607476635514"/>
      <point x="543.5921495327102" y="974.5607476635514" type="qcurve" smooth="yes"/>
      <point x="597.4094629655583" y="974.5607476635514"/>
      <point x="669.6388785046728" y="1048.4085088575914"/>
      <point x="669.6388785046728" y="1103.5607476635514" type="qcurve" smooth="yes"/>
      <point x="669.6388785046728" y="1159.5404491560673"/>
      <point x="597.4094629655583" y="1235.5607476635514"/>
      <point x="543.5921495327102" y="1235.5607476635514" type="qcurve" smooth="yes"/>
      <point x="489.77483609986234" y="1235.5607476635514"/>
      <point x="412.5921495327103" y="1159.5404491560673"/>
    </contour>
  </outline>
</glyph>
<glyph name="twosuperior" format="2">
  <advance width="1318.669781931464"/>
  <unicode hex="00B2"/>
  <outline>
    <contour>
      <point x="102.3411214953271" y="697.0" type="line"/>
      <point x="102.3411214953271" y="805.0" type="line"/>
      <point x="426.1355140186916" y="1066.0934579439252" type="line" smooth="yes"/>
      <point x="492.7616822429907" y="1125.2274143302182"/>
      <point x="648.6464174454829" y="1246.5046728971963"/>
      <point x="648.6464174454829" y="1279.5046728971963" type="qcurve" smooth="yes"/>
      <point x="648.6464174454829" y="1317.018691588785"/>
      <point x="621.8457943925234" y="1347.0"/>
      <point x="579.1791277258568" y="1347.0" type="qcurve" smooth="yes"/>
      <point x="532.5124610591902" y="1347.0"/>
      <point x="471.7803738317757" y="1273.4672897196263"/>
      <point x="471.7803738317757" y="1198.4672897196263" type="qcurve" smooth="yes"/>
      <point x="471.7803738317757" y="1193.233644859813" type="line"/>
      <point x="113.40654205607477" y="1193.233644859813" type="line"/>
      <point x="113.40654205607477" y="1198.4672897196263" type="line" smooth="yes"/>
      <point x="113.40654205607477" y="1329.4672897196263"/>
      <point x="399.12305295950154" y="1487.0"/>
      <point x="714.6370716510904" y="1487.0" type="qcurve" smooth="yes"/>
      <point x="989.7398753894082" y="1487.0"/>
      <point x="1201.2352024922118" y="1359.0"/>
      <point x="1201.2352024922118" y="1251.0" type="qcurve" smooth="yes"/>
      <point x="1201.2352024922118" y="1171.0"/>
      <point x="1006.4096573208723" y="1026.6947040498444"/>
      <point x="920.1105919003115" y="971.0" type="qcurve" smooth="yes"/>
      <point x="715.316199376947" y="845.0" type="line"/>
      <point x="1213.169781931464" y="845.0" type="line"/>
      <point x="1213.169781931464" y="697.0" type="line"/>
    </contour>
  </outline>
</glyph>
<glyph name="threesuperior" format="2">
  <advance width="1509.9501557632398"/>
  <unicode hex="00B3"/>
  <outline>
    <contour>
      <point x="100.5" y="920.0" type="qcurve" smooth="yes"/>
      <point x="100.5" y="926.8130841121496" type="line"/>
      <point x="638.8084112149533" y="926.8130841121496" type="line"/>
      <point x="638.8084112149533" y="920.0" type="line" smooth="yes"/>
      <point x="638.8084112149533" y="875.0"/>
      <point x="693.8084112149533" y="824.0"/>
      <point x="741.1417445482866" y="824.0" type="qcurve" smooth="yes"/>
      <point x="790.4750778816199" y="824.0"/>
      <point x="834.8084112149533" y="876.0"/>
      <point x="834.8084112149533" y="925.0" type="qcurve" smooth="yes"/>
      <point x="834.8084112149533" y="978.0"/>
      <point x="782.4750778816199" y="1029.2866043613706"/>
      <point x="729.8084112149533" y="1029.0" type="qcurve" smooth="yes"/>
      <point x="665.1417445482866" y="1029.0" type="line"/>
      <point x="665.1417445482866" y="1151.0" type="line"/>
      <point x="729.8084112149533" y="1151.0" type="line" smooth="yes"/>
      <point x="785.4750778816199" y="1151.0"/>
      <point x="829.8084112149533" y="1207.0"/>
      <point x="829.8084112149533" y="1255.0" type="qcurve" smooth="yes"/>
      <point x="829.8084112149533" y="1299.0"/>
      <point x="792.1417445482866" y="1349.0"/>
      <point x="742.8084112149533" y="1349.0" type="qcurve" smooth="yes"/>
      <point x="701.4750778816199" y="1349.0"/>
      <point x="649.8084112149533" y="1299.0"/>
      <point x="649.8084112149533" y="1256.0" type="qcurve" smooth="yes"/>
      <point x="649.8084112149533" y="1252.0" type="line"/>
      <point x="111.5" y="1252.0" type="line"/>
      <point x="111.5" y="1256.0" type="line" smooth="yes"/>
      <point x="111.5" y="1357.0"/>
      <point x="331.95482866043614" y="1487.0"/>
      <point x="740.8084112149533" y="1487.0" type="qcurve" smooth="yes"/>
      <point x="1107.3785046728972" y="1487.0"/>
      <point x="1381.1168224299065" y="1372.0"/>
      <point x="1381.1168224299065" y="1263.0" type="qcurve" smooth="yes"/>
      <point x="1381.1168224299065" y="1202.4672897196263"/>
      <point x="1324.4034267912773" y="1115.233644859813"/>
      <point x="1263.4501557632398" y="1098.0" type="qcurve"/>
      <point x="1263.4501557632398" y="1097.0" type="line"/>
      <point x="1329.4968847352025" y="1074.9065420560748"/>
      <point x="1384.1168224299065" y="996.2523364485982"/>
      <point x="1384.1168224299065" y="917.0" type="qcurve" smooth="yes"/>
      <point x="1384.1168224299065" y="807.0"/>
      <point x="1038.1230529595018" y="686.0"/>
      <point x="737.8084112149533" y="686.0" type="qcurve" smooth="yes"/>
      <point x="401.88940809968847" y="686.0"/>
      <point x="100.5" y="802.0"/>
    </contour>
  </outline>
</glyph>
<glyph name="micro" format="2">
  <advance width="1885.6168224299065"/>
  <unicode hex="00B5"/>
  <outline>
    <contour>
      <point x="279.5" y="1052.0" type="line"/>
      <point x="846.8084112149533" y="1052.0" type="line"/>
      <point x="714.8084112149533" y="371.0" type="line" smooth="yes"/>
      <point x="689.8084112149533" y="245.0"/>
      <point x="746.1417445482866" y="136.0"/>
      <point x="817.8084112149533" y="136.0" type="qcurve" smooth="yes"/>
      <point x="880.8084112149533" y="136.0"/>
      <point x="992.4750778816199" y="232.0"/>
      <point x="1032.8084112149531" y="308.0" type="qcurve"/>
      <point x="1176.8084112149531" y="1052.0" type="line"/>
      <point x="1744.1168224299065" y="1052.0" type="line"/>
      <point x="1540.1168224299065" y="0.0" type="line"/>
      <point x="990.8084112149531" y="0.0" type="line"/>
      <point x="1008.8084112149531" y="135.0" type="line"/>
      <point x="1002.8084112149531" y="135.0" type="line"/>
      <point x="950.1417445482865" y="63.0"/>
      <point x="819.8084112149533" y="-20.0"/>
      <point x="751.8084112149533" y="-20.0" type="qcurve" smooth="yes"/>
      <point x="720.1417445482866" y="-20.0"/>
      <point x="668.8084112149533" y="15.0"/>
      <point x="650.8084112149533" y="42.0" type="qcurve"/>
      <point x="562.8084112149533" y="-416.0" type="line"/>
      <point x="-4.5" y="-416.0" type="line"/>
    </contour>
  </outline>
</glyph>
<glyph name="paragraph" format="2">
  <advance width="1679.9750778816199"/>
  <unicode hex="00B6"/>
  <guideline y="901.0" identifier="27539Lsr1A"/>
  <guideline y="555.0" identifier="e34wUdCmXR"/>
  <outline>
    <contour>
      <point x="1151.8084112149531" y="-146.0" type="line"/>
      <point x="584.5" y="-146.0" type="line"/>
      <point x="584.5" y="429.7164179104478" type="line"/>
      <point x="497.5" y="429.7164179104478" type="line" smooth="yes"/>
      <point x="302.5" y="429.7164179104478"/>
      <point x="93.5" y="721.4328358208955"/>
      <point x="93.5" y="942.4328358208955" type="qcurve" smooth="yes"/>
      <point x="93.5" y="1161.4328358208954"/>
      <point x="302.5" y="1456.0"/>
      <point x="497.5" y="1456.0" type="qcurve" smooth="yes"/>
      <point x="1151.8084112149531" y="1456.0" type="line"/>
    </contour>
    <contour>
      <point x="1256.4750778816199" y="1459.0" type="line"/>
      <point x="1442.4750778816199" y="1459.0" type="line"/>
      <point x="1442.4750778816199" y="-146.0" type="line"/>
      <point x="1256.4750778816199" y="-146.0" type="line"/>
    </contour>
  </outline>
</glyph>
<glyph name="periodcentered" format="2">
  <advance width="996.2523364485982"/>
  <unicode hex="00B7"/>
  <outline>
    <contour>
      <point x="213.5" y="749.0" type="qcurve" smooth="yes"/>
      <point x="213.5" y="861.8691588785047"/>
      <point x="360.43457943925233" y="1022.4299065420561"/>
      <point x="497.64953271028037" y="1022.4299065420561" type="qcurve" smooth="yes"/>
      <point x="635.8177570093458" y="1022.4299065420561"/>
      <point x="782.7523364485982" y="861.8691588785047"/>
      <point x="782.7523364485982" y="749.0" type="qcurve" smooth="yes"/>
      <point x="782.7523364485982" y="636.1308411214953"/>
      <point x="635.8177570093458" y="475.5700934579439"/>
      <point x="497.64953271028037" y="475.5700934579439" type="qcurve" smooth="yes"/>
      <point x="360.43457943925233" y="475.5700934579439"/>
      <point x="213.5" y="636.1308411214953"/>
    </contour>
  </outline>
</glyph>
<glyph name="onesuperior" format="2">
  <advance width="1171.9750778816199"/>
  <unicode hex="00B9"/>
  <outline>
    <contour>
      <point x="160.5" y="1211.0" type="line"/>
      <point x="160.5" y="1370.0" type="line"/>
      <point x="459.1666666666667" y="1486.0" type="line"/>
      <point x="884.4750778816199" y="1486.0" type="line"/>
      <point x="884.4750778816199" y="697.0" type="line"/>
      <point x="341.1666666666667" y="697.0" type="line"/>
      <point x="341.1666666666667" y="1279.3333333333333" type="line"/>
    </contour>
  </outline>
</glyph>
<glyph name="guillemotright" format="2">
  <advance width="1823.9501557632398"/>
  <unicode hex="00BB"/>
  <guideline y="98.0" identifier="MTEldNnfdj"/>
  <guideline y="443.0" identifier="G9bQni2n1K"/>
  <outline>
    <contour>
      <point x="124.5" y="153.0" type="line"/>
      <point x="337.5" y="551.0" type="line"/>
      <point x="124.5" y="949.0" type="line"/>
      <point x="667.8084112149533" y="949.0" type="line"/>
      <point x="917.8084112149533" y="581.0" type="line"/>
      <point x="917.8084112149533" y="522.0" type="line"/>
      <point x="667.8084112149533" y="153.0" type="line"/>
    </contour>
    <contour>
      <point x="885.1417445482866" y="153.0" type="line"/>
      <point x="1098.1417445482864" y="551.0" type="line"/>
      <point x="885.1417445482866" y="949.0" type="line"/>
      <point x="1428.4501557632398" y="949.0" type="line"/>
      <point x="1678.4501557632398" y="581.0" type="line"/>
      <point x="1678.4501557632398" y="522.0" type="line"/>
      <point x="1428.4501557632398" y="153.0" type="line"/>
    </contour>
  </outline>
</glyph>
<glyph name="questiondown" format="2">
  <advance width="1668.9034267912773"/>
  <unicode hex="00BF"/>
  <outline>
    <contour>
      <point x="1167.0514018691588" y="884.1775700934579" type="qcurve" smooth="yes"/>
      <point x="1167.0514018691588" y="762.7289719626168"/>
      <point x="1008.6775700934579" y="589.7757009345794"/>
      <point x="860.9766355140187" y="589.7757009345794" type="qcurve" smooth="yes"/>
      <point x="712.3224299065421" y="589.7757009345794"/>
      <point x="554.9018691588785" y="762.7289719626168"/>
      <point x="554.9018691588785" y="884.1775700934579" type="qcurve" smooth="yes"/>
      <point x="554.9018691588785" y="1004.6728971962617"/>
      <point x="712.3224299065421" y="1177.6261682242991"/>
      <point x="860.9766355140187" y="1177.6261682242991" type="qcurve" smooth="yes"/>
      <point x="1008.6775700934579" y="1177.6261682242991"/>
      <point x="1167.0514018691588" y="1004.6728971962617"/>
    </contour>
    <contour>
      <point x="1567.5903426791276" y="226.67443158041567" type="line"/>
      <point x="1567.5903426791276" y="206.67443158041567" type="line" smooth="yes"/>
      <point x="1567.5903426791276" y="-64.66885200167387"/>
      <point x="1303.829334635235" y="-358.50467289719626"/>
      <point x="846.2819314641745" y="-358.50467289719626" type="qcurve" smooth="yes"/>
      <point x="390.28676709908405" y="-358.50467289719626"/>
      <point x="127.68691588785046" y="-161.86288185242014"/>
      <point x="127.68691588785046" y="17.49532710280374" type="qcurve" smooth="yes"/>
      <point x="127.68691588785046" y="181.0467289719626"/>
      <point x="298.88317757009344" y="331.85046728971963"/>
      <point x="468.6028037383178" y="386.31775700934577" type="qcurve" smooth="yes"/>
      <point x="644.4563862928348" y="448.6791277258567"/>
      <point x="777.1697819314642" y="503.2367601246106"/>
      <point x="781.9361370716512" y="533.5327102803739" type="qcurve" smooth="yes"/>
      <point x="786.702492211838" y="554.018691588785" type="line"/>
      <point x="965.076323987539" y="555.9252336448599" type="line"/>
      <point x="965.076323987539" y="527.8130841121496" type="line" smooth="yes"/>
      <point x="965.076323987539" y="496.23364485981307"/>
      <point x="923.088785046729" y="411.61682242990656"/>
      <point x="828.4158878504672" y="326.86915887850466" type="qcurve" smooth="yes"/>
      <point x="742.1168224299065" y="253.49532710280374"/>
      <point x="695.9485981308411" y="107.58306597851863"/>
      <point x="695.9485981308411" y="79.89649881433951" type="qcurve" smooth="yes"/>
      <point x="695.9485981308411" y="54.93667178128051"/>
      <point x="773.8689961407913" y="33.196819640117184"/>
      <point x="846.2819314641745" y="33.196819640117184" type="qcurve" smooth="yes"/>
      <point x="921.2471055935276" y="33.196819640117184"/>
      <point x="1001.2819314641746" y="123.5848793416097"/>
      <point x="1001.2819314641746" y="206.67443158041567" type="qcurve" smooth="yes"/>
      <point x="1001.2819314641746" y="226.67443158041567" type="line"/>
    </contour>
  </outline>
</glyph>
<glyph name="multiply" format="2">
  <advance width="1162.1277258566977"/>
  <unicode hex="00D7"/>
  <outline>
    <contour>
      <point x="420.8474143302181" y="207.29283489096574" type="line"/>
      <point x="122.19320872274143" y="509.94704049844233" type="line"/>
      <point x="727.4735825545171" y="1134.9470404984424" type="line"/>
      <point x="1026.1277881619937" y="831.2928348909657" type="line"/>
    </contour>
    <contour>
      <point x="722.0935202492212" y="205.00623052959503" type="line"/>
      <point x="118.76018691588784" y="821.6728971962617" type="line"/>
      <point x="428.4143925233645" y="1136.3271028037384" type="line"/>
      <point x="1031.7477258566978" y="518.6604361370717" type="line"/>
    </contour>
  </outline>
</glyph>
<glyph name="Thorn" format="2">
  <advance width="1884.3395638629283"/>
  <unicode hex="00DE"/>
  <guideline y="901.0" identifier="i9jYwjBDP4"/>
  <guideline y="555.0" identifier="T8KKW8oxop"/>
  <outline>
    <contour>
      <point x="207.5" y="0.0" type="line"/>
      <point x="207.5" y="1456.0" type="line"/>
      <point x="797.6401869158879" y="1456.0" type="line"/>
      <point x="797.6401869158879" y="0.0" type="line"/>
    </contour>
    <contour>
      <point x="503.1542056074766" y="239.13432835820896" type="line"/>
      <point x="503.1542056074766" y="693.8507462686567" type="line"/>
      <point x="987.9735202492212" y="693.8507462686567" type="line" smooth="yes"/>
      <point x="1097.973520249221" y="693.8507462686567"/>
      <point x="1194.3068535825546" y="714.5970149253732"/>
      <point x="1194.3068535825546" y="738.5522388059702" type="qcurve" smooth="yes"/>
      <point x="1194.3068535825546" y="762.5074626865671"/>
      <point x="1097.973520249221" y="784.0"/>
      <point x="987.9735202492212" y="784.0" type="qcurve" smooth="yes"/>
      <point x="503.1542056074766" y="784.0" type="line"/>
      <point x="503.1542056074766" y="1243.8208955223881" type="line"/>
      <point x="1136.683800623053" y="1243.8208955223881" type="line" smooth="yes"/>
      <point x="1458.46261682243" y="1243.8208955223881"/>
      <point x="1796.8395638629283" y="973.2835820895523"/>
      <point x="1796.8395638629283" y="740.5522388059702" type="qcurve" smooth="yes"/>
      <point x="1796.8395638629283" y="506.97014925373134"/>
      <point x="1458.46261682243" y="231.47761194029852"/>
      <point x="1136.683800623053" y="239.13432835820896" type="qcurve" smooth="yes"/>
    </contour>
  </outline>
</glyph>
<glyph name="ae" format="2">
  <advance width="2632.968847352025"/>
  <unicode hex="00E6"/>
  <anchor x="1304.2383177570093" y="1052.0" name="top"/>
  <outline>
    <contour>
      <point x="601.1012461059189" y="-20.0" type="qcurve" smooth="yes"/>
      <point x="343.11545171339566" y="-20.0"/>
      <point x="127.5" y="133.0"/>
      <point x="127.5" y="285.66604361370713" type="qcurve" smooth="yes"/>
      <point x="127.5" y="413.56"/>
      <point x="400.1545794392523" y="573.2"/>
      <point x="740.8582554517134" y="573.2" type="qcurve" smooth="yes"/>
      <point x="1255.880062305296" y="573.2" type="line"/>
      <point x="1255.880062305296" y="301.6776119402985" type="line"/>
      <point x="886.690031152648" y="301.6776119402985" type="line" smooth="yes"/>
      <point x="772.0633644859813" y="301.6776119402985"/>
      <point x="670.0233644859813" y="297.5755223880597"/>
      <point x="670.0233644859813" y="289.4029850746269" type="qcurve" smooth="yes"/>
      <point x="670.0233644859813" y="279.87044776119404"/>
      <point x="744.7833644859813" y="270.92537313432837"/>
      <point x="816.690031152648" y="270.92537313432837" type="qcurve" smooth="yes"/>
      <point x="912.411623192449" y="270.92537313432837"/>
      <point x="1013.3566978193147" y="337.86268656716413"/>
      <point x="1013.3566978193147" y="406.69850746268656" type="qcurve"/>
      <point x="1013.3566978193147" y="466.44218161528806" type="line" smooth="yes"/>
      <point x="1013.3566978193147" y="565.17450132515"/>
      <point x="947.690031152648" y="615.0895522388059"/>
      <point x="858.2570093457944" y="615.0895522388059" type="qcurve" smooth="yes"/>
      <point x="788.530031152648" y="615.0895522388059"/>
      <point x="685.5249221183801" y="610.4985074626866"/>
      <point x="689.3380062305297" y="593.1343283582089" type="qcurve" smooth="yes"/>
      <point x="689.3380062305297" y="576.049379271865" type="line"/>
      <point x="172.16666666666666" y="576.049379271865" type="line"/>
      <point x="172.16666666666666" y="593.1343283582089" type="line" smooth="yes"/>
      <point x="172.16666666666666" y="768.5050746268656"/>
      <point x="494.28442367601247" y="946.0"/>
      <point x="810.5404984423675" y="946.0" type="qcurve" smooth="yes"/>
      <point x="1017.2932710280373" y="946.0"/>
      <point x="1208.5024922118378" y="944.502429906542"/>
      <point x="1293.2723364485983" y="908.5737071651091" type="qcurve"/>
      <point x="1363.8033021806855" y="937.2159501557632"/>
      <point x="1579.8912772585668" y="946.0"/>
      <point x="1751.0398130841122" y="946.0" type="qcurve" smooth="yes"/>
      <point x="2112.634828660436" y="946.0"/>
      <point x="2488.148847352025" y="700.72"/>
      <point x="2488.148847352025" y="492.0" type="qcurve" smooth="yes"/>
      <point x="2488.148847352025" y="339.43283582089555" type="line"/>
      <point x="1312.5507165109034" y="339.43283582089555" type="line"/>
      <point x="1312.5507165109034" y="649.0746268656717" type="line"/>
      <point x="1919.8070404984423" y="649.0746268656717" type="line"/>
      <point x="1920.957786767099" y="491.8776119402985" type="line" smooth="yes"/>
      <point x="1919.8070404984423" y="499.21373134328354"/>
      <point x="1837.9737694704052" y="510.70149253731347"/>
      <point x="1757.1397507788165" y="510.70149253731347" type="qcurve" smooth="yes"/>
      <point x="1650.6404361370717" y="510.70149253731347"/>
      <point x="1545.8404361370717" y="493.5862686567164"/>
      <point x="1545.8404361370717" y="474.0" type="qcurve" smooth="yes"/>
      <point x="1545.8404361370717" y="442.0" type="line" smooth="yes"/>
      <point x="1545.8404361370717" y="431.7719402985075"/>
      <point x="1752.940498442368" y="424.86567164179104"/>
      <point x="1926.940403589529" y="424.86567164179104" type="qcurve" smooth="yes"/>
      <point x="2102.0868210350113" y="424.86567164179104"/>
      <point x="2294.0247947179982" y="444.80597014925377"/>
      <point x="2353.576196587157" y="458.01492537313436" type="qcurve"/>
      <point x="2465.856012461059" y="175.0" type="line"/>
      <point x="2389.1519626168224" y="100.0"/>
      <point x="2047.3700311526482" y="-30.0"/>
      <point x="1893.0585046728972" y="-30.0" type="qcurve" smooth="yes"/>
      <point x="1618.580996884735" y="-30.0"/>
      <point x="1352.7679127725858" y="62.1217445482866"/>
      <point x="1249.612398753894" y="137.44872274143302" type="qcurve"/>
      <point x="1069.1807476635513" y="19.50292834890966"/>
      <point x="771.5431152647974" y="-20.0"/>
    </contour>
  </outline>
</glyph>
<glyph name="eth" format="2">
  <advance width="1770.9501557632398"/>
  <unicode hex="00F0"/>
  <outline>
    <contour>
      <point x="613.4750778816199" y="1421.0" type="qcurve"/>
      <point x="670.4750778816199" y="1581.0" type="line"/>
      <point x="1055.3411214953271" y="1469.429906542056"/>
      <point x="1648.4501557632398" y="885.5364485981308"/>
      <point x="1648.4501557632398" y="525.7887850467289" type="qcurve"/>
      <point x="1648.4501557632398" y="550.5700934579439" type="line"/>
      <point x="1648.4501557632398" y="253.61457943925234"/>
      <point x="1177.4207476635513" y="-20.0"/>
      <point x="788.6214953271028" y="-20.0" type="qcurve" smooth="yes"/>
      <point x="429.8132710280374" y="-20.0"/>
      <point x="122.5" y="241.88"/>
      <point x="122.5" y="436.72" type="qcurve" smooth="yes"/>
      <point x="122.5" y="647.68"/>
      <point x="499.79420560747656" y="912.72"/>
      <point x="756.6214953271028" y="912.72" type="qcurve" smooth="yes"/>
      <point x="993.8084112149531" y="912.72"/>
      <point x="1207.366043613707" y="685.6392523364486"/>
      <point x="1235.0109034267912" y="539.2" type="qcurve"/>
      <point x="1102.1417445482864" y="474.5432835820895" type="line"/>
      <point x="1082.1230529595016" y="505.4990654205607"/>
      <point x="999.4750778816199" y="534.4214925373135"/>
      <point x="898.8084112149533" y="534.4214925373135" type="qcurve" smooth="yes"/>
      <point x="806.3017445482866" y="534.4214925373135"/>
      <point x="689.8084112149533" y="503.4113432835821"/>
      <point x="689.8084112149533" y="484.36179104477617" type="qcurve" smooth="yes"/>
      <point x="689.8084112149533" y="454.43462686567165"/>
      <point x="802.3150778816199" y="437.4179104477612"/>
      <point x="890.8084112149533" y="437.4179104477612" type="qcurve" smooth="yes"/>
      <point x="974.7150778816199" y="437.4179104477612"/>
      <point x="1081.1417445482864" y="482.46388059701496"/>
      <point x="1081.1417445482864" y="533.3283582089553" type="qcurve" smooth="yes"/>
      <point x="1081.1417445482864" y="560.2" type="line" smooth="yes"/>
      <point x="1081.1417445482864" y="909.2"/>
      <point x="803.8084112149533" y="1371.0"/>
    </contour>
    <contour>
      <point x="1329.7238341005252" y="1261.4676616915422" type="line"/>
      <point x="859.3905007671921" y="929.1343283582089" type="line"/>
      <point x="633.4651276328636" y="1248.2089552238806" type="line"/>
      <point x="1103.798460966197" y="1579.5422885572139" type="line"/>
    </contour>
  </outline>
</glyph>
<glyph name="thorn" format="2">
  <advance width="1843.0093457943926"/>
  <unicode hex="00FE"/>
  <outline>
    <contour>
      <point x="752.8084112149533" y="-416.0" type="line"/>
      <point x="185.5" y="-416.0" type="line"/>
      <point x="185.5" y="1536.0" type="line"/>
      <point x="752.8084112149533" y="1536.0" type="line"/>
      <point x="752.8084112149533" y="807.6666666666666" type="line"/>
    </contour>
    <contour>
      <point x="936.1417445482866" y="439.11940298507466" type="qcurve" smooth="yes"/>
      <point x="1026.168411214953" y="439.11940298507466"/>
      <point x="1136.8084112149531" y="438.6901492537313"/>
      <point x="1136.8084112149531" y="453.05970149253733" type="qcurve" smooth="yes"/>
      <point x="1136.8084112149531" y="462.08955223880594" type="line" smooth="yes"/>
      <point x="1136.8084112149531" y="470.50985074626874"/>
      <point x="1026.168411214953" y="476.88059701492534"/>
      <point x="935.4750778816199" y="476.88059701492534" type="qcurve" smooth="yes"/>
      <point x="833.5284112149533" y="476.88059701492534"/>
      <point x="709.8084112149533" y="474.5020895522388"/>
      <point x="709.8084112149533" y="463.1343283582089" type="qcurve" smooth="yes"/>
      <point x="709.8084112149533" y="455.5522388059702" type="line" smooth="yes"/>
      <point x="709.8084112149533" y="443.8316417910447"/>
      <point x="835.1284112149533" y="439.11940298507466"/>
    </contour>
    <contour>
      <point x="1137.671339563863" y="-20.0" type="qcurve" smooth="yes"/>
      <point x="881.1714018691589" y="-20.0"/>
      <point x="577.9859813084113" y="233.04"/>
      <point x="577.9859813084113" y="452.0" type="qcurve" smooth="yes"/>
      <point x="577.9859813084113" y="486.0" type="line" smooth="yes"/>
      <point x="577.9859813084113" y="677.28"/>
      <point x="871.9317757009346" y="936.0"/>
      <point x="1137.671339563863" y="936.0" type="qcurve" smooth="yes"/>
      <point x="1405.6643613707163" y="936.0"/>
      <point x="1720.5093457943926" y="675.44"/>
      <point x="1720.5093457943926" y="474.0" type="qcurve" smooth="yes"/>
      <point x="1720.5093457943926" y="442.0" type="line" smooth="yes"/>
      <point x="1720.5093457943926" y="233.76"/>
      <point x="1405.6643613707163" y="-20.0"/>
    </contour>
  </outline>
</glyph>
<glyph name="idotless" format="2">
  <advance width="956.3084112149533"/>
  <unicode hex="0131"/>
  <anchor x="486.7336448598131" y="916.0" name="top"/>
  <anchor x="486.7336448598131" y="0.0" name="bottom"/>
  <anchor x="337.92056074766356" y="0.0" name="ogonek"/>
  <anchor x="479.747476635514" y="471.96" name="yu_dash"/>
  <outline>
    <contour>
      <point x="194.5" y="0.0" type="line"/>
      <point x="194.5" y="916.0" type="line"/>
      <point x="761.8084112149533" y="916.0" type="line"/>
      <point x="761.8084112149533" y="0.0" type="line"/>
    </contour>
  </outline>
</glyph>
<glyph name="kgreenlandic" format="2">
  <advance width="1748.2834890965732"/>
  <unicode hex="0138"/>
  <outline>
    <contour>
      <point x="758.8084112149533" y="916.0" type="line"/>
      <point x="758.8084112149533" y="0.0" type="line"/>
      <point x="192.5" y="0.0" type="line"/>
      <point x="192.5" y="916.0" type="line"/>
    </contour>
    <contour>
      <point x="1534.6665969219325" y="916.0" type="line"/>
      <point x="1143.333263588599" y="394.0" type="line"/>
      <point x="478.1542056074766" y="394.0" type="line"/>
      <point x="478.1542056074766" y="785.7014925373135" type="line"/>
      <point x="934.1063979169573" y="785.7014925373135" type="line"/>
      <point x="981.5955521458131" y="916.0" type="line"/>
    </contour>
    <contour>
      <point x="1111.4750778816199" y="0.0" type="line"/>
      <point x="840.2408099688473" y="404.71401869158876" type="line"/>
      <point x="1231.7424922118378" y="646.9865420560748" type="line"/>
      <point x="1726.7834890965732" y="0.0" type="line"/>
    </contour>
  </outline>
</glyph>
<glyph name="OE" format="2">
  <advance width="2383.520249221184"/>
  <unicode hex="0152"/>
  <outline>
    <contour>
      <point x="865.8489096573209" y="-21.0" type="qcurve" smooth="yes"/>
      <point x="564.6090342679128" y="-21.0"/>
      <point x="152.5" y="353.3457943925234"/>
      <point x="152.5" y="707.7383177570093" type="qcurve" smooth="yes"/>
      <point x="152.5" y="733.8691588785047" type="line" smooth="yes"/>
      <point x="152.5" y="1084.981308411215"/>
      <point x="560.702492211838" y="1477.0"/>
      <point x="911.5342679127726" y="1477.0" type="qcurve" smooth="yes"/>
      <point x="960.7398753894082" y="1477.0"/>
      <point x="1151.095015576324" y="1464.0"/>
      <point x="1234.1728971962616" y="1456.0" type="qcurve"/>
      <point x="2270.020249221184" y="1456.0" type="line"/>
      <point x="2270.020249221184" y="956.8507462686567" type="line"/>
      <point x="1748.4709331845445" y="956.8507462686567" type="line"/>
      <point x="1748.4709331845445" y="489.5592662853954" type="line"/>
      <point x="2278.020249221184" y="489.5592662853954" type="line"/>
      <point x="2278.020249221184" y="0.0" type="line"/>
      <point x="1234.1728971962616" y="0.0" type="line"/>
      <point x="1151.4283489096574" y="-7.0"/>
      <point x="963.0264797507789" y="-21.0"/>
    </contour>
    <contour>
      <point x="1038.8395638629283" y="505.7313432835821" type="qcurve" smooth="yes"/>
      <point x="1075.1728971962616" y="505.7313432835821"/>
      <point x="1130.1728971962616" y="508.7761194029851"/>
      <point x="1156.1728971962616" y="511.3731343283582" type="qcurve"/>
      <point x="1156.1728971962616" y="945.0298507462687" type="line"/>
      <point x="1120.5062305295949" y="947.776119402985"/>
      <point x="1055.8395638629283" y="950.6716417910447"/>
      <point x="1040.1728971962616" y="950.6716417910447" type="qcurve" smooth="yes"/>
      <point x="917.506230529595" y="950.6716417910447"/>
      <point x="762.1728971962616" y="841.1343283582089"/>
      <point x="762.1728971962616" y="745.9253731343283" type="qcurve" smooth="yes"/>
      <point x="762.1728971962616" y="711.776119402985" type="line" smooth="yes"/>
      <point x="762.1728971962616" y="613.6716417910447"/>
      <point x="919.1728971962616" y="505.7313432835821"/>
    </contour>
    <contour>
      <point x="1453.517662156507" y="505.8188431673409" type="line"/>
      <point x="1453.517662156507" y="983.1343283582089" type="line"/>
      <point x="2195.353582554517" y="983.1343283582089" type="line"/>
      <point x="2195.353582554517" y="505.8188431673409" type="line"/>
    </contour>
  </outline>
</glyph>
<glyph name="florin" format="2">
  <advance width="1279.9750778816199"/>
  <unicode hex="0192"/>
  <outline>
    <contour>
      <point x="1091.1417445482864" y="967.0746268656717" type="line"/>
      <point x="1091.1417445482864" y="484.77611940298505" type="line"/>
      <point x="135.5" y="484.77611940298505" type="line"/>
      <point x="135.5" y="967.0746268656717" type="line"/>
    </contour>
    <contour>
      <point x="872.4750778816199" y="111.0" type="line" smooth="yes"/>
      <point x="872.4750778816199" y="-173.0"/>
      <point x="613.8146417445483" y="-437.0"/>
      <point x="316.86760124610595" y="-437.0" type="qcurve" smooth="yes"/>
      <point x="177.09501557632402" y="-437.0"/>
      <point x="53.073208722741434" y="-428.0934579439252"/>
      <point x="28.5" y="-420.0" type="qcurve"/>
      <point x="42.5" y="37.82089552238807" type="line"/>
      <point x="54.16666666666667" y="31.82089552238807"/>
      <point x="104.5" y="24.82089552238807"/>
      <point x="116.16666666666667" y="24.82089552238807" type="qcurve" smooth="yes"/>
      <point x="202.83333333333334" y="24.82089552238807"/>
      <point x="306.1666666666667" y="57.50746268656718"/>
      <point x="306.1666666666667" y="111.0" type="qcurve" smooth="yes"/>
      <point x="306.1666666666667" y="1025.9065420560748" type="line" smooth="yes"/>
      <point x="306.1666666666667" y="1262.8691588785048"/>
      <point x="517.3629283489097" y="1487.0"/>
      <point x="797.3535825545171" y="1487.0" type="qcurve" smooth="yes"/>
      <point x="956.1479750778817" y="1487.0"/>
      <point x="1139.842679127726" y="1444.4859813084113"/>
      <point x="1181.4750778816199" y="1404.0" type="qcurve"/>
      <point x="1060.4900032547541" y="991.0149253731342" type="line"/>
      <point x="1053.7238341005252" y="1002.4477611940299"/>
      <point x="1016.4750778816199" y="1012.0298507462687"/>
      <point x="982.4750778816199" y="1012.0298507462687" type="qcurve" smooth="yes"/>
      <point x="932.1417445482866" y="1012.0298507462687"/>
      <point x="872.4750778816199" y="981.5373134328358"/>
      <point x="872.4750778816199" y="897.9062630771376" type="qcurve" smooth="yes"/>
    </contour>
  </outline>
</glyph>
<glyph name="schwa" format="2">
  <advance width="1759.3364485981308"/>
  <unicode hex="0259"/>
  <outline>
    <contour>
      <point x="1641.0871948667875" y="459.70093457943926" type="qcurve" smooth="yes"/>
      <point x="1641.0871948667875" y="447.7196261682243" type="line" smooth="yes"/>
      <point x="1641.0871948667875" y="237.18654205607479"/>
      <point x="1225.781400474264" y="-30.0"/>
      <point x="858.8597805365695" y="-30.0" type="qcurve" smooth="yes"/>
      <point x="497.2647649602455" y="-30.0"/>
      <point x="121.75074626865673" y="216.98149253731344"/>
      <point x="121.75074626865673" y="446.11940298507466" type="qcurve" smooth="yes"/>
      <point x="121.75074626865673" y="671.0" type="line"/>
      <point x="1140.0591574836099" y="671.0" type="line"/>
      <point x="1140.0591574836099" y="266.92537313432837" type="line"/>
      <point x="689.2418068535825" y="266.92537313432837" type="line"/>
      <point x="691.05915748361" y="407.9582089552239" type="line"/>
      <point x="689.2418068535825" y="416.78626865671646"/>
      <point x="771.0750778816199" y="407.0"/>
      <point x="863.3924908169433" y="407.0" type="qcurve" smooth="yes"/>
      <point x="960.9606500209234" y="407.0"/>
      <point x="1064.0591574836099" y="437.7271641791044"/>
      <point x="1064.0591574836099" y="452.2089552238806" type="qcurve" smooth="yes"/>
      <point x="1064.0591574836099" y="463.7910447761194" type="line" smooth="yes"/>
      <point x="1064.0591574836099" y="473.1683582089552"/>
      <point x="949.6904384618961" y="491.98507462686564"/>
      <point x="779.9442646580183" y="491.98507462686564" type="qcurve" smooth="yes"/>
      <point x="636.275459152834" y="491.98507462686564"/>
      <point x="427.32256009671266" y="429.5074626865671"/>
      <point x="361.8159343469568" y="386.5223880597015" type="qcurve"/>
      <point x="144.04358115962245" y="741.0" type="line"/>
      <point x="220.7476310038592" y="816.0"/>
      <point x="562.5295624680336" y="946.0"/>
      <point x="814.0747338075976" y="946.0" type="qcurve" smooth="yes"/>
      <point x="1221.021400474264" y="946.0"/>
      <point x="1641.0871948667875" y="679.7667289719626"/>
    </contour>
  </outline>
</glyph>
<glyph name="apostrophemod" format="2">
  <advance width="858.981308411215"/>
  <unicode hex="02BC"/>
  <outline>
    <contour>
      <point x="251.60280373831776" y="804.6168224299065" type="line"/>
      <point x="291.6028037383178" y="834.6168224299065"/>
      <point x="415.6214953271028" y="991.7009345794393"/>
      <point x="441.107476635514" y="1101.5981308411215" type="qcurve"/>
      <point x="324.35046728971963" y="1101.5981308411215"/>
      <point x="192.87383177570092" y="1225.214953271028"/>
      <point x="192.87383177570092" y="1322.3457943925234" type="qcurve" smooth="yes"/>
      <point x="192.87383177570092" y="1417.5233644859813"/>
      <point x="325.35046728971963" y="1544.0934579439252"/>
      <point x="429.3411214953271" y="1544.0934579439252" type="qcurve" smooth="yes"/>
      <point x="526.4719626168225" y="1544.0934579439252"/>
      <point x="683.481308411215" y="1386.1308411214952"/>
      <point x="683.481308411215" y="1259.5607476635514" type="qcurve" smooth="yes"/>
      <point x="683.481308411215" y="1059.392523364486"/>
      <point x="399.60280373831773" y="805.6168224299065"/>
      <point x="294.60280373831773" y="755.6168224299065" type="qcurve"/>
    </contour>
  </outline>
</glyph>
<glyph name="gravecomb" format="2">
  <unicode hex="0300"/>
  <anchor x="0.0" y="1052.0" name="_top"/>
  <anchor x="0.0" y="1816.392523364486" name="top"/>
  <outline>
    <contour>
      <point x="-23.114427860696516" y="1170.3720649090994" type="line"/>
      <point x="-333.07165109034264" y="1565.0903426791276" type="line"/>
      <point x="59.059190031152646" y="1815.2461059190032" type="line"/>
      <point x="352.4795647928581" y="1434.4925373134329" type="line"/>
    </contour>
  </outline>
</glyph>
<glyph name="tildecomb" format="2">
  <unicode hex="0303"/>
  <anchor x="0.0" y="1052.0" name="_top"/>
  <anchor x="0.0" y="1508.9252336448599" name="top"/>
  <outline>
    <contour>
      <point x="-333.32835820895525" y="1359.078532570791" type="line"/>
      <point x="-291.374017761659" y="1437.0952713070164"/>
      <point x="-177.42786069651743" y="1516.2457804435765"/>
      <point x="-119.62189054726369" y="1516.2457804435765" type="qcurve" smooth="yes"/>
      <point x="-62.8006230529595" y="1516.2457804435765"/>
      <point x="5.755893430046033" y="1468.0920630492399"/>
      <point x="35.91900311526479" y="1452.0654205607477" type="qcurve" smooth="yes"/>
      <point x="62.9190031152648" y="1436.9829822848376"/>
      <point x="106.05295950155764" y="1414.5195982703306"/>
      <point x="136.48881759427164" y="1414.5195982703306" type="qcurve" smooth="yes"/>
      <point x="160.6318407960199" y="1414.5195982703306"/>
      <point x="215.5502859534105" y="1441.4431580415678"/>
      <point x="233.03287301808712" y="1476.4179104477612" type="qcurve"/>
      <point x="333.32835820895525" y="1325.6716417910447" type="line"/>
      <point x="285.6215185753476" y="1247.619193750872"/>
      <point x="181.8365183428651" y="1175.9878644162366"/>
      <point x="125.28855721393036" y="1175.9878644162366" type="qcurve" smooth="yes"/>
      <point x="67.94080996884736" y="1175.9878644162366"/>
      <point x="5.577997861161482" y="1220.8243827591018"/>
      <point x="-25.822150927604966" y="1234.1118705537733" type="qcurve" smooth="yes"/>
      <point x="-52.6352350397545" y="1245.6978658111311"/>
      <point x="-113.49221183800623" y="1280.4804017296694"/>
      <point x="-140.42256009671271" y="1280.4804017296694" type="qcurve" smooth="yes"/>
      <point x="-163.54266052913005" y="1280.4804017296694"/>
      <point x="-205.87064676616916" y="1254.8468405635376"/>
      <point x="-223.318407960199" y="1211.134328358209" type="qcurve"/>
    </contour>
  </outline>
</glyph>
<glyph name="dieresiscomb" format="2">
  <unicode hex="0308"/>
  <anchor x="0.0" y="1052.0" name="_GRK_top"/>
  <anchor x="0.0" y="1052.0" name="_top"/>
  <anchor x="0.0" y="1533.9532710280373" name="top"/>
  <outline>
    <contour>
      <point x="-349.0623052959501" y="1382.2897196261683" type="qcurve" smooth="yes"/>
      <point x="-349.0623052959501" y="1447.454828660436"/>
      <point x="-268.13084112149534" y="1538.4859813084113"/>
      <point x="-189.86604361370718" y="1538.4859813084113" type="qcurve" smooth="yes"/>
      <point x="-110.93457943925233" y="1538.4859813084113"/>
      <point x="-27.76323987538941" y="1447.454828660436"/>
      <point x="-27.76323987538941" y="1382.2897196261683" type="qcurve" smooth="yes"/>
      <point x="-27.76323987538941" y="1318.7445482866042"/>
      <point x="-110.93457943925233" y="1229.3333333333333"/>
      <point x="-189.86604361370718" y="1229.3333333333333" type="qcurve" smooth="yes"/>
      <point x="-268.13084112149534" y="1229.3333333333333"/>
      <point x="-349.0623052959501" y="1318.7445482866042"/>
    </contour>
    <contour>
      <point x="27.429906542056074" y="1382.2897196261683" type="qcurve" smooth="yes"/>
      <point x="27.429906542056074" y="1447.454828660436"/>
      <point x="108.64797507788164" y="1538.4859813084113"/>
      <point x="188.53271028037383" y="1538.4859813084113" type="qcurve" smooth="yes"/>
      <point x="266.797507788162" y="1538.4859813084113"/>
      <point x="348.7289719626168" y="1447.454828660436"/>
      <point x="348.7289719626168" y="1382.2897196261683" type="qcurve" smooth="yes"/>
      <point x="348.7289719626168" y="1318.7445482866042"/>
      <point x="266.797507788162" y="1229.3333333333333"/>
      <point x="188.53271028037383" y="1229.3333333333333" type="qcurve" smooth="yes"/>
      <point x="108.64797507788164" y="1229.3333333333333"/>
      <point x="27.429906542056074" y="1318.7445482866042"/>
    </contour>
  </outline>
</glyph>
<glyph name="hookabovecomb" format="2">
  <unicode hex="0309"/>
  <anchor x="0.0" y="1052.0" name="_top"/>
  <anchor x="0.0" y="1738.7102803738317" name="top"/>
  <outline>
    <contour>
      <point x="-70.0" y="1220.0" type="line"/>
      <point x="-70.0" y="1259.0" type="line" smooth="yes"/>
      <point x="-70.0" y="1311.0"/>
      <point x="-18.433021806853585" y="1378.1401869158879"/>
      <point x="35.333333333333336" y="1392.0" type="qcurve" smooth="yes"/>
      <point x="53.45482866043614" y="1396.8535825545173"/>
      <point x="71.202492211838" y="1422.4672897196263"/>
      <point x="71.202492211838" y="1447.2616822429907" type="qcurve" smooth="yes"/>
      <point x="71.202492211838" y="1466.2429906542056"/>
      <point x="30.887850467289724" y="1500.3364485981308"/>
      <point x="3.333333333333334" y="1500.3364485981308" type="qcurve" smooth="yes"/>
      <point x="-49.0" y="1500.3364485981308"/>
      <point x="-128.66666666666666" y="1466.3364485981308"/>
      <point x="-147.33333333333334" y="1451.3364485981308" type="qcurve"/>
      <point x="-245.80996884735205" y="1656.785046728972" type="line"/>
      <point x="-190.0373831775701" y="1692.271028037383"/>
      <point x="-66.73208722741434" y="1739.6635514018692"/>
      <point x="30.333333333333336" y="1739.6635514018692" type="qcurve" smooth="yes"/>
      <point x="139.66666666666666" y="1739.6635514018692"/>
      <point x="316.3302180685358" y="1625.6635514018692"/>
      <point x="316.3302180685358" y="1482.0" type="qcurve" smooth="yes"/>
      <point x="316.3302180685358" y="1381.0"/>
      <point x="158.66666666666666" y="1261.0"/>
      <point x="70.0" y="1251.0" type="qcurve"/>
      <point x="70.0" y="1220.0" type="line"/>
    </contour>
  </outline>
</glyph>
<glyph name="ringcomb" format="2">
  <unicode hex="030A"/>
  <anchor x="0.0" y="1052.0" name="_top"/>
  <anchor x="0.0" y="1721.4610591900312" name="top"/>
  <outline>
    <contour>
      <point x="-255.13707165109034" y="1470.943925233645" type="qcurve"/>
      <point x="-255.13707165109034" y="1574.0093457943926"/>
      <point x="-108.398753894081" y="1717.7943925233644"/>
      <point x="0.0" y="1717.7943925233644" type="qcurve" smooth="yes"/>
      <point x="106.398753894081" y="1717.7943925233644"/>
      <point x="255.13707165109034" y="1574.0093457943926"/>
      <point x="255.13707165109034" y="1470.943925233645" type="qcurve" smooth="yes"/>
      <point x="255.13707165109034" y="1369.1183800623053"/>
      <point x="106.398753894081" y="1230.0"/>
      <point x="0.0" y="1230.0" type="qcurve" smooth="yes"/>
      <point x="-108.398753894081" y="1230.0"/>
      <point x="-255.13707165109034" y="1369.1183800623053"/>
    </contour>
    <contour>
      <point x="-87.98130841121495" y="1471.8971962616822" type="qcurve"/>
      <point x="-87.98130841121495" y="1438.8566978193146"/>
      <point x="-38.753894080996886" y="1384.9158878504672"/>
      <point x="0.0" y="1384.9158878504672" type="qcurve" smooth="yes"/>
      <point x="38.753894080996886" y="1384.9158878504672"/>
      <point x="87.98130841121495" y="1437.809968847352"/>
      <point x="87.98130841121495" y="1471.8971962616822" type="qcurve" smooth="yes"/>
      <point x="87.98130841121495" y="1507.271028037383"/>
      <point x="38.753894080996886" y="1561.8785046728972"/>
      <point x="0.0" y="1561.8785046728972" type="qcurve" smooth="yes"/>
      <point x="-38.753894080996886" y="1561.8785046728972"/>
      <point x="-87.98130841121495" y="1507.271028037383"/>
    </contour>
  </outline>
</glyph>
<glyph name="hungarumlautcomb" format="2">
  <unicode hex="030B"/>
  <anchor x="0.0" y="1052.0" name="_top"/>
  <anchor x="0.0" y="1665.8411214953271" name="top"/>
  <outline>
    <contour>
      <point x="-228.94704049844236" y="1270.760124610592" type="line"/>
      <point x="-70.4454828660436" y="1670.9345794392523" type="line"/>
      <point x="162.4890965732087" y="1523.252336448598" type="line"/>
      <point x="-125.66666666666667" y="1217.6666666666667" type="line"/>
    </contour>
    <contour>
      <point x="44.85981308411215" y="1273.619937694704" type="line"/>
      <point x="221.4735202492212" y="1661.4018691588785" type="line"/>
      <point x="459.17445482866043" y="1508.9532710280373" type="line"/>
      <point x="151.0" y="1220.526479750779" type="line"/>
    </contour>
  </outline>
</glyph>
<glyph name="breveinvertedcomb" format="2">
  <unicode hex="030F"/>
  <anchor x="0.0" y="1052.0" name="_top"/>
  <anchor x="0.0" y="1580.9906542056074" name="top"/>
  <outline>
    <contour>
      <point x="-190.85981308411215" y="1220.9532710280373" type="qcurve"/>
      <point x="-272.9065420560748" y="1272.0934579439252" type="line"/>
      <point x="-240.2866043613707" y="1397.8785046728972"/>
      <point x="-102.2866043613707" y="1580.03738317757"/>
      <point x="0.3333333333333333" y="1580.9906542056074" type="qcurve" smooth="yes"/>
      <point x="100.95327102803738" y="1581.943925233645"/>
      <point x="240.57320872274147" y="1401.2585669781931"/>
      <point x="270.38006230529595" y="1274.5732087227416" type="qcurve"/>
      <point x="191.52647975077883" y="1220.9532710280373" type="line"/>
      <point x="162.52647975077883" y="1260.7943925233644"/>
      <point x="68.76635514018692" y="1327.3831775700935"/>
      <point x="0.3333333333333333" y="1328.3364485981308" type="qcurve" smooth="yes"/>
      <point x="-64.33333333333333" y="1327.3831775700935"/>
      <point x="-162.81308411214954" y="1259.0747663551401"/>
    </contour>
  </outline>
</glyph>
<glyph name="commaaccentcomb" format="2">
  <unicode hex="0326"/>
  <anchor x="0.0" y="0.0" name="_bottom"/>
  <anchor x="0.0" y="-600.0" name="bottom"/>
  <outline>
    <contour>
      <point x="-160.81308411214954" y="-597.0" type="line"/>
      <point x="-135.7289719626168" y="-172.57009345794393" type="line"/>
      <point x="218.79439252336448" y="-170.57009345794393" type="line"/>
      <point x="7.906542056074766" y="-600.0" type="line"/>
    </contour>
  </outline>
</glyph>
<glyph name="ogonekcomb" format="2">
  <unicode hex="0328"/>
  <anchor x="88.0" y="0.0" name="_ogonek"/>
  <anchor x="21.0" y="-434.0" name="bottom"/>
  <outline>
    <contour>
      <point x="4.0" y="57.0" type="qcurve"/>
      <point x="88.0" y="0.0" type="line"/>
      <point x="41.666666666666664" y="-42.0"/>
      <point x="-13.333333333333336" y="-144.0"/>
      <point x="-13.333333333333336" y="-203.0" type="qcurve" smooth="yes"/>
      <point x="-13.333333333333336" y="-252.0"/>
      <point x="32.33333333333333" y="-295.6666666666667"/>
      <point x="61.0" y="-295.0" type="qcurve" smooth="yes"/>
      <point x="85.0" y="-294.3333333333333"/>
      <point x="128.33333333333334" y="-276.0"/>
      <point x="140.0" y="-268.0" type="qcurve"/>
      <point x="175.0" y="-390.0" type="line"/>
      <point x="152.0" y="-405.0"/>
      <point x="80.0" y="-434.0"/>
      <point x="-37.62928348909657" y="-434.0" type="qcurve" smooth="yes"/>
      <point x="-170.7133956386293" y="-434.0"/>
      <point x="-315.3239875389408" y="-310.0"/>
      <point x="-315.3239875389408" y="-230.0" type="qcurve" smooth="yes"/>
      <point x="-315.3239875389408" y="-114.58878504672897"/>
      <point x="-172.93457943925233" y="14.205607476635514"/>
    </contour>
  </outline>
</glyph>
<glyph name="numeralsign" format="2">
  <advance width="649.0"/>
  <unicode hex="0374"/>
  <outline>
    <contour>
      <point x="270.5" y="1073.0" type="line"/>
      <point x="147.5" y="1103.0" type="line"/>
      <point x="236.5" y="1556.0" type="line"/>
      <point x="421.5" y="1537.0" type="line"/>
    </contour>
  </outline>
</glyph>
<glyph name="Gamma" format="2">
  <advance width="1359.5202492211838"/>
  <unicode hex="0393"/>
  <anchor x="774.8395638629283" y="1456.0" name="top"/>
  <anchor x="586.3317757009346" y="708.0" name="center"/>
  <outline>
    <contour>
      <point x="207.5" y="0.0" type="line"/>
      <point x="207.5" y="1456.0" type="line"/>
      <point x="1297.0202492211838" y="1456.0" type="line"/>
      <point x="1297.0202492211838" y="956.0" type="line"/>
      <point x="808.4532710280373" y="956.0" type="line"/>
      <point x="808.4532710280373" y="0.0" type="line"/>
    </contour>
  </outline>
</glyph>
<glyph name="Delta" format="2">
  <advance width="1558.03738317757"/>
  <unicode hex="0394"/>
  <outline>
    <contour>
      <point x="66.5" y="0.0" type="line"/>
      <point x="66.5" y="107.0" type="line"/>
      <point x="469.1666666666667" y="1466.0" type="line"/>
      <point x="1089.2040498442368" y="1466.0" type="line"/>
      <point x="1492.53738317757" y="107.0" type="line"/>
      <point x="1492.53738317757" y="0.0" type="line"/>
    </contour>
    <contour>
      <point x="641.4353233830846" y="526.3731343283582" type="line"/>
      <point x="684.9427860696518" y="526.3731343283582" type="line"/>
      <point x="696.9825870646766" y="800.5373134328358" type="line" smooth="yes"/>
      <point x="689.1666666666667" y="831.8358208955224"/>
      <point x="671.544776119403" y="895.5373134328358"/>
      <point x="666.8781094527363" y="928.5373134328358" type="qcurve"/>
      <point x="656.8781094527363" y="928.5373134328358" type="line"/>
      <point x="652.2114427860697" y="895.5373134328358"/>
      <point x="640.7288557213931" y="842.8955223880597"/>
      <point x="628.4751243781095" y="800.5373134328358" type="qcurve" smooth="yes"/>
    </contour>
  </outline>
</glyph>
<glyph name="Theta" format="2">
  <advance width="2115.6043613707166"/>
  <unicode hex="0398"/>
  <outline>
    <contour>
      <point x="1058.278816199377" y="-30.0" type="qcurve" smooth="yes"/>
      <point x="614.272585669782" y="-30.0"/>
      <point x="152.5" y="361.25233644859816"/>
      <point x="152.5" y="710.5981308411215" type="qcurve" smooth="yes"/>
      <point x="152.5" y="740.6355140186915" type="line" smooth="yes"/>
      <point x="152.5" y="1092.8411214953271"/>
      <point x="603.7866043613708" y="1486.0"/>
      <point x="1058.278816199377" y="1486.0" type="qcurve" smooth="yes"/>
      <point x="1512.771028037383" y="1486.0"/>
      <point x="1963.1043613707166" y="1092.8411214953271"/>
      <point x="1963.1043613707166" y="740.6355140186915" type="qcurve" smooth="yes"/>
      <point x="1963.1043613707166" y="710.5981308411215" type="line" smooth="yes"/>
      <point x="1963.1043613707166" y="361.25233644859816"/>
      <point x="1502.2850467289718" y="-30.0"/>
    </contour>
    <contour>
      <point x="1058.278816199377" y="506.6268656716418" type="qcurve" smooth="yes"/>
      <point x="1204.771028037383" y="506.6268656716418"/>
      <point x="1343.9454828660437" y="614.0149253731344"/>
      <point x="1343.9454828660437" y="709.223880597015" type="qcurve" smooth="yes"/>
      <point x="1343.9454828660437" y="743.3731343283582" type="line" smooth="yes"/>
      <point x="1343.9454828660437" y="838.5820895522388"/>
      <point x="1204.771028037383" y="949.3731343283582"/>
      <point x="1058.278816199377" y="949.3731343283582" type="qcurve" smooth="yes"/>
      <point x="911.4532710280373" y="949.3731343283582"/>
      <point x="772.6121495327103" y="838.5820895522388"/>
      <point x="772.6121495327103" y="743.3731343283582" type="qcurve" smooth="yes"/>
      <point x="772.6121495327103" y="709.223880597015" type="line" smooth="yes"/>
      <point x="772.6121495327103" y="614.0149253731344"/>
      <point x="911.4532710280373" y="506.6268656716418"/>
    </contour>
    <contour>
      <point x="880.6121495327103" y="488.85074626865674" type="line"/>
      <point x="880.6121495327103" y="997.1492537313433" type="line"/>
      <point x="1235.9454828660434" y="997.1492537313433" type="line"/>
      <point x="1235.9454828660434" y="488.85074626865674" type="line"/>
    </contour>
  </outline>
</glyph>
<glyph name="Lambda" format="2">
  <advance width="1482.7445482866046"/>
  <unicode hex="039B"/>
  <outline>
    <contour>
      <point x="37.5" y="0.0" type="line"/>
      <point x="434.83333333333337" y="1466.0" type="line"/>
      <point x="1047.2445482866046" y="1466.0" type="line"/>
      <point x="1445.2445482866046" y="0.0" type="line"/>
      <point x="804.8333333333334" y="0.0" type="line"/>
      <point x="548.8333333333334" y="1100.0" type="line" smooth="yes"/>
      <point x="541.5" y="1133.6666666666667"/>
      <point x="528.5" y="1195.0"/>
      <point x="523.8333333333334" y="1228.0" type="qcurve"/>
      <point x="513.8333333333334" y="1228.0" type="line"/>
      <point x="509.1666666666667" y="1195.0"/>
      <point x="496.83333333333337" y="1133.6666666666667"/>
      <point x="488.83333333333337" y="1100.0" type="qcurve" smooth="yes"/>
      <point x="229.5" y="0.0" type="line"/>
    </contour>
  </outline>
</glyph>
<glyph name="Xi" format="2">
  <advance width="988.0"/>
  <unicode hex="039E"/>
  <outline>
    <contour>
      <point x="105.5" y="0.0" type="line"/>
      <point x="105.5" y="501.2835820895522" type="line"/>
      <point x="882.5" y="501.2835820895522" type="line"/>
      <point x="882.5" y="0.0" type="line"/>
    </contour>
    <contour>
      <point x="207.5" y="491.85074626865674" type="line"/>
      <point x="207.5" y="993.1343283582089" type="line"/>
      <point x="780.5" y="993.1343283582089" type="line"/>
      <point x="780.5" y="491.85074626865674" type="line"/>
    </contour>
    <contour>
      <point x="105.5" y="953.0149253731342" type="line"/>
      <point x="105.5" y="1456.0" type="line"/>
      <point x="882.5" y="1456.0" type="line"/>
      <point x="882.5" y="953.0149253731342" type="line"/>
    </contour>
  </outline>
</glyph>
<glyph name="Psi" format="2">
  <advance width="2676.2429906542056"/>
  <unicode hex="03A8"/>
  <outline>
    <contour>
      <point x="1048.2943925233644" y="0.0" type="line"/>
      <point x="1048.2943925233644" y="1456.0" type="line"/>
      <point x="1627.9485981308412" y="1456.0" type="line"/>
      <point x="1627.9485981308412" y="0.0" type="line"/>
    </contour>
    <contour>
      <point x="972.9205607476636" y="185.7462686567164" type="line" smooth="yes"/>
      <point x="592.0358255451713" y="185.7462686567164"/>
      <point x="192.5" y="511.64179104477614"/>
      <point x="192.5" y="859.9402985074627" type="qcurve" smooth="yes"/>
      <point x="192.5" y="1456.0" type="line"/>
      <point x="775.3411214953271" y="1456.0" type="line"/>
      <point x="775.3411214953271" y="960.0298507462686" type="line" smooth="yes"/>
      <point x="775.3411214953271" y="816.4925373134329"/>
      <point x="871.7429906542056" y="689.1492537313433"/>
      <point x="1066.3411214953271" y="689.1492537313433" type="qcurve" smooth="yes"/>
      <point x="1612.9018691588785" y="689.1492537313433" type="line" smooth="yes"/>
      <point x="1805.8333333333333" y="689.1492537313433"/>
      <point x="1902.2352024922118" y="816.4925373134329"/>
      <point x="1900.9018691588785" y="960.0298507462686" type="qcurve" smooth="yes"/>
      <point x="1900.9018691588785" y="1456.0" type="line"/>
      <point x="2483.7429906542056" y="1456.0" type="line"/>
      <point x="2483.7429906542056" y="859.9402985074627" type="line" smooth="yes"/>
      <point x="2483.7429906542056" y="511.64179104477614"/>
      <point x="2083.2538940809964" y="185.7462686567164"/>
      <point x="1702.3691588785045" y="185.7462686567164" type="qcurve" smooth="yes"/>
    </contour>
  </outline>
</glyph>
<glyph name="alpha" format="2">
  <advance width="1869.2492211838005"/>
  <unicode hex="03B1"/>
  <anchor x="913.7398753894082" y="916.0" name="top"/>
  <outline>
    <contour>
      <point x="707.2445482866044" y="-20.0" type="qcurve" smooth="yes"/>
      <point x="431.4982554517134" y="-20.0"/>
      <point x="122.5" y="240.56"/>
      <point x="122.5" y="442.0" type="qcurve" smooth="yes"/>
      <point x="122.5" y="474.0" type="line" smooth="yes"/>
      <point x="122.5" y="675.44"/>
      <point x="438.29825545171343" y="936.0"/>
      <point x="707.2445482866044" y="936.0" type="qcurve" smooth="yes"/>
      <point x="975.8039252336449" y="936.0"/>
      <point x="1266.929906542056" y="668.2933333333334"/>
      <point x="1266.929906542056" y="470.66666666666663" type="qcurve" smooth="yes"/>
      <point x="1266.929906542056" y="442.0" type="line" smooth="yes"/>
      <point x="1266.929906542056" y="234.17333333333332"/>
      <point x="968.4175077881621" y="-20.0"/>
    </contour>
    <contour>
      <point x="909.727414330218" y="436.5671641791045" type="qcurve" smooth="yes"/>
      <point x="1010.6740809968848" y="436.5671641791045"/>
      <point x="1134.1542056074766" y="436.945671641791"/>
      <point x="1134.1542056074766" y="457.1641791044776" type="qcurve" smooth="yes"/>
      <point x="1134.1542056074766" y="463.8955223880597" type="line" smooth="yes"/>
      <point x="1134.1542056074766" y="461.66686567164174"/>
      <point x="1011.4541433021807" y="476.0298507462687"/>
      <point x="910.3940809968848" y="476.0298507462687" type="qcurve" smooth="yes"/>
      <point x="818.747476635514" y="476.0298507462687"/>
      <point x="708.107476635514" y="468.80835820895527"/>
      <point x="708.107476635514" y="459.53731343283584" type="qcurve" smooth="yes"/>
      <point x="708.107476635514" y="453.05970149253733" type="line" smooth="yes"/>
      <point x="708.107476635514" y="443.7886567164179"/>
      <point x="811.947476635514" y="436.5671641791045"/>
    </contour>
    <contour>
      <point x="1436.9454828660434" y="-30.0" type="qcurve" smooth="yes"/>
      <point x="1279.070093457944" y="-30.0"/>
      <point x="1117.3411214953271" y="78.73831775700934"/>
      <point x="1110.0140186915887" y="181.52897196261682" type="qcurve"/>
      <point x="1096.7340186915887" y="181.52897196261682" type="line"/>
      <point x="1096.7340186915887" y="801.6666666666666" type="line"/>
      <point x="1105.6140186915886" y="801.6666666666666" type="line"/>
      <point x="1113.6140186915886" y="916.0" type="line"/>
      <point x="1661.322429906542" y="916.0" type="line"/>
      <point x="1661.322429906542" y="602.2985074626865" type="line" smooth="yes"/>
      <point x="1661.322429906542" y="539.6910308271725"/>
      <point x="1693.322429906542" y="470.2985074626866"/>
      <point x="1731.322429906542" y="470.2985074626866" type="qcurve"/>
      <point x="1743.322429906542" y="470.2985074626866"/>
      <point x="1771.322429906542" y="477.2985074626866"/>
      <point x="1783.6557632398753" y="484.2985074626866" type="qcurve"/>
      <point x="1783.6557632398753" y="-8.0" type="line"/>
      <point x="1758.5031152647975" y="-14.14018691588785"/>
      <point x="1612.2227414330218" y="-30.0"/>
    </contour>
  </outline>
</glyph>
<glyph name="beta" format="2">
  <advance width="1854.1028037383178"/>
  <unicode hex="03B2"/>
  <outline>
    <contour>
      <point x="185.5" y="-416.0" type="line"/>
      <point x="185.5" y="871.1588785046729" type="line" smooth="yes"/>
      <point x="185.5" y="1238.5514018691588"/>
      <point x="573.961059190031" y="1556.0"/>
      <point x="983.6183800623054" y="1556.0" type="qcurve" smooth="yes"/>
      <point x="1377.303738317757" y="1556.0"/>
      <point x="1666.2694704049845" y="1350.0"/>
      <point x="1666.2694704049845" y="1155.0" type="qcurve"/>
      <point x="1666.2694704049845" y="1026.0"/>
      <point x="1509.4719626168226" y="820.92"/>
      <point x="1412.1386292834893" y="795.92" type="qcurve"/>
      <point x="1412.1386292834893" y="811.92" type="line"/>
      <point x="1551.8052959501558" y="791.92"/>
      <point x="1731.6028037383178" y="591.92"/>
      <point x="1731.6028037383178" y="424.92" type="qcurve" smooth="yes"/>
      <point x="1731.6028037383178" y="204.92"/>
      <point x="1515.063862928349" y="-21.0"/>
      <point x="1222.4127725856697" y="-21.0" type="qcurve" smooth="yes"/>
      <point x="949.8894080996885" y="-21.0"/>
      <point x="601.8146417445483" y="167.01869158878503"/>
      <point x="513.8177570093458" y="275.9252336448598" type="qcurve"/>
      <point x="513.8177570093458" y="584.3879202120239" type="line"/>
      <point x="654.9454828660437" y="492.1154972799554"/>
      <point x="881.7398753894082" y="418.7014925373134"/>
      <point x="957.4750778816199" y="418.7014925373134" type="qcurve" smooth="yes"/>
      <point x="1050.8084112149531" y="418.7014925373134"/>
      <point x="1150.8084112149531" y="434.45731343283586"/>
      <point x="1150.8084112149531" y="470.7110447761194" type="qcurve" smooth="yes"/>
      <point x="1150.8084112149531" y="528.235246198912"/>
      <point x="1022.2541730599341" y="541.1158208955223"/>
      <point x="915.1417445482866" y="541.4573134328358" type="qcurve" smooth="yes"/>
      <point x="848.1417445482866" y="541.4573134328358" type="line"/>
      <point x="848.1417445482866" y="933.5767164179105" type="line"/>
      <point x="916.1417445482866" y="933.5767164179105" type="line" smooth="yes"/>
      <point x="1013.8084112149531" y="933.5767164179105"/>
      <point x="1099.4750778816199" y="997.8656716417911"/>
      <point x="1099.4750778816199" y="1034.3432835820895" type="qcurve" smooth="yes"/>
      <point x="1099.4750778816199" y="1069.9253731343283"/>
      <point x="1024.4750778816197" y="1115.597014925373"/>
      <point x="932.1417445482866" y="1115.597014925373" type="qcurve" smooth="yes"/>
      <point x="839.8084112149533" y="1115.597014925373"/>
      <point x="752.8084112149533" y="1045.4328358208954"/>
      <point x="752.8084112149533" y="973.1194029850747" type="qcurve" smooth="yes"/>
      <point x="752.8084112149533" y="-416.0" type="line"/>
    </contour>
  </outline>
</glyph>
<glyph name="gamma" format="2">
  <advance width="1223.6417445482864"/>
  <unicode hex="03B3"/>
  <outline>
    <contour>
      <point x="327.83333333333337" y="-366.0" type="line"/>
      <point x="327.83333333333337" y="51.2" type="line"/>
      <point x="37.5" y="916.0" type="line"/>
      <point x="598.8084112149533" y="916.0" type="line"/>
      <point x="776.8084112149533" y="309.2" type="line" smooth="yes"/>
      <point x="788.5150778816198" y="270.56"/>
      <point x="799.4750778816199" y="199.2"/>
      <point x="802.1417445482866" y="179.2" type="qcurve"/>
      <point x="808.1417445482866" y="179.2" type="line"/>
      <point x="810.8084112149533" y="199.2"/>
      <point x="826.2014330218068" y="268.94006230529595"/>
      <point x="833.4750778816199" y="309.2" type="qcurve" smooth="yes"/>
      <point x="1010.1417445482865" y="916.0" type="line"/>
      <point x="1186.1417445482864" y="916.0" type="line"/>
      <point x="895.1417445482866" y="51.2" type="line"/>
      <point x="895.1417445482866" y="-366.0" type="line"/>
    </contour>
  </outline>
</glyph>
<glyph name="delta" format="2">
  <advance width="1791.6168224299065"/>
  <unicode hex="03B4"/>
  <outline>
    <contour>
      <point x="888.1417445482866" y="-30.0" type="qcurve" smooth="yes"/>
      <point x="555.8317133956388" y="-30.0"/>
      <point x="122.5" y="214.0"/>
      <point x="122.5" y="405.0" type="qcurve" smooth="yes"/>
      <point x="122.5" y="435.0" type="line" smooth="yes"/>
      <point x="122.5" y="631.4"/>
      <point x="593.2872041660855" y="888.947724926768"/>
      <point x="923.4342818617195" y="921.1223880597015" type="qcurve"/>
      <point x="1073.9417445482866" y="634.444776119403" type="line"/>
      <point x="872.9417445482866" y="631.4133333333334"/>
      <point x="692.8084112149533" y="590.3331343283583"/>
      <point x="692.8084112149533" y="541.3731343283582" type="qcurve" smooth="yes"/>
      <point x="692.8084112149533" y="533.2835820895523" type="line" smooth="yes"/>
      <point x="692.8084112149533" y="494.9623880597015"/>
      <point x="802.7417445482866" y="439.79191519040313"/>
      <point x="891.2590951783139" y="435.07462686567163" type="qcurve" smooth="yes"/>
      <point x="982.3550778816199" y="433.14135583763425"/>
      <point x="1098.8084112149531" y="490.20417910447765"/>
      <point x="1098.8084112149531" y="530.5223880597015" type="qcurve" smooth="yes"/>
      <point x="1098.8084112149531" y="537.6119402985074" type="line" smooth="yes"/>
      <point x="1098.8084112149531" y="586.2608453061794"/>
      <point x="988.5955521458131" y="663.0278439577811"/>
      <point x="845.3785046728972" y="681.018691588785" type="qcurve" smooth="yes"/>
      <point x="607.0952350397546" y="730.7695987352954"/>
      <point x="252.5" y="968.9030213418887"/>
      <point x="252.5" y="1197.300655600502" type="qcurve" smooth="yes"/>
      <point x="252.5" y="1387.801701771516"/>
      <point x="554.2583800623054" y="1556.0"/>
      <point x="804.8457943925234" y="1556.0" type="qcurve" smooth="yes"/>
      <point x="965.8271028037384" y="1556.0"/>
      <point x="1166.1417445482864" y="1515.1401869158879"/>
      <point x="1213.8084112149531" y="1487.0" type="qcurve"/>
      <point x="1182.8084112149531" y="1035.2388059701493" type="line"/>
      <point x="1115.4750778816199" y="1076.2388059701493"/>
      <point x="982.7042590784396" y="1106.2388059701493"/>
      <point x="888.4501557632399" y="1106.2388059701493" type="qcurve" smooth="yes"/>
      <point x="872.5321067559398" y="1106.2388059701493"/>
      <point x="818.7616822429907" y="1084.714576649463"/>
      <point x="817.8084112149533" y="1043.1312316920073" type="qcurve" smooth="yes"/>
      <point x="816.8551401869158" y="988.2195787418049"/>
      <point x="965.4567285069978" y="915.9262230901568"/>
      <point x="976.5411958897101" y="939.2187194866787" type="qcurve" smooth="yes"/>
      <point x="1183.9595806016646" y="916.3386320732784"/>
      <point x="1669.1168224299065" y="682.420097642628"/>
      <point x="1669.1168224299065" y="461.0" type="qcurve" smooth="yes"/>
      <point x="1669.1168224299065" y="432.0" type="line" smooth="yes"/>
      <point x="1669.1168224299065" y="223.56"/>
      <point x="1233.491028037383" y="-30.0"/>
    </contour>
  </outline>
</glyph>
<glyph name="epsilon" format="2">
  <advance width="1743.9501557632398"/>
  <unicode hex="03B5"/>
  <anchor x="902.1417445482866" y="916.0" name="top"/>
  <outline>
    <contour>
      <point x="865.9361370716512" y="-30.0" type="qcurve"/>
      <point x="532.4799376947041" y="-30.0"/>
      <point x="126.96728971962617" y="116.0"/>
      <point x="126.96728971962617" y="252.0" type="qcurve" smooth="yes"/>
      <point x="126.96728971962617" y="371.0583177570093"/>
      <point x="448.9935825545171" y="453.14018691588785"/>
      <point x="670.1479750778816" y="468.0" type="qcurve"/>
      <point x="670.1479750778816" y="446.0" type="line"/>
      <point x="435.6960124610592" y="462.4534579439253"/>
      <point x="153.3006230529595" y="566.2"/>
      <point x="153.3006230529595" y="670.2056074766355" type="qcurve" smooth="yes"/>
      <point x="153.3006230529595" y="791.76"/>
      <point x="558.6526479750779" y="945.0"/>
      <point x="876.4034267912773" y="945.0" type="qcurve" smooth="yes"/>
      <point x="1240.3747384572464" y="945.0"/>
      <point x="1642.4501557632398" y="747.6730087878366"/>
      <point x="1642.4501557632398" y="511.020895522388" type="qcurve"/>
      <point x="1081.1417445482864" y="511.020895522388" type="line"/>
      <point x="1081.1417445482864" y="528.8567164179105"/>
      <point x="1000.8084112149531" y="527.7164179104477"/>
      <point x="902.1417445482866" y="527.7164179104477" type="qcurve" smooth="yes"/>
      <point x="819.5017445482866" y="527.7164179104477"/>
      <point x="733.1417445482866" y="524.3761194029851"/>
      <point x="733.1417445482866" y="527.0895522388059" type="qcurve" smooth="yes"/>
      <point x="733.1417445482866" y="527.0662686567164"/>
      <point x="794.3284112149532" y="631.9402985074627"/>
      <point x="862.1417445482866" y="631.9402985074627" type="qcurve" smooth="yes"/>
      <point x="1028.8084112149531" y="631.9402985074627" type="line"/>
      <point x="1028.8084112149531" y="302.77611940298505" type="line"/>
      <point x="859.4750778816199" y="302.77611940298505" type="line" smooth="yes"/>
      <point x="778.8484112149532" y="302.77611940298505"/>
      <point x="707.8084112149533" y="322.84"/>
      <point x="707.8084112149533" y="343.67164179104475" type="qcurve" smooth="yes"/>
      <point x="707.8084112149533" y="374.67820895522385"/>
      <point x="801.0217445482866" y="408.7014925373134"/>
      <point x="880.2289719626168" y="408.7014925373134" type="qcurve"/>
      <point x="981.4750778816198" y="408.7014925373134"/>
      <point x="1075.3706002696795" y="399.0089552238806"/>
      <point x="1080.4750778816199" y="418.5910447761194" type="qcurve"/>
      <point x="1641.7834890965732" y="418.5910447761194" type="line"/>
      <point x="1641.7834890965732" y="172.1329613614172"/>
      <point x="1245.83268238248" y="-30.0"/>
    </contour>
  </outline>
</glyph>
<glyph name="zeta" format="2">
  <advance width="1130.7414330218069"/>
  <unicode hex="03B6"/>
  <guideline x="809.0" y="291.0" angle="90.0" identifier="Hhem4nGbLg"/>
  <guideline x="856.0" y="823.0" angle="90.0" identifier="UwRnHAo0ZQ"/>
  <outline>
    <contour>
      <point x="887.076323987539" y="-348.0" type="line"/>
      <point x="905.076323987539" y="-295.0"/>
      <point x="914.4643836890316" y="-273.9666620170177"/>
      <point x="922.121100106942" y="-247.48905007671922" type="qcurve" smooth="yes"/>
      <point x="929.7778165248525" y="-231.54986748500488"/>
      <point x="877.2355279676385" y="-184.10512856279348"/>
      <point x="817.5688613009719" y="-168.8185242014228" type="qcurve" smooth="yes"/>
      <point x="642.5408239177942" y="-125.79983261263774" type="line" smooth="yes"/>
      <point x="389.8149672199749" y="-63.53503510484958"/>
      <point x="102.5" y="107.48891058725067"/>
      <point x="102.5" y="296.72436881015483" type="qcurve"/>
      <point x="102.5" y="512.6726182173246"/>
      <point x="421.7324824475752" y="753.1930999209559"/>
      <point x="666.3255451713395" y="936.0373831775701" type="qcurve" smooth="yes"/>
      <point x="667.9769144929558" y="993.3271028037384" type="line"/>
      <point x="471.73490026503" y="662.3930813223601" type="line"/>
      <point x="148.5" y="662.3930813223601" type="line"/>
      <point x="148.5" y="1536.0" type="line"/>
      <point x="1110.8084112149531" y="1536.0" type="line"/>
      <point x="1110.8084112149531" y="1379.0" type="line"/>
      <point x="871.1417445482866" y="916.0" type="line" smooth="yes"/>
      <point x="779.7487097224159" y="715.5074626865671"/>
      <point x="716.1929836797322" y="603.1572046310504"/>
      <point x="716.1929836797322" y="603.4677081880318" type="qcurve"/>
      <point x="716.1929836797322" y="592.1911005719069"/>
      <point x="818.2744920258519" y="569.5177849072395"/>
      <point x="865.152066768959" y="548.8091784070302" type="qcurve" smooth="yes"/>
      <point x="895.5332914864928" y="531.7199981401404" type="line" smooth="yes"/>
      <point x="993.1395592132794" y="496.7834193518389"/>
      <point x="1134.6744548286604" y="233.04003347747246"/>
      <point x="1134.6744548286604" y="44.01325149951179" type="qcurve" smooth="yes"/>
      <point x="1134.6744548286604" y="-109.89440647231133"/>
      <point x="1083.4096573208724" y="-278.0"/>
      <point x="1057.0763239875391" y="-348.0" type="qcurve"/>
    </contour>
  </outline>
</glyph>
<glyph name="kappa" format="2">
  <advance width="1895.4327428279166"/>
  <unicode hex="03BA"/>
  <outline>
    <contour>
      <point x="1263.6243316129633" y="0.0" type="line"/>
      <point x="948.2838341005254" y="495.77611940298505" type="line"/>
      <point x="1345.484457153485" y="714.2434091226112" type="line"/>
      <point x="1872.9327428279166" y="0.0" type="line"/>
    </contour>
    <contour>
      <point x="469.1542056074766" y="542.0" type="line"/>
      <point x="951.3168931045707" y="542.0" type="line"/>
      <point x="1167.4235597712373" y="916.0" type="line"/>
      <point x="1674.6772911145208" y="916.0" type="line"/>
      <point x="1314.3039577811876" y="397.0" type="line"/>
      <point x="469.1542056074766" y="397.0" type="line"/>
    </contour>
    <contour>
      <point x="752.8084112149533" y="916.0" type="line"/>
      <point x="752.8084112149533" y="0.0" type="line"/>
      <point x="185.5" y="0.0" type="line"/>
      <point x="185.5" y="916.0" type="line"/>
    </contour>
  </outline>
</glyph>
<glyph name="lambda" format="2">
  <advance width="1240.3084112149531"/>
  <unicode hex="03BB"/>
  <outline>
    <contour>
      <point x="37.5" y="0.0" type="line"/>
      <point x="361.06" y="1015.36" type="line"/>
      <point x="331.5" y="1110.0" type="line" smooth="yes"/>
      <point x="282.82" y="1279.32"/>
      <point x="217.5" y="1396.0"/>
      <point x="159.83333333333334" y="1396.0" type="qcurve" smooth="yes"/>
      <point x="140.5" y="1396.0"/>
      <point x="92.5" y="1389.0"/>
      <point x="73.83333333333334" y="1381.0" type="qcurve"/>
      <point x="73.83333333333334" y="1536.0" type="line"/>
      <point x="95.5" y="1546.0"/>
      <point x="180.3380062305296" y="1556.0"/>
      <point x="368.8208722741433" y="1556.0" type="qcurve" smooth="yes"/>
      <point x="547.4626168224299" y="1556.0"/>
      <point x="813.8862928348909" y="1358.5171339563863"/>
      <point x="877.4719626168225" y="1149.0467289719627" type="qcurve" smooth="yes"/>
      <point x="1202.8084112149531" y="0.0" type="line"/>
      <point x="621.5" y="0.0" type="line"/>
      <point x="470.5" y="616.6" type="line" smooth="yes"/>
      <point x="456.83333333333337" y="673.9333333333334"/>
      <point x="445.83333333333337" y="736.6"/>
      <point x="437.5" y="787.6" type="qcurve"/>
      <point x="431.5" y="787.6" type="line"/>
      <point x="423.5" y="738.6"/>
      <point x="408.5" y="659.6"/>
      <point x="397.5" y="616.6" type="qcurve" smooth="yes"/>
      <point x="237.5" y="0.0" type="line"/>
    </contour>
  </outline>
</glyph>
<glyph name="mu" format="2">
  <advance width="1851.9501557632398"/>
  <unicode hex="03BC"/>
  <outline>
    <contour>
      <point x="185.5" y="-416.0" type="line"/>
      <point x="185.5" y="916.0" type="line"/>
      <point x="752.8084112149533" y="916.0" type="line"/>
      <point x="752.8084112149533" y="-416.0" type="line"/>
    </contour>
    <contour>
      <point x="484.1542056074766" y="698.2686567164179" type="line"/>
      <point x="574.6526479750779" y="569.7266006416515"/>
      <point x="805.665109034268" y="438.2686567164179"/>
      <point x="921.8084112149533" y="438.2686567164179" type="qcurve" smooth="yes"/>
      <point x="986.8084112149531" y="438.2686567164179"/>
      <point x="1083.1417445482864" y="574.2686567164179"/>
      <point x="1082.8084112149531" y="663.2686567164179" type="qcurve" smooth="yes"/>
      <point x="1082.8084112149531" y="916.0" type="line"/>
      <point x="1650.1168224299065" y="916.0" type="line"/>
      <point x="1650.1168224299065" y="572.7611940298507" type="line" smooth="yes"/>
      <point x="1650.1168224299065" y="497.76119402985074"/>
      <point x="1682.7834890965732" y="440.76119402985074"/>
      <point x="1717.4501557632398" y="440.76119402985074" type="qcurve" smooth="yes"/>
      <point x="1732.7834890965732" y="440.76119402985074"/>
      <point x="1760.4501557632398" y="447.76119402985074"/>
      <point x="1772.4501557632398" y="454.76119402985074" type="qcurve"/>
      <point x="1772.4501557632398" y="5.0" type="line"/>
      <point x="1757.7834890965732" y="-4.0"/>
      <point x="1593.771028037383" y="-17.0"/>
      <point x="1412.3940809968847" y="-17.0" type="qcurve" smooth="yes"/>
      <point x="1234.0732087227416" y="-17.0"/>
      <point x="1111.4750778816199" y="59.0"/>
      <point x="1098.8084112149531" y="130.0" type="qcurve"/>
      <point x="1092.8084112149531" y="130.0" type="line"/>
      <point x="1067.8084112149531" y="68.0"/>
      <point x="987.5872274143302" y="-20.0"/>
      <point x="888.316199376947" y="-20.0" type="qcurve" smooth="yes"/>
      <point x="760.6931464174455" y="-20.0"/>
      <point x="550.6059190031152" y="107.20560747663552"/>
      <point x="484.1542056074766" y="194.0" type="qcurve"/>
    </contour>
  </outline>
</glyph>
<glyph name="pi" format="2">
  <advance width="1800.6168224299065"/>
  <unicode hex="03C0"/>
  <outline>
    <contour>
      <point x="37.5" y="466.2388059701493" type="line"/>
      <point x="37.5" y="916.0" type="line"/>
      <point x="1710.1168224299065" y="916.0" type="line"/>
      <point x="1710.1168224299065" y="466.2388059701493" type="line"/>
    </contour>
    <contour>
      <point x="158.16666666666669" y="0.0" type="line"/>
      <point x="158.16666666666669" y="835.0" type="line"/>
      <point x="725.4750778816199" y="835.0" type="line"/>
      <point x="725.4750778816199" y="0.0" type="line"/>
    </contour>
    <contour>
      <point x="1421.1292834890967" y="-30.0" type="qcurve" smooth="yes"/>
      <point x="1257.026479750779" y="-30.0"/>
      <point x="1021.4750778816199" y="151.58255451713396"/>
      <point x="1021.4750778816199" y="348.6728971962617" type="qcurve"/>
      <point x="1021.4750778816199" y="862.0" type="line"/>
      <point x="1588.7834890965732" y="862.0" type="line"/>
      <point x="1588.7834890965732" y="534.223880597015" type="line"/>
      <point x="1588.7834890965732" y="481.0"/>
      <point x="1618.1168224299065" y="437.97014925373134"/>
      <point x="1660.1168224299065" y="437.97014925373134" type="qcurve"/>
      <point x="1671.4501557632398" y="437.97014925373134"/>
      <point x="1702.7834890965732" y="444.4179104477612"/>
      <point x="1711.1168224299065" y="446.86567164179104" type="qcurve"/>
      <point x="1711.1168224299065" y="-8.0" type="line"/>
      <point x="1658.9859813084113" y="-20.813084112149532"/>
      <point x="1518.045171339564" y="-30.0"/>
    </contour>
  </outline>
</glyph>
<glyph name="rho" format="2">
  <advance width="1827.7570093457944"/>
  <unicode hex="03C1"/>
  <outline>
    <contour>
      <point x="182.64018691588785" y="-416.0" type="line"/>
      <point x="182.64018691588785" y="412.94392523364485" type="line" smooth="yes"/>
      <point x="182.64018691588785" y="690.226168224299"/>
      <point x="558.5618068535824" y="942.8"/>
      <point x="942.2819314641745" y="942.8" type="qcurve" smooth="yes"/>
      <point x="1315.936137071651" y="942.8"/>
      <point x="1705.2570093457944" y="685.44"/>
      <point x="1705.2570093457944" y="484.0" type="qcurve" smooth="yes"/>
      <point x="1705.2570093457944" y="452.0" type="line" smooth="yes"/>
      <point x="1705.2570093457944" y="247.84"/>
      <point x="1327.296137071651" y="-20.0"/>
      <point x="1084.8613707165107" y="-20.0" type="qcurve" smooth="yes"/>
      <point x="866.9485981308411" y="-20.0"/>
      <point x="612.8597898358673" y="158.72660064165157"/>
      <point x="535.9299065420561" y="263.0" type="qcurve"/>
      <point x="535.9299065420561" y="568.0217603570931" type="line"/>
      <point x="620.1012461059189" y="559.8748779467151"/>
      <point x="825.1168224299065" y="435.7164179104478"/>
      <point x="933.9485981308411" y="435.7164179104478" type="qcurve" smooth="yes"/>
      <point x="1030.1085981308413" y="435.7164179104478"/>
      <point x="1133.9485981308412" y="441.88119402985075"/>
      <point x="1133.9485981308412" y="454.5522388059702" type="qcurve" smooth="yes"/>
      <point x="1133.9485981308412" y="461.88059701492534" type="line" smooth="yes"/>
      <point x="1133.9485981308412" y="470.30089552238815"/>
      <point x="1033.375264797508" y="482.8298507462687"/>
      <point x="942.2819314641745" y="482.8298507462687" type="qcurve" smooth="yes"/>
      <point x="850.1085981308411" y="482.8298507462687"/>
      <point x="749.9485981308411" y="451.4955223880597"/>
      <point x="749.9485981308411" y="460.1343283582089" type="qcurve" smooth="yes"/>
      <point x="749.9485981308411" y="-416.0" type="line"/>
    </contour>
  </outline>
</glyph>
<glyph name="finalsigma" format="2">
  <advance width="1666.619937694704"/>
  <unicode hex="03C2"/>
  <outline>
    <contour>
      <point x="926.1417445482866" y="-348.0" type="line"/>
      <point x="949.9638954758916" y="-298.5055098340075"/>
      <point x="967.1417445482865" y="-258.6532291811968"/>
      <point x="967.1417445482865" y="-249.53954526433256" type="qcurve"/>
      <point x="967.1417445482865" y="-212.6589482494072"/>
      <point x="842.7157902078393" y="-172.58380992235087"/>
      <point x="738.2453852234157" y="-148.43116194727298" type="qcurve" smooth="yes"/>
      <point x="652.8684381829171" y="-128.94518063886176" type="line" smooth="yes"/>
      <point x="476.056226344911" y="-88.13209652671223"/>
      <point x="122.5" y="173.9532338308458"/>
      <point x="122.5" y="437.0" type="qcurve" smooth="yes"/>
      <point x="122.5" y="474.0" type="line" smooth="yes"/>
      <point x="122.5" y="691.76"/>
      <point x="535.0327102803739" y="946.0"/>
      <point x="902.8084112149533" y="946.0" type="qcurve" smooth="yes"/>
      <point x="1270.5549551308877" y="946.0"/>
      <point x="1580.119937694704" y="696.7659701492538"/>
      <point x="1580.119937694704" y="472.63283582089554" type="qcurve" smooth="yes"/>
      <point x="1580.119937694704" y="465.93134328358207" type="line"/>
      <point x="1066.4750778816199" y="467.63283582089554" type="line"/>
      <point x="1066.4750778816199" y="468.37910447761186" type="line" smooth="yes"/>
      <point x="1066.4750778816199" y="474.9456716417911"/>
      <point x="966.6823052959503" y="475.07267401311196"/>
      <point x="894.2289719626168" y="475.07267401311196" type="qcurve"/>
      <point x="792.8823052959502" y="475.07267401311196"/>
      <point x="693.8084112149533" y="500.03258473985204"/>
      <point x="693.8084112149533" y="531.6635514018692" type="qcurve" smooth="yes"/>
      <point x="693.8084112149533" y="492.6635514018692" type="line" smooth="yes"/>
      <point x="693.8084112149533" y="518.2419026363509"/>
      <point x="796.3339833542568" y="514.1233644859814"/>
      <point x="890.1417445482866" y="484.7173943367276" type="qcurve" smooth="yes"/>
      <point x="928.1417445482866" y="473.49848886409075" type="line" smooth="yes"/>
      <point x="1049.5994559910725" y="439.57809085414056"/>
      <point x="1183.2725856697818" y="180.51848235458223"/>
      <point x="1183.2725856697818" y="14.882828846422093" type="qcurve"/>
      <point x="1183.2725856697818" y="-94.9082159296973"/>
      <point x="1130.101246105919" y="-275.14018691588785"/>
      <point x="1096.1417445482864" y="-348.0" type="qcurve"/>
    </contour>
  </outline>
</glyph>
<glyph name="sigma" format="2">
  <advance width="1949.6230529595016"/>
  <unicode hex="03C3"/>
  <outline>
    <contour>
      <point x="917.107476635514" y="-30.0" type="qcurve" smooth="yes"/>
      <point x="552.4059190031153" y="-30.0"/>
      <point x="122.5" y="217.36"/>
      <point x="122.5" y="413.0" type="qcurve" smooth="yes"/>
      <point x="122.5" y="444.0" type="line" smooth="yes"/>
      <point x="122.5" y="661.12"/>
      <point x="556.9741433021807" y="933.1588785046729"/>
      <point x="1078.8084112149531" y="916.0" type="qcurve"/>
      <point x="1862.1230529595016" y="916.0" type="line"/>
      <point x="1862.1230529595016" y="480.70149253731347" type="line"/>
      <point x="1333.4003115264798" y="480.70149253731347" type="line"/>
      <point x="1333.4003115264798" y="790.6" type="line"/>
      <point x="1508.801059190031" y="747.68"/>
      <point x="1712.6682242990655" y="568.92"/>
      <point x="1712.6682242990655" y="458.0" type="qcurve" smooth="yes"/>
      <point x="1712.6682242990655" y="427.0" type="line" smooth="yes"/>
      <point x="1712.6682242990655" y="227.28"/>
      <point x="1282.1423676012462" y="-30.0"/>
    </contour>
    <contour>
      <point x="917.727414330218" y="435.92537313432837" type="qcurve" smooth="yes"/>
      <point x="1010.8207476635514" y="435.92537313432837"/>
      <point x="1127.0607476635514" y="445.25134328358206"/>
      <point x="1127.0607476635514" y="455.0746268656717" type="qcurve" smooth="yes"/>
      <point x="1127.0607476635514" y="462.25373134328356" type="line" smooth="yes"/>
      <point x="1127.0607476635514" y="458.2614925373135"/>
      <point x="1057.834080996885" y="480.2187064676618"/>
      <point x="993.0607476635514" y="480.5522388059701" type="qcurve"/>
      <point x="855.087414330218" y="480.28517412935327"/>
      <point x="709.0607476635514" y="490.5367164179105"/>
      <point x="709.0607476635514" y="461.6567164179105" type="qcurve" smooth="yes"/>
      <point x="709.0607476635514" y="454.4776119402985" type="line" smooth="yes"/>
      <point x="709.0607476635514" y="445.1635820895523"/>
      <point x="824.6340809968848" y="435.92537313432837"/>
    </contour>
  </outline>
</glyph>
<glyph name="upsilon" format="2">
  <advance width="1434.3084112149531"/>
  <unicode hex="03C5"/>
  <anchor x="908.4750778816199" y="916.0" name="top"/>
  <outline>
    <contour>
      <point x="716.4875389408099" y="-20.0" type="qcurve" smooth="yes"/>
      <point x="427.48753894080994" y="-20.0"/>
      <point x="175.5" y="201.0"/>
      <point x="175.5" y="403.0" type="qcurve" smooth="yes"/>
      <point x="175.5" y="916.0" type="line"/>
      <point x="742.8084112149533" y="916.0" type="line"/>
      <point x="742.8084112149533" y="624.7462686567164" type="line" smooth="yes"/>
      <point x="742.8084112149533" y="536.1791044776119"/>
      <point x="821.8084112149533" y="438.86567164179104"/>
      <point x="907.1417445482866" y="438.86567164179104" type="qcurve" smooth="yes"/>
      <point x="993.8084112149531" y="438.86567164179104"/>
      <point x="1071.200376621565" y="536.1791044776119"/>
      <point x="1072.8084112149531" y="624.7462686567164" type="qcurve" smooth="yes"/>
      <point x="1072.8084112149531" y="916.0" type="line"/>
      <point x="1258.8084112149531" y="916.0" type="line"/>
      <point x="1258.8084112149531" y="403.0" type="line" smooth="yes"/>
      <point x="1258.8084112149531" y="201.0"/>
      <point x="1004.5342679127726" y="-20.0"/>
    </contour>
  </outline>
</glyph>
<glyph name="omega" format="2">
  <advance width="2524.246105919003"/>
  <unicode hex="03C9"/>
  <anchor x="1262.169781931464" y="916.0" name="top"/>
  <outline>
    <contour>
      <point x="660.9330218068535" y="-30.0" type="qcurve" smooth="yes"/>
      <point x="406.4195015576324" y="-30.0"/>
      <point x="132.5" y="191.8"/>
      <point x="132.5" y="405.0" type="qcurve"/>
      <point x="132.5" y="568.72"/>
      <point x="261.05613707165105" y="817.12"/>
      <point x="382.9330218068536" y="916.0" type="qcurve"/>
      <point x="836.942367601246" y="916.0" type="line"/>
      <point x="777.2558004370669" y="835.3283582089553"/>
      <point x="694.2757009345794" y="645.9635820895522"/>
      <point x="694.2757009345794" y="546.776119402985" type="qcurve"/>
      <point x="694.2757009345794" y="501.87820895522384"/>
      <point x="763.3157009345794" y="432.2686567164179"/>
      <point x="825.0409996745245" y="432.2686567164179" type="qcurve" smooth="yes"/>
      <point x="907.2757009345794" y="432.2686567164179"/>
      <point x="975.6090342679128" y="514.8394029850747"/>
      <point x="975.6090342679128" y="607.0865671641791" type="qcurve" smooth="yes"/>
      <point x="975.6090342679128" y="841.1641791044776" type="line"/>
      <point x="1542.917445482866" y="841.1641791044776" type="line"/>
      <point x="1542.917445482866" y="607.0865671641791" type="line" smooth="yes"/>
      <point x="1542.917445482866" y="514.8394029850747"/>
      <point x="1611.2641121495328" y="432.2686567164179"/>
      <point x="1693.485480076254" y="432.2686567164179" type="qcurve" smooth="yes"/>
      <point x="1755.2107788161995" y="432.2686567164179"/>
      <point x="1824.2507788161995" y="513.7886567164179"/>
      <point x="1824.2507788161995" y="545.0746268656717" type="qcurve"/>
      <point x="1824.2507788161995" y="646.8143283582089"/>
      <point x="1742.9855051843585" y="836.3498507462687"/>
      <point x="1680.917445482866" y="916.0" type="qcurve"/>
      <point x="2141.3130841121497" y="916.0" type="line"/>
      <point x="2263.1899688473522" y="817.12"/>
      <point x="2391.746105919003" y="568.72"/>
      <point x="2391.746105919003" y="405.0" type="qcurve"/>
      <point x="2391.746105919003" y="191.8"/>
      <point x="2119.7331464174454" y="-30.0"/>
      <point x="1857.5934579439254" y="-30.0" type="qcurve" smooth="yes"/>
      <point x="1587.904984423676" y="-30.0"/>
      <point x="1333.6931464174454" y="119.27102803738318"/>
      <point x="1260.7492211838005" y="262.5233644859813" type="qcurve"/>
      <point x="1261.5903426791276" y="262.5233644859813" type="line"/>
      <point x="1204.8520249221183" y="120.22429906542055"/>
      <point x="922.9953271028037" y="-30.0"/>
    </contour>
  </outline>
</glyph>
<glyph name="Kaisymbol" format="2">
  <advance width="1911.3628586041755"/>
  <unicode hex="03CF"/>
  <outline>
    <contour>
      <point x="207.5" y="0.0" type="line"/>
      <point x="207.5" y="1456.0" type="line"/>
      <point x="799.8738317757009" y="1456.0" type="line"/>
      <point x="799.8738317757009" y="0.0" type="line"/>
    </contour>
    <contour>
      <point x="648.2765378713908" y="30.557678895243413" type="line"/>
      <point x="648.2765378713908" y="648.6920072534524" type="line"/>
      <point x="1163.9107034918866" y="1456.0" type="line"/>
      <point x="1820.8470962942297" y="1456.0" type="line"/>
      <point x="1223.6810573301716" y="700.0107406890779" type="line"/>
    </contour>
    <contour>
      <point x="1190.604012647045" y="138.44720323615564" type="line"/>
      <point x="937.6599014274422" y="666.3223601618079" type="line"/>
      <point x="1301.9867252522433" y="1064.4251639001254" type="line"/>
      <point x="1881.758380992235" y="121.7196261682243" type="line"/>
      <point x="1211.1727112103035" y="-589.0467289719626" type="line"/>
      <point x="929.4731715255498" y="-227.48737620309666" type="line"/>
    </contour>
  </outline>
</glyph>
